<?xml version="1.0" encoding="UTF-8" standalone="no"?>
<!-- Generator: Adobe Illustrator 16.0.0, SVG Export Plug-In . SVG Version: 6.00 Build 0)  -->

<svg
   xmlns:dc="http://purl.org/dc/elements/1.1/"
   xmlns:cc="http://creativecommons.org/ns#"
   xmlns:rdf="http://www.w3.org/1999/02/22-rdf-syntax-ns#"
   xmlns:svg="http://www.w3.org/2000/svg"
   xmlns="http://www.w3.org/2000/svg"
   xmlns:sodipodi="http://sodipodi.sourceforge.net/DTD/sodipodi-0.dtd"
   xmlns:inkscape="http://www.inkscape.org/namespaces/inkscape"
   version="1.1"
   id="Capa_1"
   x="0px"
   y="0px"
   width="32"
   height="32"
   viewBox="0 0 32 32"
   xml:space="preserve"
   sodipodi:docname="category_icon.svg"
   inkscape:version="0.92.2 5c3e80d, 2017-08-06"><metadata
     id="metadata57"><rdf:RDF><cc:Work
         rdf:about=""><dc:format>image/svg+xml</dc:format><dc:type
           rdf:resource="http://purl.org/dc/dcmitype/StillImage" /><dc:title></dc:title></cc:Work></rdf:RDF></metadata><defs
     id="defs55" /><sodipodi:namedview
     pagecolor="#ffffff"
     bordercolor="#666666"
     borderopacity="1"
     objecttolerance="10"
     gridtolerance="10"
     guidetolerance="10"
     inkscape:pageopacity="0"
     inkscape:pageshadow="2"
     inkscape:window-width="1920"
     inkscape:window-height="1035"
     id="namedview53"
     showgrid="false"
     inkscape:showpageshadow="false"
     inkscape:zoom="9.1906379"
     inkscape:cx="47.482727"
     inkscape:cy="14.486256"
     inkscape:window-x="0"
     inkscape:window-y="1"
     inkscape:window-maximized="1"
     inkscape:current-layer="Capa_1" /><g
     id="g22"
     transform="translate(0,-457.76599)" /><g
     id="g24"
     transform="translate(0,-457.76599)" /><g
     id="g26"
     transform="translate(0,-457.76599)" /><g
     id="g28"
     transform="translate(0,-457.76599)" /><g
     id="g30"
     transform="translate(0,-457.76599)" /><g
     id="g32"
     transform="translate(0,-457.76599)" /><g
     id="g34"
     transform="translate(0,-457.76599)" /><g
     id="g36"
     transform="translate(0,-457.76599)" /><g
     id="g38"
     transform="translate(0,-457.76599)" /><g
     id="g40"
     transform="translate(0,-457.76599)" /><g
     id="g42"
     transform="translate(0,-457.76599)" /><g
     id="g44"
     transform="translate(0,-457.76599)" /><g
     id="g46"
     transform="translate(0,-457.76599)" /><g
     id="g48"
     transform="translate(0,-457.76599)" /><g
     id="g50"
     transform="translate(0,-457.76599)" /><g
     id="g154"
     transform="matrix(0.03934386,0,0,0.03934386,-31.544825,4.838524)" /><g
     id="g156"
     transform="matrix(0.03934386,0,0,0.03934386,-31.544825,4.838524)" /><g
     id="g158"
     transform="matrix(0.03934386,0,0,0.03934386,-31.544825,4.838524)" /><g
     id="g160"
     transform="matrix(0.03934386,0,0,0.03934386,-31.544825,4.838524)" /><g
     id="g162"
     transform="matrix(0.03934386,0,0,0.03934386,-31.544825,4.838524)" /><g
     id="g164"
     transform="matrix(0.03934386,0,0,0.03934386,-31.544825,4.838524)" /><g
     id="g166"
     transform="matrix(0.03934386,0,0,0.03934386,-31.544825,4.838524)" /><g
     id="g168"
     transform="matrix(0.03934386,0,0,0.03934386,-31.544825,4.838524)" /><g
     id="g170"
     transform="matrix(0.03934386,0,0,0.03934386,-31.544825,4.838524)" /><g
     id="g172"
     transform="matrix(0.03934386,0,0,0.03934386,-31.544825,4.838524)" /><g
     id="g174"
     transform="matrix(0.03934386,0,0,0.03934386,-31.544825,4.838524)" /><g
     id="g176"
     transform="matrix(0.03934386,0,0,0.03934386,-31.544825,4.838524)" /><g
     id="g178"
     transform="matrix(0.03934386,0,0,0.03934386,-31.544825,4.838524)" /><g
     id="g180"
     transform="matrix(0.03934386,0,0,0.03934386,-31.544825,4.838524)" /><g
     id="g182"
     transform="matrix(0.03934386,0,0,0.03934386,-31.544825,4.838524)" /><g
     id="g487"
     transform="matrix(0.07197111,0,0,0.07197111,-55.236653,3.3444031)" /><g
     id="g489"
     transform="matrix(0.07197111,0,0,0.07197111,-55.236653,3.3444031)" /><g
     id="g491"
     transform="matrix(0.07197111,0,0,0.07197111,-55.236653,3.3444031)" /><g
     id="g493"
     transform="matrix(0.07197111,0,0,0.07197111,-55.236653,3.3444031)" /><g
     id="g495"
     transform="matrix(0.07197111,0,0,0.07197111,-55.236653,3.3444031)" /><g
     id="g497"
     transform="matrix(0.07197111,0,0,0.07197111,-55.236653,3.3444031)" /><g
     id="g499"
     transform="matrix(0.07197111,0,0,0.07197111,-55.236653,3.3444031)" /><g
     id="g501"
     transform="matrix(0.07197111,0,0,0.07197111,-55.236653,3.3444031)" /><g
     id="g503"
     transform="matrix(0.07197111,0,0,0.07197111,-55.236653,3.3444031)" /><g
     id="g505"
     transform="matrix(0.07197111,0,0,0.07197111,-55.236653,3.3444031)" /><g
     id="g507"
     transform="matrix(0.07197111,0,0,0.07197111,-55.236653,3.3444031)" /><g
     id="g509"
     transform="matrix(0.07197111,0,0,0.07197111,-55.236653,3.3444031)" /><g
     id="g511"
     transform="matrix(0.07197111,0,0,0.07197111,-55.236653,3.3444031)" /><g
     id="g513"
     transform="matrix(0.07197111,0,0,0.07197111,-55.236653,3.3444031)" /><g
     id="g515"
     transform="matrix(0.07197111,0,0,0.07197111,-55.236653,3.3444031)" /><polygon
     points="95,150 205,150 205,100 65,100 65,410 205,410 205,360 95,360 95,330 205,330 205,300 95,300 95,270 205,270 205,240 95,240 95,210 205,210 205,180 95,180 "
     style="fill:#dedde0"
     id="XMLID_822_"
     transform="matrix(0.08571428,0,0,0.08571428,-1.5714288,-4.142857)" /><path
     d="m 16,8.7142855 h 4.285714 V 11.285715 H 16 v 2.571428 h 4.285714 v 2.571428 H 16 V 19 h 4.285714 v 2.571429 H 16 v 2.571428 h 4.285714 v 2.571428 H 16 V 31 H 28 V 4.4285715 H 16 Z m 6.857142,0 h 2.571429 v 2.5714295 h -2.571429 z m 0,5.1428575 h 2.571429 v 2.571428 h -2.571429 z m 0,5.142857 h 2.571429 v 2.571429 h -2.571429 z m 0,5.142857 h 2.571429 v 2.571428 h -2.571429 z"
     style="fill:#cdcdd0;stroke-width:0.08571428"
     id="XMLID_823_"
     inkscape:connector-curvature="0" /><path
     style="fill:#acabb1;stroke-width:0.08571428"
     d="m 27.999998,0.9999998 c -23.9999986,0 0,0 -23.9999986,0 V 4.428571 H 15.999999 27.999998 Z"
     id="XMLID_829_"
     inkscape:connector-curvature="0"
     sodipodi:nodetypes="cccccc" /><polygon
     points="205,360 255,360 255,330 205,330 95,330 95,360 "
     style="fill:#ffffff"
     id="XMLID_831_"
     transform="matrix(0.08571428,0,0,0.08571428,-1.5714288,-4.142857)" /><polygon
     points="205,240 255,240 255,210 205,210 95,210 95,240 "
     style="fill:#ffffff"
     id="XMLID_832_"
     transform="matrix(0.08571428,0,0,0.08571428,-1.5714288,-4.142857)" /><polygon
     points="205,180 255,180 255,150 205,150 95,150 95,180 "
     style="fill:#ffffff"
     id="XMLID_833_"
     transform="matrix(0.08571428,0,0,0.08571428,-1.5714288,-4.142857)" /><polygon
     points="205,300 255,300 255,270 205,270 95,270 95,300 "
     style="fill:#ffffff"
     id="XMLID_834_"
     transform="matrix(0.08571428,0,0,0.08571428,-1.5714288,-4.142857)" /><rect
     height="2.5714285"
     width="2.5714285"
     style="fill:#00ccff;stroke-width:0.08571428"
     y="24.142857"
     x="22.857141"
     id="XMLID_835_" /><rect
     height="2.5714285"
     width="2.5714285"
     style="fill:#00ccff;stroke-width:0.08571428"
     y="13.857142"
     x="22.857141"
     id="XMLID_836_" /><rect
     height="2.5714285"
     width="2.5714285"
     style="fill:#00ccff;stroke-width:0.08571428"
     y="8.7142859"
     x="22.857141"
     id="XMLID_837_" /><rect
     height="2.5714285"
     width="2.5714285"
     style="fill:#00ccff;stroke-width:0.08571428"
     y="19"
     x="22.857141"
     id="XMLID_838_" /><path
     style="color:#000000;font-style:normal;font-variant:normal;font-weight:normal;font-stretch:normal;font-size:medium;line-height:normal;font-family:sans-serif;font-variant-ligatures:normal;font-variant-position:normal;font-variant-caps:normal;font-variant-numeric:normal;font-variant-alternates:normal;font-feature-settings:normal;text-indent:0;text-align:start;text-decoration:none;text-decoration-line:none;text-decoration-style:solid;text-decoration-color:#000000;letter-spacing:normal;word-spacing:normal;text-transform:none;writing-mode:lr-tb;direction:ltr;text-orientation:mixed;dominant-baseline:auto;baseline-shift:baseline;text-anchor:start;white-space:normal;shape-padding:0;clip-rule:nonzero;display:inline;overflow:visible;visibility:visible;opacity:1;isolation:auto;mix-blend-mode:normal;color-interpolation:sRGB;color-interpolation-filters:linearRGB;solid-color:#000000;solid-opacity:1;vector-effect:none;fill:#808080;fill-opacity:1;fill-rule:nonzero;stroke:none;stroke-width:1.00157475;stroke-linecap:square;stroke-linejoin:miter;stroke-miterlimit:4;stroke-dasharray:1.00157475, 2.00314951;stroke-dashoffset:0;stroke-opacity:1;color-rendering:auto;image-rendering:auto;shape-rendering:auto;text-rendering:auto;enable-background:accumulate"
     d="m 7.3242188,25.929688 h 0.5 1.0019531 0.5019531 v -1.001954 h -0.5019531 -1.0019531 -0.5 z m 3.0039062,0 h 0.501953 1.001953 0.5 v -1.001954 h -0.5 -1.001953 -0.501953 z m 3.005859,0 h 0.5 1.001954 0.5 v -1.001954 h -0.5 -1.001954 -0.5 z m 3.003907,0 h 0.501953 1 0.501953 v -1.001954 h -0.501953 -1 -0.501953 z"
     id="path2008"
     inkscape:connector-curvature="0" /><path
     style="color:#000000;font-style:normal;font-variant:normal;font-weight:normal;font-stretch:normal;font-size:medium;line-height:normal;font-family:sans-serif;font-variant-ligatures:normal;font-variant-position:normal;font-variant-caps:normal;font-variant-numeric:normal;font-variant-alternates:normal;font-feature-settings:normal;text-indent:0;text-align:start;text-decoration:none;text-decoration-line:none;text-decoration-style:solid;text-decoration-color:#000000;letter-spacing:normal;word-spacing:normal;text-transform:none;writing-mode:lr-tb;direction:ltr;text-orientation:mixed;dominant-baseline:auto;baseline-shift:baseline;text-anchor:start;white-space:normal;shape-padding:0;clip-rule:nonzero;display:inline;overflow:visible;visibility:visible;opacity:1;isolation:auto;mix-blend-mode:normal;color-interpolation:sRGB;color-interpolation-filters:linearRGB;solid-color:#000000;solid-opacity:1;vector-effect:none;fill:#808080;fill-opacity:1;fill-rule:nonzero;stroke:none;stroke-width:1.00157475;stroke-linecap:square;stroke-linejoin:miter;stroke-miterlimit:4;stroke-dasharray:1.00157475, 2.00314951;stroke-dashoffset:0;stroke-opacity:1;color-rendering:auto;image-rendering:auto;shape-rendering:auto;text-rendering:auto;enable-background:accumulate"
     d="m 7.3242188,20.787109 h 0.5 1.0019531 0.5019531 v -1.001953 h -0.5019531 -1.0019531 -0.5 z m 3.0039062,0 h 0.501953 1.001953 0.5 v -1.001953 h -0.5 -1.001953 -0.501953 z m 3.005859,0 h 0.5 1.001954 0.5 v -1.001953 h -0.5 -1.001954 -0.5 z m 3.003907,0 h 0.501953 1 0.501953 v -1.001953 h -0.501953 -1 -0.501953 z"
     id="path2010"
     inkscape:connector-curvature="0" /><path
     style="color:#000000;font-style:normal;font-variant:normal;font-weight:normal;font-stretch:normal;font-size:medium;line-height:normal;font-family:sans-serif;font-variant-ligatures:normal;font-variant-position:normal;font-variant-caps:normal;font-variant-numeric:normal;font-variant-alternates:normal;font-feature-settings:normal;text-indent:0;text-align:start;text-decoration:none;text-decoration-line:none;text-decoration-style:solid;text-decoration-color:#000000;letter-spacing:normal;word-spacing:normal;text-transform:none;writing-mode:lr-tb;direction:ltr;text-orientation:mixed;dominant-baseline:auto;baseline-shift:baseline;text-anchor:start;white-space:normal;shape-padding:0;clip-rule:nonzero;display:inline;overflow:visible;visibility:visible;opacity:1;isolation:auto;mix-blend-mode:normal;color-interpolation:sRGB;color-interpolation-filters:linearRGB;solid-color:#000000;solid-opacity:1;vector-effect:none;fill:#808080;fill-opacity:1;fill-rule:nonzero;stroke:none;stroke-width:1.00157475;stroke-linecap:square;stroke-linejoin:miter;stroke-miterlimit:4;stroke-dasharray:1.00157475, 2.00314951;stroke-dashoffset:0;stroke-opacity:1;color-rendering:auto;image-rendering:auto;shape-rendering:auto;text-rendering:auto;enable-background:accumulate"
     d="m 7.3242188,15.644531 h 0.5 1.0019531 0.5019531 v -1.001953 h -0.5019531 -1.0019531 -0.5 z m 3.0039062,0 h 0.501953 1.001953 0.5 v -1.001953 h -0.5 -1.001953 -0.501953 z m 3.005859,0 h 0.5 1.001954 0.5 v -1.001953 h -0.5 -1.001954 -0.5 z m 3.003907,0 h 0.501953 1 0.501953 v -1.001953 h -0.501953 -1 -0.501953 z"
     id="path2012"
     inkscape:connector-curvature="0" /><path
     style="color:#000000;font-style:normal;font-variant:normal;font-weight:normal;font-stretch:normal;font-size:medium;line-height:normal;font-family:sans-serif;font-variant-ligatures:normal;font-variant-position:normal;font-variant-caps:normal;font-variant-numeric:normal;font-variant-alternates:normal;font-feature-settings:normal;text-indent:0;text-align:start;text-decoration:none;text-decoration-line:none;text-decoration-style:solid;text-decoration-color:#000000;letter-spacing:normal;word-spacing:normal;text-transform:none;writing-mode:lr-tb;direction:ltr;text-orientation:mixed;dominant-baseline:auto;baseline-shift:baseline;text-anchor:start;white-space:normal;shape-padding:0;clip-rule:nonzero;display:inline;overflow:visible;visibility:visible;opacity:1;isolation:auto;mix-blend-mode:normal;color-interpolation:sRGB;color-interpolation-filters:linearRGB;solid-color:#000000;solid-opacity:1;vector-effect:none;fill:#808080;fill-opacity:1;fill-rule:nonzero;stroke:none;stroke-width:1.00157475;stroke-linecap:square;stroke-linejoin:miter;stroke-miterlimit:4;stroke-dasharray:1.00157475, 2.00314951;stroke-dashoffset:0;stroke-opacity:1;color-rendering:auto;image-rendering:auto;shape-rendering:auto;text-rendering:auto;enable-background:accumulate"
     d="m 7.3242188,10.5 h 0.5 1.0019531 0.5019531 v -1 h -0.5019531 -1.0019531 -0.5 z m 3.0039062,0 h 0.501953 1.001953 0.5 v -1 h -0.5 -1.001953 -0.501953 z m 3.005859,0 h 0.5 1.001954 0.5 v -1 h -0.5 -1.001954 -0.5 z m 3.003907,0 h 0.501953 1 0.501953 v -1 h -0.501953 -1 -0.501953 z"
     id="path2014"
     inkscape:connector-curvature="0" /></svg>