<?xml version="1.0" encoding="UTF-8" standalone="no"?>
<!-- Created with Inkscape (http://www.inkscape.org/) -->

<svg
   xmlns:dc="http://purl.org/dc/elements/1.1/"
   xmlns:cc="http://creativecommons.org/ns#"
   xmlns:rdf="http://www.w3.org/1999/02/22-rdf-syntax-ns#"
   xmlns:svg="http://www.w3.org/2000/svg"
   xmlns="http://www.w3.org/2000/svg"
   xmlns:sodipodi="http://sodipodi.sourceforge.net/DTD/sodipodi-0.dtd"
   xmlns:inkscape="http://www.inkscape.org/namespaces/inkscape"
   width="512"
   height="144"
   viewBox="0 0 135.46666 38.100001"
   version="1.1"
   id="svg8"
   inkscape:version="0.92.2 5c3e80d, 2017-08-06"
   sodipodi:docname="davosky_logo_2019.svg">
  <defs
     id="defs2" />
  <sodipodi:namedview
     id="base"
     pagecolor="#ffffff"
     bordercolor="#666666"
     borderopacity="1.0"
     inkscape:pageopacity="0.0"
     inkscape:pageshadow="2"
     inkscape:zoom="1.8879199"
     inkscape:cx="233.58217"
     inkscape:cy="87.860713"
     inkscape:document-units="px"
     inkscape:current-layer="g1689"
     showgrid="false"
     units="px"
     inkscape:showpageshadow="false"
     inkscape:window-width="1920"
     inkscape:window-height="1035"
     inkscape:window-x="0"
     inkscape:window-y="1"
     inkscape:window-maximized="1" />
  <metadata
     id="metadata5">
    <rdf:RDF>
      <cc:Work
         rdf:about="">
        <dc:format>image/svg+xml</dc:format>
        <dc:type
           rdf:resource="http://purl.org/dc/dcmitype/StillImage" />
        <dc:title></dc:title>
      </cc:Work>
    </rdf:RDF>
  </metadata>
  <g
     inkscape:label="Livello 1"
     inkscape:groupmode="layer"
     id="layer1"
     transform="translate(0,-258.89998)">
    <g
       id="g1689"
       transform="matrix(1.1300754,0,0,1.1300754,-2.2743077,-4.216609)">
      <g
         id="g1169" />
      <g
         id="g1024"
         transform="matrix(0.27034183,0,0,0.27034183,-1.889381,248.12678)">
        <path
           id="path834"
           d="m 82.326297,-53.914034 c -0.02758,0 0.712745,6.67e-4 0.685152,6.67e-4 l -0.0052,0.0036 c -0.226408,-0.0026 -0.452941,-0.0042 -0.679942,-0.0042 z m 0.679942,0.0042 c 32.404041,0.363256 58.671991,26.649595 59.006061,59.0604719 h -6.95995 C 134.71836,-23.72341 111.28085,-46.954081 82.326297,-46.954079 c -0.02759,0 0.712753,6.67e-4 0.685152,6.67e-4 l -4.998935,-3.428036 z m -2.430268,0.02182 -5.052667,3.498048 5.008705,3.467115 c -4.202767,0.139956 -8.278074,0.773077 -12.173816,1.837274 l -1.799165,-6.715397 c 4.485133,-1.228678 9.179403,-1.947183 14.016943,-2.08704 z m -15.618453,2.55043 1.799174,6.71507 c -3.918257,1.205594 -7.639317,2.85643 -11.107347,4.890496 l -3.46385,-5.99996 c 3.98643,-2.340752 8.26635,-4.233707 12.772023,-5.605608 z m -14.198013,6.469862 3.46517,6.001587 c -3.39576,2.138978 -6.52835,4.655537 -9.34138,7.489774 l -4.89115,-4.890823 c 3.23937,-3.261178 6.85147,-6.1518 10.76736,-8.600538 z m -11.92535,9.800205 4.89311,4.893101 c -5.74899,6.169405 -10.03275,13.722572 -12.30212,22.1114379 l -6.71116,-1.798197 c 2.59802,-9.5662209 7.52025,-18.1832069 14.12017,-25.2063099 z m -14.53309,26.8205519 6.71736,1.80015 c -0.92819,3.921798 -1.42241,8.01327 -1.42241,12.222653 0,4.3498391 0.5282,8.5735311 1.51717,12.6147391 l -6.71702,1.799822 c -1.14834,-4.617473 -1.7588,-9.445708 -1.7588,-14.4145611 0,-4.82875095 0.57704,-9.524349 1.6637,-14.022803 z M 142.00611,6.8185759 C 141.72875,22.941308 135.03444,37.52218 124.37128,48.112631 L 119.48013,43.22149 C 128.8743,33.900163 134.77005,21.059105 135.04518,6.8185759 Z M 31.533255,20.003195 c 2.32194,8.331508 6.63392,15.82587 12.39363,21.940468 l -4.89148,4.891808 C 32.424285,39.867706 27.472395,31.310813 24.821125,21.801716 Z m 13.55779,23.13428 c 9.14775,9.117968 21.632481,14.888988 35.484926,15.339055 v 6.963198 C 64.839763,64.984575 50.616995,58.414491 40.200555,48.027966 Z m 73.185835,1.238079 4.89538,4.895059 C 112.48844,59.309491 98.116072,65.466105 82.326297,65.466105 h -0.08271 v -6.959947 c 0.02761,3.3e-5 0.0551,0 0.08271,0 13.906501,0 26.537723,-5.361533 35.950583,-14.130604 z"
           style="color:#000000;font-style:normal;font-variant:normal;font-weight:normal;font-stretch:normal;font-size:medium;line-height:normal;font-family:sans-serif;font-variant-ligatures:normal;font-variant-position:normal;font-variant-caps:normal;font-variant-numeric:normal;font-variant-alternates:normal;font-feature-settings:normal;text-indent:0;text-align:start;text-decoration:none;text-decoration-line:none;text-decoration-style:solid;text-decoration-color:#000000;letter-spacing:normal;word-spacing:normal;text-transform:none;writing-mode:lr-tb;direction:ltr;text-orientation:mixed;dominant-baseline:auto;baseline-shift:baseline;text-anchor:start;white-space:normal;shape-padding:0;clip-rule:nonzero;display:inline;overflow:visible;visibility:visible;opacity:1;isolation:auto;mix-blend-mode:normal;color-interpolation:sRGB;color-interpolation-filters:linearRGB;solid-color:#000000;solid-opacity:1;vector-effect:none;fill:#000000;fill-opacity:1;fill-rule:nonzero;stroke:none;stroke-width:6.9596839;stroke-linecap:round;stroke-linejoin:round;stroke-miterlimit:4;stroke-dasharray:none;stroke-dashoffset:0;stroke-opacity:1;color-rendering:auto;image-rendering:auto;shape-rendering:auto;text-rendering:auto;enable-background:accumulate"
           inkscape:connector-curvature="0"
           sodipodi:nodetypes="ccccccccsccccccccccccccccccccccccccccsccsccccccccccccccccccsccsc" />
        <path
           inkscape:connector-curvature="0"
           style="opacity:1;fill:#00aad4;fill-opacity:1;stroke:none;stroke-width:0.141369;stroke-linecap:square;stroke-linejoin:miter;stroke-miterlimit:4;stroke-dasharray:none;stroke-dashoffset:0;stroke-opacity:1"
           d="M 82.324776,-30.966726 A 36.742761,36.742761 0 0 0 45.757254,2.2767419 H 118.86643 A 36.742761,36.742761 0 0 0 82.324776,-30.966726 Z M 45.783538,9.2753319 A 36.742761,36.742761 0 0 0 82.324776,42.518792 36.742761,36.742761 0 0 0 118.8923,9.2753319 Z"
           id="path1499" />
        <path
           inkscape:connector-curvature="0"
           id="path1512"
           style="font-style:normal;font-variant:normal;font-weight:normal;font-stretch:normal;font-size:55.88350677px;line-height:1.25;font-family:'Anita Semi-square';-inkscape-font-specification:'Anita Semi-square, Normal';font-variant-ligatures:normal;font-variant-caps:normal;font-variant-numeric:normal;font-feature-settings:normal;text-align:start;letter-spacing:0px;word-spacing:0px;writing-mode:lr-tb;text-anchor:start;fill:#00aad4;fill-opacity:1;stroke:none;stroke-width:5.05607891"
           d="m 168.14191,14.573876 h 22.68814 c 5.8461,0.355506 8.8679,-2.863796 9.0654,-9.6579053 V -7.3743062 c -0.079,-6.0435948 -2.98234,-9.0456448 -8.70989,-9.0061488 h -29.26499 v 43.397023 h -12.32419 v -55.780453 h 44.07772 c 12.2452,0.276493 18.48629,6.359583 18.72329,18.249272 l -0.17784,18.9263957 c -0.237,12.0871853 -6.41885,18.2887793 -18.54554,18.6047853 h -25.53218 z"
           sodipodi:nodetypes="ccccccccccccccc" />
        <path
           inkscape:connector-curvature="0"
           id="path1514"
           style="font-style:normal;font-variant:normal;font-weight:normal;font-stretch:normal;font-size:55.88350677px;line-height:1.25;font-family:'Anita Semi-square';-inkscape-font-specification:'Anita Semi-square, Normal';font-variant-ligatures:normal;font-variant-caps:normal;font-variant-numeric:normal;font-feature-settings:normal;text-align:start;letter-spacing:0px;word-spacing:0px;writing-mode:lr-tb;text-anchor:start;fill:#00aad4;fill-opacity:1;stroke:none;stroke-width:2.51637769"
           d="m 219.19058,1.9634692 v -6.1631633 h 21.64478 q 9.25948,0 9.31846,9.0825538 V 26.763546 h -25.50781 q -8.55175,0 -8.55175,-7.726064 v -4.275876 q 0,-7.8440233 7.903,-7.8735043 h 16.36628 v 6.1926443 h -13.62382 q -4.45281,0 -4.48229,3.627117 h 0.0295 q 0,3.863037 4.12844,3.863037 H 243.9612 L 243.9317,6.8586087 q 0,-4.8951395 -4.15792,-4.8951395 z" />
        <path
           inkscape:connector-curvature="0"
           id="path1516"
           style="font-style:normal;font-variant:normal;font-weight:normal;font-stretch:normal;font-size:55.88350677px;line-height:1.25;font-family:'Anita Semi-square';-inkscape-font-specification:'Anita Semi-square, Normal';font-variant-ligatures:normal;font-variant-caps:normal;font-variant-numeric:normal;font-feature-settings:normal;text-align:start;letter-spacing:0px;word-spacing:0px;writing-mode:lr-tb;text-anchor:start;fill:#00aad4;fill-opacity:1;stroke:none;stroke-width:2.51637769"
           d="m 290.02267,-4.0227615 -14.9803,30.7863075 h -3.80406 L 256.11056,-4.0227615 h 6.75293 l 10.35057,21.1434725 10.40955,-21.1434725 z" />
        <path
           inkscape:connector-curvature="0"
           id="path1518"
           style="font-style:normal;font-variant:normal;font-weight:normal;font-stretch:normal;font-size:55.88350677px;line-height:1.25;font-family:'Anita Semi-square';-inkscape-font-specification:'Anita Semi-square, Normal';font-variant-ligatures:normal;font-variant-caps:normal;font-variant-numeric:normal;font-feature-settings:normal;text-align:start;letter-spacing:0px;word-spacing:0px;writing-mode:lr-tb;text-anchor:start;fill:#00aad4;fill-opacity:1;stroke:none;stroke-width:2.51637769"
           d="m 318.3909,1.9339802 h -13.7123 q -4.03996,0.029503 -4.09894,3.9514985 V 17.415603 q -0.0295,3.125808 5.36697,3.155297 h 12.20835 q 4.15793,0 4.18742,-2.329613 V 5.8854787 q 0,-3.9220063 -3.9515,-3.9514985 z m 10.20312,3.1258145 V 19.06697 q -0.0295,7.60811 -9.40693,7.696576 h -15.5111 q -9.25949,-0.08846 -9.28897,-7.932486 V 5.0597947 q 0.0885,-9.2594855 9.34794,-9.2889777 h 15.48162 q 9.28897,0 9.37744,9.2889777 z" />
        <path
           inkscape:connector-curvature="0"
           id="path1520"
           style="font-style:normal;font-variant:normal;font-weight:normal;font-stretch:normal;font-size:55.88350677px;line-height:1.25;font-family:'Anita  Semi-square';-inkscape-font-specification:'Anita  Semi-square, Normal';font-variant-ligatures:normal;font-variant-caps:normal;font-variant-numeric:normal;font-feature-settings:normal;text-align:start;letter-spacing:0px;word-spacing:0px;writing-mode:lr-tb;text-anchor:start;fill:#000000;fill-opacity:1;stroke:none;stroke-width:2.51637769"
           d="m 369.7014,1.8750034 h -24.53468 q -3.06683,0.029503 -3.06683,3.0373483 0,3.096323 3.09632,3.125815 h 15.36367 q 9.28896,0 9.31845,7.9619703 v 3.037345 q -0.14745,7.726064 -9.4659,7.726064 h -24.44621 v -6.163157 h 23.65001 q 3.89253,-0.02949 4.01048,-3.420705 -0.0295,-2.801433 -3.98098,-2.860407 h -14.44952 q -9.28897,0 -9.31846,-7.6081073 v -3.125814 q 0.0295,-7.7850498 9.31846,-7.7850498 h 24.50519 z" />
        <path
           inkscape:connector-curvature="0"
           id="path1522"
           style="font-style:normal;font-variant:normal;font-weight:normal;font-stretch:normal;font-size:55.88350677px;line-height:1.25;font-family:'Anita  Semi-square';-inkscape-font-specification:'Anita  Semi-square, Normal';font-variant-ligatures:normal;font-variant-caps:normal;font-variant-numeric:normal;font-feature-settings:normal;text-align:start;letter-spacing:0px;word-spacing:0px;writing-mode:lr-tb;text-anchor:start;fill:#000000;fill-opacity:1;stroke:none;stroke-width:2.51637769"
           d="m 375.65813,-16.584983 h 6.19266 v 43.348529 h -6.19266 z m 26.71686,43.348529 -17.42788,-16.720149 16.69065,-14.2135989 h 9.52488 l -16.95606,14.4789969 17.13299,16.454751 z" />
        <path
           inkscape:connector-curvature="0"
           id="path1524"
           style="font-style:normal;font-variant:normal;font-weight:normal;font-stretch:normal;font-size:55.88350677px;line-height:1.25;font-family:'Anita  Semi-square';-inkscape-font-specification:'Anita  Semi-square, Normal';font-variant-ligatures:normal;font-variant-caps:normal;font-variant-numeric:normal;font-feature-settings:normal;text-align:start;letter-spacing:0px;word-spacing:0px;writing-mode:lr-tb;text-anchor:start;fill:#000000;fill-opacity:1;stroke:none;stroke-width:2.51637769"
           d="M 421.74912,-4.2055774 V 16.348117 c 0.0197,2.811266 1.46463,4.226729 4.33486,4.246388 h 13.88922 v 6.163158 h -15.15725 c -6.15332,-0.01966 -9.24965,-3.047178 -9.28896,-9.08255 V -4.2055774 Z m 27.89641,0 V 35.432662 c -0.0393,6.153329 -3.13566,9.249652 -9.28898,9.288971 h -18.60743 v -12.06514 h 17.63431 c 2.69331,-0.01966 4.04979,-1.317169 4.06944,-3.892522 V -4.2055774 Z"
           sodipodi:nodetypes="cccccccccscccccccs" />
        <path
           id="path1540"
           style="font-style:normal;font-variant:normal;font-weight:normal;font-stretch:normal;font-size:medium;line-height:1.25;font-family:SquareFont;-inkscape-font-specification:SquareFont;letter-spacing:0px;word-spacing:0px;fill:#000000;fill-opacity:1;stroke:none;stroke-width:0.22349212"
           d="m 303.99224,42.445183 h 7.48526 V 44.46861 H 301.08247 V 32.657041 h 10.39503 v 2.023431 h -7.48526 z"
           inkscape:connector-curvature="0" />
        <path
           id="path1542"
           style="font-style:normal;font-variant:normal;font-weight:normal;font-stretch:normal;font-size:medium;line-height:1.25;font-family:SquareFont;-inkscape-font-specification:SquareFont;letter-spacing:0px;word-spacing:0px;fill:#000000;fill-opacity:1;stroke:none;stroke-width:0.22349212"
           d="M 324.00214,32.657041 V 44.46861 H 313.60712 V 32.657041 Z m -2.73054,2.023431 h -4.75473 v 7.764711 h 4.75473 z"
           inkscape:connector-curvature="0" />
        <path
           id="path1544"
           style="font-style:normal;font-variant:normal;font-weight:normal;font-stretch:normal;font-size:medium;line-height:1.25;font-family:SquareFont;-inkscape-font-specification:SquareFont;letter-spacing:0px;word-spacing:0px;fill:#000000;fill-opacity:1;stroke:none;stroke-width:0.22349212"
           d="m 329.04151,44.46861 h -2.90976 V 32.657041 h 2.90976 l 4.75472,6.62139 v -6.62139 h 2.73054 V 44.46861 h -2.73054 l -4.75472,-6.818794 z"
           inkscape:connector-curvature="0" />
        <path
           id="path1546"
           style="font-style:normal;font-variant:normal;font-weight:normal;font-stretch:normal;font-size:medium;line-height:1.25;font-family:SquareFont;-inkscape-font-specification:SquareFont;letter-spacing:0px;word-spacing:0px;fill:#000000;fill-opacity:1;stroke:none;stroke-width:0.22349212"
           d="m 341.56615,44.46861 h -2.90976 V 32.657041 h 2.90976 l 4.75472,6.62139 v -6.62139 h 2.73054 V 44.46861 h -2.73054 l -4.75472,-6.818794 z"
           inkscape:connector-curvature="0" />
        <path
           id="path1548"
           style="font-style:normal;font-variant:normal;font-weight:normal;font-stretch:normal;font-size:medium;line-height:1.25;font-family:SquareFont;-inkscape-font-specification:SquareFont;letter-spacing:0px;word-spacing:0px;fill:#000000;fill-opacity:1;stroke:none;stroke-width:0.22349212"
           d="m 354.09079,34.680472 v 2.919992 h 7.48526 v 1.924727 h -7.48526 v 2.919992 h 7.48526 V 44.46861 H 351.18102 V 32.657041 h 10.39503 v 2.023431 z"
           inkscape:connector-curvature="0" />
        <path
           id="path1550"
           style="font-style:normal;font-variant:normal;font-weight:normal;font-stretch:normal;font-size:medium;line-height:1.25;font-family:SquareFont;-inkscape-font-specification:SquareFont;letter-spacing:0px;word-spacing:0px;fill:#000000;fill-opacity:1;stroke:none;stroke-width:0.22349212"
           d="m 366.61542,42.445183 h 7.48527 V 44.46861 H 363.70566 V 32.657041 h 10.39503 v 2.023431 h -7.48527 z"
           inkscape:connector-curvature="0" />
        <path
           id="path1552"
           style="font-style:normal;font-variant:normal;font-weight:normal;font-stretch:normal;font-size:medium;line-height:1.25;font-family:SquareFont;-inkscape-font-specification:SquareFont;letter-spacing:0px;word-spacing:0px;fill:#000000;fill-opacity:1;stroke:none;stroke-width:0.22349212"
           d="m 380.16269,34.680472 h -3.9324 v -2.023431 h 10.39503 v 2.023431 h -3.55286 v 9.788138 h -2.90977 z"
           inkscape:connector-curvature="0" />
        <path
           id="path1554"
           style="font-style:normal;font-variant:normal;font-weight:normal;font-stretch:normal;font-size:medium;line-height:1.25;font-family:SquareFont;-inkscape-font-specification:SquareFont;letter-spacing:0px;word-spacing:0px;fill:#000000;fill-opacity:1;stroke:none;stroke-width:0.22349212"
           d="m 391.66469,44.46861 h -2.90976 V 32.657041 h 2.90976 z"
           inkscape:connector-curvature="0" />
        <path
           id="path1556"
           style="font-style:normal;font-variant:normal;font-weight:normal;font-stretch:normal;font-size:medium;line-height:1.25;font-family:SquareFont;-inkscape-font-specification:SquareFont;letter-spacing:0px;word-spacing:0px;fill:#000000;fill-opacity:1;stroke:none;stroke-width:0.22349212"
           d="M 404.16825,32.657041 V 44.46861 H 393.77322 V 32.657041 Z m -2.73054,2.023431 h -4.75472 v 7.764711 h 4.75472 z"
           inkscape:connector-curvature="0" />
        <path
           id="path1558"
           style="font-style:normal;font-variant:normal;font-weight:normal;font-stretch:normal;font-size:medium;line-height:1.25;font-family:SquareFont;-inkscape-font-specification:SquareFont;letter-spacing:0px;word-spacing:0px;fill:#000000;fill-opacity:1;stroke:none;stroke-width:0.22349212"
           d="m 409.20762,44.46861 h -2.90977 V 32.657041 h 2.90977 l 4.75473,6.62139 v -6.62139 h 2.73053 V 44.46861 h -2.73053 l -4.75473,-6.818794 z"
           inkscape:connector-curvature="0" />
        <text
           xml:space="preserve"
           style="font-style:normal;font-variant:normal;font-weight:normal;font-stretch:normal;font-size:9.93963432px;line-height:1.25;font-family:'DIN Condensed';-inkscape-font-specification:'DIN Condensed, ';letter-spacing:0px;word-spacing:0px;fill:#000000;fill-opacity:1;stroke:none;stroke-width:0.11648009"
           x="217.26892"
           y="-15.707145"
           id="text1608"><tspan
             sodipodi:role="line"
             id="tspan1606"
             x="217.26892"
             y="-15.707145"
             style="font-style:normal;font-variant:normal;font-weight:normal;font-stretch:normal;font-family:SquareFont;-inkscape-font-specification:SquareFont;stroke-width:0.11648009">the</tspan></text>
        <path
           id="rect850"
           d="m 151.99755,32.657041 h 14.39146 c 1.33025,0 2.40117,1.070921 2.40117,2.401168 v 7.009233 c 0,1.330247 -1.07092,2.401169 -2.40117,2.401169 h -14.39146 c -1.33025,0 -2.40117,-1.070922 -2.40117,-2.401169 v -7.009233 c 0,-1.330247 1.07092,-2.401168 2.40117,-2.401168 z"
           style="opacity:1;fill:#000000;fill-opacity:1;stroke:none;stroke-width:0.05971709;stroke-linecap:square;stroke-linejoin:miter;stroke-miterlimit:4;stroke-dasharray:none;stroke-dashoffset:0;stroke-opacity:1"
           inkscape:connector-curvature="0" />
        <path
           inkscape:connector-curvature="0"
           id="rect854"
           d="m 172.80205,32.657041 h 14.39146 c 1.33025,0 2.40117,1.070921 2.40117,2.401168 v 7.009233 c 0,1.330247 -1.07092,2.401169 -2.40117,2.401169 h -14.39146 c -1.33025,0 -2.40117,-1.070922 -2.40117,-2.401169 v -7.009233 c 0,-1.330247 1.07092,-2.401168 2.40117,-2.401168 z"
           style="opacity:1;fill:#000000;fill-opacity:1;stroke:none;stroke-width:0.05971709;stroke-linecap:square;stroke-linejoin:miter;stroke-miterlimit:4;stroke-dasharray:none;stroke-dashoffset:0;stroke-opacity:1" />
        <path
           inkscape:connector-curvature="0"
           id="rect856"
           d="m 193.60654,32.657041 h 14.39147 c 1.33024,0 2.40116,1.070921 2.40116,2.401168 v 7.009233 c 0,1.330247 -1.07092,2.401169 -2.40116,2.401169 h -14.39147 c -1.33024,0 -2.40116,-1.070922 -2.40116,-2.401169 v -7.009233 c 0,-1.330247 1.07092,-2.401168 2.40116,-2.401168 z"
           style="opacity:1;fill:#000000;fill-opacity:1;stroke:none;stroke-width:0.05971709;stroke-linecap:square;stroke-linejoin:miter;stroke-miterlimit:4;stroke-dasharray:none;stroke-dashoffset:0;stroke-opacity:1" />
        <path
           inkscape:connector-curvature="0"
           id="rect858"
           d="m 214.41104,32.657041 h 14.39147 c 1.33024,0 2.40117,1.070921 2.40117,2.401168 v 7.009233 c 0,1.330247 -1.07093,2.401169 -2.40117,2.401169 h -14.39147 c -1.33024,0 -2.40117,-1.070922 -2.40117,-2.401169 v -7.009233 c 0,-1.330247 1.07093,-2.401168 2.40117,-2.401168 z"
           style="opacity:1;fill:#000000;fill-opacity:1;stroke:none;stroke-width:0.05971709;stroke-linecap:square;stroke-linejoin:miter;stroke-miterlimit:4;stroke-dasharray:none;stroke-dashoffset:0;stroke-opacity:1" />
        <path
           inkscape:connector-curvature="0"
           id="rect860"
           d="M 235.21554,32.657041 H 249.607 c 1.33025,0 2.40117,1.070921 2.40117,2.401168 v 7.009233 c 0,1.330247 -1.07092,2.401169 -2.40117,2.401169 h -14.39146 c -1.33025,0 -2.40117,-1.070922 -2.40117,-2.401169 v -7.009233 c 0,-1.330247 1.07092,-2.401168 2.40117,-2.401168 z"
           style="opacity:1;fill:#000000;fill-opacity:1;stroke:none;stroke-width:0.05971709;stroke-linecap:square;stroke-linejoin:miter;stroke-miterlimit:4;stroke-dasharray:none;stroke-dashoffset:0;stroke-opacity:1" />
        <path
           inkscape:connector-curvature="0"
           id="rect862"
           d="m 256.02003,32.657041 h 14.39146 c 1.33025,0 2.40117,1.070921 2.40117,2.401168 v 7.009233 c 0,1.330247 -1.07092,2.401169 -2.40117,2.401169 h -14.39146 c -1.33025,0 -2.40117,-1.070922 -2.40117,-2.401169 v -7.009233 c 0,-1.330247 1.07092,-2.401168 2.40117,-2.401168 z"
           style="opacity:1;fill:#000000;fill-opacity:1;stroke:none;stroke-width:0.05971709;stroke-linecap:square;stroke-linejoin:miter;stroke-miterlimit:4;stroke-dasharray:none;stroke-dashoffset:0;stroke-opacity:1" />
        <path
           inkscape:connector-curvature="0"
           id="circle998"
           d="m 159.12045,34.21482 -0.74982,0.778552 0.68206,0.707894 c -1.5243,0.07251 -2.72361,1.317351 -2.72361,2.860709 0,1.590543 1.27372,2.864128 2.86427,2.864128 1.59054,0 2.86413,-1.273585 2.86413,-2.864128 0,-1.458547 -1.07125,-2.64983 -2.47552,-2.837639 l -0.70394,-0.730964 0.73189,-0.759832 c 2.19924,0.211289 3.9323,2.075933 3.9323,4.328435 0,2.393022 -1.95584,4.348856 -4.34886,4.348856 -2.39303,0 -4.349,-1.955834 -4.349,-4.348856 0,-2.368585 1.91651,-4.307768 4.2761,-4.347155 z"
           style="color:#000000;font-style:normal;font-variant:normal;font-weight:normal;font-stretch:normal;font-size:medium;line-height:normal;font-family:sans-serif;font-variant-ligatures:normal;font-variant-position:normal;font-variant-caps:normal;font-variant-numeric:normal;font-variant-alternates:normal;font-feature-settings:normal;text-indent:0;text-align:start;text-decoration:none;text-decoration-line:none;text-decoration-style:solid;text-decoration-color:#000000;letter-spacing:normal;word-spacing:normal;text-transform:none;writing-mode:lr-tb;direction:ltr;text-orientation:mixed;dominant-baseline:auto;baseline-shift:baseline;text-anchor:start;white-space:normal;shape-padding:0;clip-rule:nonzero;display:inline;overflow:visible;visibility:visible;opacity:1;isolation:auto;mix-blend-mode:normal;color-interpolation:sRGB;color-interpolation-filters:linearRGB;solid-color:#000000;solid-opacity:1;vector-effect:none;fill:#ffffff;fill-opacity:1;fill-rule:nonzero;stroke:none;stroke-width:1.48486221;stroke-linecap:square;stroke-linejoin:miter;stroke-miterlimit:4;stroke-dasharray:none;stroke-dashoffset:0;stroke-opacity:1;color-rendering:auto;image-rendering:auto;shape-rendering:auto;text-rendering:auto;enable-background:accumulate" />
        <path
           inkscape:connector-curvature="0"
           id="path1021"
           d="m 180.00513,34.213901 -3.56624,4.080848 h 7.11777 z m -3.56624,4.616923 3.56624,4.080927 3.55153,-4.080927 z"
           style="fill:#ffffff;fill-opacity:1;stroke:none;stroke-width:0.04071066px;stroke-linecap:butt;stroke-linejoin:miter;stroke-opacity:1" />
        <g
           style="fill:#ffffff"
           transform="matrix(0.28827593,0,0,0.28827593,142.4893,-2.5069609)"
           id="g1060">
          <path
             inkscape:connector-curvature="0"
             style="opacity:1;fill:#ffffff;fill-opacity:1;stroke:none;stroke-width:1.68889368;stroke-linecap:square;stroke-linejoin:miter;stroke-miterlimit:4;stroke-dasharray:none;stroke-dashoffset:0;stroke-opacity:1"
             d="m 187.19581,139.89151 h 30.17196 v 5.15083 h -30.17196 z"
             id="rect1028" />
          <path
             inkscape:connector-curvature="0"
             style="opacity:1;fill:#ffffff;fill-opacity:1;stroke:none;stroke-width:1.28169477;stroke-linecap:square;stroke-linejoin:miter;stroke-miterlimit:4;stroke-dasharray:none;stroke-dashoffset:0;stroke-opacity:1"
             d="m 193.59342,133.63623 h 17.37673 v 5.15083 h -17.37673 z"
             id="rect1030" />
          <path
             inkscape:connector-curvature="0"
             style="opacity:1;fill:#ffffff;fill-opacity:1;stroke:none;stroke-width:1.28169477;stroke-linecap:square;stroke-linejoin:miter;stroke-miterlimit:4;stroke-dasharray:none;stroke-dashoffset:0;stroke-opacity:1"
             d="m 193.59342,146.14679 h 17.37673 v 5.15083 h -17.37673 z"
             id="rect1032" />
          <path
             inkscape:connector-curvature="0"
             style="opacity:1;fill:#ffffff;fill-opacity:1;stroke:none;stroke-width:0.86194503;stroke-linecap:square;stroke-linejoin:miter;stroke-miterlimit:4;stroke-dasharray:none;stroke-dashoffset:0;stroke-opacity:1"
             d="m 198.35237,152.40207 h 7.85883 v 5.15083 h -7.85883 z"
             id="rect1034" />
          <path
             inkscape:connector-curvature="0"
             style="opacity:1;fill:#ffffff;fill-opacity:1;stroke:none;stroke-width:0.86194503;stroke-linecap:square;stroke-linejoin:miter;stroke-miterlimit:4;stroke-dasharray:none;stroke-dashoffset:0;stroke-opacity:1"
             d="m 198.35237,127.38096 h 7.85883 v 5.15083 h -7.85883 z"
             id="rect1036" />
        </g>
        <g
           style="fill:#ffffff"
           transform="matrix(0.28827593,0,0,0.28827593,145.47173,-3.0988663)"
           id="g1089">
          <path
             style="opacity:1;fill:#ffffff;fill-opacity:1;stroke:none;stroke-width:1.28169477;stroke-linecap:square;stroke-linejoin:miter;stroke-miterlimit:4;stroke-dasharray:none;stroke-dashoffset:0;stroke-opacity:1"
             d="m 261.52933,129.43422 v 6.11297 h -6.11294 v 5.15083 h 6.11294 v 6.11294 h 5.15084 v -6.11294 h 6.11297 v -5.15083 h -6.11297 v -6.11297 z"
             id="path1079"
             inkscape:connector-curvature="0" />
          <path
             inkscape:connector-curvature="0"
             style="opacity:1;fill:#ffffff;fill-opacity:1;stroke:none;stroke-width:1.28169477;stroke-linecap:square;stroke-linejoin:miter;stroke-miterlimit:4;stroke-dasharray:none;stroke-dashoffset:0;stroke-opacity:1"
             d="m 255.4164,154.45533 h 17.37673 v 5.15083 H 255.4164 Z"
             id="path1083" />
        </g>
        <path
           inkscape:connector-curvature="0"
           style="opacity:1;fill:#000000;fill-opacity:1;stroke:none;stroke-width:0.05971709;stroke-linecap:square;stroke-linejoin:miter;stroke-miterlimit:4;stroke-dasharray:none;stroke-dashoffset:0;stroke-opacity:1"
           d="m 276.82452,32.657041 h 14.39146 c 1.33025,0 2.40117,1.070921 2.40117,2.401168 v 7.009233 c 0,1.330247 -1.07092,2.401169 -2.40117,2.401169 h -14.39146 c -1.33025,0 -2.40117,-1.070922 -2.40117,-2.401169 v -7.009233 c 0,-1.330247 1.07092,-2.401168 2.40117,-2.401168 z"
           id="path1091" />
        <path
           inkscape:connector-curvature="0"
           id="path1095"
           d="m 240.88398,34.215129 c -0.20095,-0.0086 -0.40568,0.02727 -0.5743,0.11092 -0.33723,0.167281 -0.56888,0.430341 -0.79895,0.766295 -0.46013,0.671908 -0.90937,1.702258 -1.4487,3.289837 l 1.31132,0.445928 c 0.52064,-1.532552 0.96791,-2.496899 1.28035,-2.953139 0.0793,-0.115826 0.0884,-0.107602 0.13795,-0.156525 0.0475,0.08477 0.19896,0.267754 0.36315,0.761227 0.20014,0.601482 0.3922,1.410998 0.58106,2.273552 l 0.002,0.0067 0.002,0.0067 c 0.18757,0.780749 0.37561,1.576414 0.59964,2.258351 0.22403,0.681936 0.40423,1.2688 0.97462,1.676166 0.28519,0.203684 0.75857,0.280881 1.11594,0.135694 0.35737,-0.14519 0.6013,-0.403166 0.83837,-0.730264 0.47413,-0.654193 0.93266,-1.670544 1.49261,-3.272943 l -1.30737,-0.457188 c -0.53999,1.545288 -0.99928,2.493327 -1.30682,2.917666 -0.0682,0.09409 -0.0619,0.07425 -0.10529,0.115423 -0.0617,-0.100092 -0.22367,-0.322105 -0.38624,-0.816968 -0.19415,-0.590995 -0.3792,-1.358685 -0.56585,-2.135606 l -0.003,-0.01352 c -0.19065,-0.870158 -0.3851,-1.70527 -0.61652,-2.400797 -0.23273,-0.699435 -0.41624,-1.293733 -1.03262,-1.671663 -0.15409,-0.09448 -0.35138,-0.147366 -0.55234,-0.155963 z"
           style="color:#000000;font-style:normal;font-variant:normal;font-weight:normal;font-stretch:normal;font-size:medium;line-height:normal;font-family:sans-serif;font-variant-ligatures:normal;font-variant-position:normal;font-variant-caps:normal;font-variant-numeric:normal;font-variant-alternates:normal;font-feature-settings:normal;text-indent:0;text-align:start;text-decoration:none;text-decoration-line:none;text-decoration-style:solid;text-decoration-color:#000000;letter-spacing:normal;word-spacing:normal;text-transform:none;writing-mode:lr-tb;direction:ltr;text-orientation:mixed;dominant-baseline:auto;baseline-shift:baseline;text-anchor:start;white-space:normal;shape-padding:0;clip-rule:nonzero;display:inline;overflow:visible;visibility:visible;opacity:1;isolation:auto;mix-blend-mode:normal;color-interpolation:sRGB;color-interpolation-filters:linearRGB;solid-color:#000000;solid-opacity:1;vector-effect:none;fill:#ffffff;fill-opacity:1;fill-rule:nonzero;stroke:none;stroke-width:1.38477015;stroke-linecap:butt;stroke-linejoin:miter;stroke-miterlimit:4;stroke-dasharray:none;stroke-dashoffset:0;stroke-opacity:1;color-rendering:auto;image-rendering:auto;shape-rendering:auto;text-rendering:auto;enable-background:accumulate" />
        <path
           inkscape:connector-curvature="0"
           id="path1099"
           d="m 258.86684,34.891592 v 7.342468 l 4.20961,-3.663618 z m 8.69785,0 -4.20974,3.67885 4.20974,3.663618 z"
           style="fill:#ffffff;fill-opacity:1;stroke:none;stroke-width:0.04199634px;stroke-linecap:butt;stroke-linejoin:miter;stroke-opacity:1" />
        <path
           inkscape:connector-curvature="0"
           id="path1104"
           d="m 286.51773,35.928251 -1.85193,2.042411 0.98686,0.894391 0.19912,-0.219574 v 2.551924 h 1.33177 v -2.55216 l 0.19936,0.21981 0.98627,-0.894391 z m -5.26573,0.0012 v 3.149055 h -1.58067 v 1.201704 h 1.58067 v 0.916262 h 1.3319 V 40.28021 h 1.58067 v -1.201704 h -1.58067 v -3.149055 z"
           style="opacity:1;fill:#ffffff;fill-opacity:1;stroke:none;stroke-width:0.35882169;stroke-linecap:square;stroke-linejoin:miter;stroke-miterlimit:4;stroke-dasharray:none;stroke-dashoffset:0;stroke-opacity:1" />
      </g>
    </g>
  </g>
</svg>
