<?xml version="1.0" encoding="UTF-8" standalone="no"?>
<!-- Generator: Adobe Illustrator 16.0.0, SVG Export Plug-In . SVG Version: 6.00 Build 0)  -->

<svg
   xmlns:dc="http://purl.org/dc/elements/1.1/"
   xmlns:cc="http://creativecommons.org/ns#"
   xmlns:rdf="http://www.w3.org/1999/02/22-rdf-syntax-ns#"
   xmlns:svg="http://www.w3.org/2000/svg"
   xmlns="http://www.w3.org/2000/svg"
   xmlns:sodipodi="http://sodipodi.sourceforge.net/DTD/sodipodi-0.dtd"
   xmlns:inkscape="http://www.inkscape.org/namespaces/inkscape"
   version="1.1"
   id="Capa_1"
   x="0px"
   y="0px"
   width="32"
   height="32"
   viewBox="0 0 32 32"
   xml:space="preserve"
   sodipodi:docname="location_icon.svg"
   inkscape:version="0.92.3 (2405546, 2018-03-11)"><metadata
     id="metadata57"><rdf:RDF><cc:Work
         rdf:about=""><dc:format>image/svg+xml</dc:format><dc:type
           rdf:resource="http://purl.org/dc/dcmitype/StillImage" /><dc:title></dc:title></cc:Work></rdf:RDF></metadata><defs
     id="defs55">














</defs><sodipodi:namedview
     pagecolor="#ffffff"
     bordercolor="#666666"
     borderopacity="1"
     objecttolerance="10"
     gridtolerance="10"
     guidetolerance="10"
     inkscape:pageopacity="0"
     inkscape:pageshadow="2"
     inkscape:window-width="1920"
     inkscape:window-height="1028"
     id="namedview53"
     showgrid="false"
     inkscape:showpageshadow="false"
     inkscape:zoom="5.0876314"
     inkscape:cx="-0.73055886"
     inkscape:cy="8.0361475"
     inkscape:window-x="0"
     inkscape:window-y="28"
     inkscape:window-maximized="1"
     inkscape:current-layer="Capa_1" /><g
     id="g22"
     transform="translate(0,-457.76599)" /><g
     id="g24"
     transform="translate(0,-457.76599)" /><g
     id="g26"
     transform="translate(0,-457.76599)" /><g
     id="g28"
     transform="translate(0,-457.76599)" /><g
     id="g30"
     transform="translate(0,-457.76599)" /><g
     id="g32"
     transform="translate(0,-457.76599)" /><g
     id="g34"
     transform="translate(0,-457.76599)" /><g
     id="g36"
     transform="translate(0,-457.76599)" /><g
     id="g38"
     transform="translate(0,-457.76599)" /><g
     id="g40"
     transform="translate(0,-457.76599)" /><g
     id="g42"
     transform="translate(0,-457.76599)" /><g
     id="g44"
     transform="translate(0,-457.76599)" /><g
     id="g46"
     transform="translate(0,-457.76599)" /><g
     id="g48"
     transform="translate(0,-457.76599)" /><g
     id="g50"
     transform="translate(0,-457.76599)" /><g
     id="g246"
     transform="matrix(2.196163,0,0,2.196163,63.740999,-14.991971)"><path
       id="path140"
       d="m -17.79808,10.610268 h -8.596634 c -0.479995,0 -0.865565,0.389504 -0.865565,0.865565 v 8.596634 c 0,0.479995 0.389505,0.865565 0.865565,0.865565 h 8.596634 c 0.479995,0 0.865565,-0.389505 0.865565,-0.865565 v -8.596634 c 0,-0.479995 -0.38557,-0.865565 -0.865565,-0.865565 z"
       style="fill:#e6e9ee;stroke-width:0.03934386"
       inkscape:connector-curvature="0" /><path
       id="path142"
       d="m -25.721934,12.904015 1.447854,-2.293747 h -2.116699 c -0.479995,0 -0.8695,0.389504 -0.8695,0.8695 v 1.318019 0.236063 3.855698 l 1.585558,1.148841 3.04128,-4.914048 z"
       style="fill:#84dbff;stroke-width:0.03934386"
       inkscape:connector-curvature="0" /><path
       id="path144"
       d="m -17.475461,10.673218 v 0.89704 l -4.744869,8.148114 -5.043883,-2.809152 v 3.163247 c 0,0.479995 0.389504,0.869499 0.869499,0.869499 h 8.592699 c 0.479995,0 0.8695,-0.389504 0.8695,-0.869499 v -8.596634 c 0,-0.361963 -0.22426,-0.67278 -0.542946,-0.802615 z"
       style="fill:#2c9984;stroke-width:0.03934386"
       inkscape:connector-curvature="0" /><polygon
       transform="matrix(0.03934386,0,0,0.03934386,-31.544825,4.838524)"
       id="polygon146"
       points="159.5,237.1 154,245.9 186.1,266.4 146.6,329.9 155.4,335.4 229.5,216.4 371.4,221.3 371.4,210.9 153.5,203.4 188.9,146.7 176.7,146.7 141.5,203 108.9,201.9 108.9,212.3 217.5,216 191.6,257.6 "
       style="fill:#ffffff" /><path
       id="path148"
       d="m -17.644639,10.626006 -4.839295,8.592699 -4.776345,-2.695055 v 0.936384 l 4.378972,2.46686 -0.570486,1.011138 h 0.936384 l 0.342291,-0.60983 1.085891,0.60983 h 1.664245 l -2.348828,-1.321954 4.77241,-8.474668 c -0.110163,-0.267538 -0.354095,-0.464257 -0.645239,-0.515404 z"
       style="fill:#ffd05b;stroke-width:0.03934386"
       inkscape:connector-curvature="0" /><path
       id="path150"
       d="m -19.993468,7.2817777 c -2.089159,0 -3.780945,1.691786 -3.780945,3.7809453 0,2.962592 2.518007,4.040614 3.780945,6.570424 1.262938,-2.52981 3.780945,-3.611766 3.780945,-6.570424 0,-2.0891593 -1.691786,-3.7809453 -3.780945,-3.7809453 z"
       style="fill:#ff7058;stroke-width:0.03934386"
       inkscape:connector-curvature="0" /><circle
       id="circle152"
       r="1.6445733"
       cy="11.062722"
       cx="-19.993467"
       style="fill:#ffffff;stroke-width:0.03934386" /></g><g
     id="g154"
     transform="matrix(0.03934386,0,0,0.03934386,-31.544825,4.838524)">
</g><g
     id="g156"
     transform="matrix(0.03934386,0,0,0.03934386,-31.544825,4.838524)">
</g><g
     id="g158"
     transform="matrix(0.03934386,0,0,0.03934386,-31.544825,4.838524)">
</g><g
     id="g160"
     transform="matrix(0.03934386,0,0,0.03934386,-31.544825,4.838524)">
</g><g
     id="g162"
     transform="matrix(0.03934386,0,0,0.03934386,-31.544825,4.838524)">
</g><g
     id="g164"
     transform="matrix(0.03934386,0,0,0.03934386,-31.544825,4.838524)">
</g><g
     id="g166"
     transform="matrix(0.03934386,0,0,0.03934386,-31.544825,4.838524)">
</g><g
     id="g168"
     transform="matrix(0.03934386,0,0,0.03934386,-31.544825,4.838524)">
</g><g
     id="g170"
     transform="matrix(0.03934386,0,0,0.03934386,-31.544825,4.838524)">
</g><g
     id="g172"
     transform="matrix(0.03934386,0,0,0.03934386,-31.544825,4.838524)">
</g><g
     id="g174"
     transform="matrix(0.03934386,0,0,0.03934386,-31.544825,4.838524)">
</g><g
     id="g176"
     transform="matrix(0.03934386,0,0,0.03934386,-31.544825,4.838524)">
</g><g
     id="g178"
     transform="matrix(0.03934386,0,0,0.03934386,-31.544825,4.838524)">
</g><g
     id="g180"
     transform="matrix(0.03934386,0,0,0.03934386,-31.544825,4.838524)">
</g><g
     id="g182"
     transform="matrix(0.03934386,0,0,0.03934386,-31.544825,4.838524)">
</g></svg>