<?xml version="1.0" encoding="UTF-8" standalone="no"?>
<!-- Created with Inkscape (http://www.inkscape.org/) -->

<svg
   xmlns:dc="http://purl.org/dc/elements/1.1/"
   xmlns:cc="http://creativecommons.org/ns#"
   xmlns:rdf="http://www.w3.org/1999/02/22-rdf-syntax-ns#"
   xmlns:svg="http://www.w3.org/2000/svg"
   xmlns="http://www.w3.org/2000/svg"
   xmlns:sodipodi="http://sodipodi.sourceforge.net/DTD/sodipodi-0.dtd"
   xmlns:inkscape="http://www.inkscape.org/namespaces/inkscape"
   width="256"
   height="90"
   viewBox="0 0 67.733332 23.812501"
   version="1.1"
   id="svg882"
   inkscape:version="0.92.2 5c3e80d, 2017-08-06"
   sodipodi:docname="LogInLogo.svg">
  <defs
     id="defs876">
    <marker
       inkscape:stockid="Arrow1Send"
       orient="auto"
       refY="0"
       refX="0"
       id="Arrow1Send"
       style="overflow:visible"
       inkscape:isstock="true">
      <path
         id="path1192"
         d="M 0,0 5,-5 -12.5,0 5,5 Z"
         style="fill:#ffffff;fill-opacity:1;fill-rule:evenodd;stroke:#ffffff;stroke-width:1.00000003pt;stroke-opacity:1"
         transform="matrix(-0.2,0,0,-0.2,-1.2,0)"
         inkscape:connector-curvature="0" />
    </marker>
    <marker
       inkscape:stockid="Arrow1Mend"
       orient="auto"
       refY="0"
       refX="0"
       id="Arrow1Mend"
       style="overflow:visible"
       inkscape:isstock="true">
      <path
         id="path1186"
         d="M 0,0 5,-5 -12.5,0 5,5 Z"
         style="fill:#000000;fill-opacity:1;fill-rule:evenodd;stroke:#000000;stroke-width:1.00000003pt;stroke-opacity:1"
         transform="matrix(-0.4,0,0,-0.4,-4,0)"
         inkscape:connector-curvature="0" />
    </marker>
  </defs>
  <sodipodi:namedview
     id="base"
     pagecolor="#ffffff"
     bordercolor="#666666"
     borderopacity="1.0"
     inkscape:pageopacity="0.0"
     inkscape:pageshadow="2"
     inkscape:zoom="2.3638493"
     inkscape:cx="14.087812"
     inkscape:cy="51.85088"
     inkscape:document-units="px"
     inkscape:current-layer="layer1"
     showgrid="false"
     units="px"
     inkscape:showpageshadow="false"
     inkscape:window-width="1920"
     inkscape:window-height="1035"
     inkscape:window-x="0"
     inkscape:window-y="1"
     inkscape:window-maximized="1" />
  <metadata
     id="metadata879">
    <rdf:RDF>
      <cc:Work
         rdf:about="">
        <dc:format>image/svg+xml</dc:format>
        <dc:type
           rdf:resource="http://purl.org/dc/dcmitype/StillImage" />
        <dc:title></dc:title>
      </cc:Work>
    </rdf:RDF>
  </metadata>
  <g
     inkscape:label="Livello 1"
     inkscape:groupmode="layer"
     id="layer1"
     transform="translate(0,-273.18749)">
    <g
       id="g1119"
       transform="matrix(2.6329536,0,0,2.6329536,-10.718014,-487.6767)">
      <g
         transform="matrix(2.0922586,0,0,2.0922586,-6.1307501,-321.59157)"
         id="text841"
         style="font-style:normal;font-variant:normal;font-weight:normal;font-stretch:normal;font-size:3.16827893px;line-height:1.25;font-family:'DIN Condensed';-inkscape-font-specification:'DIN Condensed, ';letter-spacing:0px;word-spacing:0px;fill:#ff9a2a;fill-opacity:1;stroke:none;stroke-width:0.11881045"
         aria-label="tino">
        <path
           inkscape:connector-curvature="0"
           id="path939"
           style="font-style:normal;font-variant:normal;font-weight:normal;font-stretch:normal;font-family:Oswald;-inkscape-font-specification:Oswald;fill:#ff9a2a;fill-opacity:1;stroke-width:0.11881045"
           d="m 11.731022,294.83653 q -0.142573,0 -0.231285,-0.0539 -0.08554,-0.0539 -0.126731,-0.15207 -0.03802,-0.0982 -0.03802,-0.23129 v -1.19444 h -0.193265 v -0.22495 h 0.193265 v -0.53544 h 0.339006 v 0.53544 h 0.29465 v 0.22495 h -0.29465 v 1.17226 q 0,0.10773 0.03485,0.15525 0.03485,0.0444 0.133067,0.0444 0.02535,0 0.05703,-0.003 0.03485,-0.003 0.06653,-0.006 v 0.25029 q -0.06337,0.01 -0.117226,0.0127 -0.05386,0.006 -0.117226,0.006 z" />
        <path
           inkscape:connector-curvature="0"
           id="path941"
           style="font-style:normal;font-variant:normal;font-weight:normal;font-stretch:normal;font-family:Oswald;-inkscape-font-specification:Oswald;fill:#ff9a2a;fill-opacity:1;stroke-width:0.11881045"
           d="m 12.242996,294.81119 v -1.83127 h 0.339006 v 1.83127 z m 0,-2.10374 v -0.35485 h 0.339006 v 0.35485 z" />
        <path
           inkscape:connector-curvature="0"
           id="path943"
           style="font-style:normal;font-variant:normal;font-weight:normal;font-stretch:normal;font-family:Oswald;-inkscape-font-specification:Oswald;fill:#ff9a2a;fill-opacity:1;stroke-width:0.11881045"
           d="m 12.944819,294.81119 v -1.83127 h 0.339006 v 0.18059 q 0.09188,-0.0855 0.20277,-0.14574 0.110889,-0.0602 0.243957,-0.0602 0.11089,0 0.167919,0.057 0.0602,0.057 0.08237,0.14257 0.02535,0.0855 0.02535,0.17425 v 1.48276 h -0.339005 v -1.38454 q 0,-0.0982 -0.02852,-0.15208 -0.02851,-0.0539 -0.117226,-0.0539 -0.05703,0 -0.120395,0.0349 -0.0602,0.0317 -0.117226,0.0792 v 1.47642 z" />
        <path
           inkscape:connector-curvature="0"
           id="path945"
           style="font-style:normal;font-variant:normal;font-weight:normal;font-stretch:normal;font-family:Oswald;-inkscape-font-specification:Oswald;fill:#ff9a2a;fill-opacity:1;stroke-width:0.11881045"
           d="m 14.840885,294.83653 q -0.20277,0 -0.319996,-0.0824 -0.117226,-0.0824 -0.167919,-0.23445 -0.04752,-0.15208 -0.04752,-0.35802 v -0.53227 q 0,-0.20594 0.04752,-0.35802 0.05069,-0.15207 0.167919,-0.23445 0.117226,-0.0824 0.319996,-0.0824 0.20277,0 0.316828,0.0824 0.117226,0.0824 0.164751,0.23445 0.05069,0.15208 0.05069,0.35802 v 0.53227 q 0,0.20594 -0.05069,0.35802 -0.04753,0.15207 -0.164751,0.23445 -0.114058,0.0824 -0.316828,0.0824 z m 0,-0.25029 q 0.09822,0 0.136236,-0.057 0.04119,-0.057 0.04752,-0.14891 0.0095,-0.095 0.0095,-0.19643 v -0.57346 q 0,-0.10455 -0.0095,-0.19643 -0.0063,-0.0919 -0.04752,-0.14891 -0.03802,-0.0602 -0.136236,-0.0602 -0.09822,0 -0.139404,0.0602 -0.04119,0.057 -0.05069,0.14891 -0.0063,0.0919 -0.0063,0.19643 v 0.57346 q 0,0.10138 0.0063,0.19643 0.0095,0.0919 0.05069,0.14891 0.04119,0.057 0.139404,0.057 z" />
      </g>
      <path
         style="fill:#252930;fill-opacity:1;stroke-width:0.00749712"
         inkscape:connector-curvature="0"
         d="m 11.14201,291.2558 -0.126508,0.47212 c -0.0129,0.0481 -0.06225,0.0766 -0.110375,0.0637 l -1.1367777,-0.30461 c -0.04813,-0.0129 -0.076647,-0.0623 -0.063728,-0.11039 L 9.831128,290.9045 c 0.051316,-0.1915 0.248695,-0.30546 0.440853,-0.25452 l 0.615503,0.16493 c 0.192156,0.0509 0.306115,0.24831 0.254526,0.44084 z m -1.5460547,0.52643 -0.7206124,2.68936 0.3178048,0.86834 c 0.042645,0.11734 0.1887251,0.15593 0.2847061,0.0763 l 0.7090202,-0.59375 0.720614,-2.68935 c 0.0129,-0.0481 -0.01561,-0.0975 -0.06373,-0.11038 l -1.136779,-0.30459 c -0.048774,-0.0124 -0.098122,0.016 -0.1110255,0.064 z m -0.1394519,2.15904 c -0.056312,-0.0151 -0.089316,-0.0722 -0.074223,-0.12855 l 0.4225986,-1.57716 c 0.015108,-0.0564 0.072245,-0.0893 0.1285554,-0.0742 0.056312,0.0151 0.089316,0.0722 0.074223,0.12854 l -0.4225929,1.57717 c -0.015109,0.0564 -0.072244,0.0893 -0.1285607,0.0742 z m 0.080864,0.68135 0.3116499,-0.17992 0.1360749,0.23569 -0.3764228,0.31515 -0.3185014,-0.0853 -0.1684143,-0.46114 0.2356837,-0.13607 z"
         id="path1160" />
      <path
         sodipodi:nodetypes="ccccccccccccccccccccscccccscccccccc"
         id="path1171"
         d="m 4.6763842,291.2558 0.1265072,0.47212 c 0.012899,0.0481 0.062253,0.0766 0.1103751,0.0637 l 1.1367777,-0.30461 c 0.04813,-0.0129 0.076647,-0.0623 0.063728,-0.11039 L 5.9872655,290.9045 c -0.051316,-0.1915 -0.2486948,-0.30546 -0.4408533,-0.25452 l -0.6155023,0.16493 c -0.1921558,0.0509 -0.3061146,0.24831 -0.254526,0.44084 z m 1.546054,0.52643 0.7206128,2.68936 -0.3851677,1.28 c -0.042645,0.11734 -0.188725,0.15593 -0.284706,0.0763 l -0.6416574,-1.00541 -0.7206141,-2.68935 c -0.012903,-0.0481 0.015614,-0.0975 0.063728,-0.11038 l 1.1367787,-0.30459 c 0.048774,-0.0124 0.098122,0.016 0.1110255,0.064 z m 0.1394519,2.15904 c 0.056312,-0.0151 0.089316,-0.0722 0.074223,-0.12855 l -0.4225986,-1.57716 c -0.015108,-0.0564 -0.072245,-0.0893 -0.1285554,-0.0742 -0.056312,0.0151 -0.089316,0.0722 -0.074223,0.12854 l 0.4225981,1.57717 c 0.015109,0.0564 0.072244,0.0893 0.1285559,0.0742 z m -0.080864,0.68135 -0.3116498,-0.17992 -0.1360749,0.23569 0.3764228,0.31515 0.3185014,-0.0853 0.1684143,-0.46114 -0.2356838,-0.13607 z"
         inkscape:connector-curvature="0"
         style="fill:#252930;fill-opacity:1;stroke-width:0.00749712" />
      <g
         transform="translate(2.0463032,0.01019289)"
         style="fill:#252930;fill-opacity:1"
         id="g1635">
        <path
           inkscape:connector-curvature="0"
           id="path1175"
           d="m 4.3496094,295.59375 v 0.26563 H 26.683594 v -0.26563 z"
           style="color:#000000;font-style:normal;font-variant:normal;font-weight:normal;font-stretch:normal;font-size:medium;line-height:normal;font-family:sans-serif;font-variant-ligatures:normal;font-variant-position:normal;font-variant-caps:normal;font-variant-numeric:normal;font-variant-alternates:normal;font-feature-settings:normal;text-indent:0;text-align:start;text-decoration:none;text-decoration-line:none;text-decoration-style:solid;text-decoration-color:#000000;letter-spacing:normal;word-spacing:normal;text-transform:none;writing-mode:lr-tb;direction:ltr;text-orientation:mixed;dominant-baseline:auto;baseline-shift:baseline;text-anchor:start;white-space:normal;shape-padding:0;clip-rule:nonzero;display:inline;overflow:visible;visibility:visible;opacity:1;isolation:auto;mix-blend-mode:normal;color-interpolation:sRGB;color-interpolation-filters:linearRGB;solid-color:#000000;solid-opacity:1;vector-effect:none;fill:#252930;fill-opacity:1;fill-rule:nonzero;stroke:none;stroke-width:0.26458332;stroke-linecap:butt;stroke-linejoin:miter;stroke-miterlimit:4;stroke-dasharray:none;stroke-dashoffset:0;stroke-opacity:1;color-rendering:auto;image-rendering:auto;shape-rendering:auto;text-rendering:auto;enable-background:accumulate" />
        <path
           inkscape:connector-curvature="0"
           id="path1641"
           d="m 26.366517,295.72669 -0.264583,0.26458 0.926041,-0.26458 -0.926041,-0.26458 z"
           style="fill:#252930;fill-opacity:1;fill-rule:evenodd;stroke:#ffffff;stroke-width:0.05291666pt;stroke-opacity:1" />
      </g>
      <path
         style="fill:#252930;fill-opacity:1;stroke-width:0.00749712"
         inkscape:connector-curvature="0"
         d="m 7.2309018,291.02515 3.4e-6,0.48877 c 1.86e-5,0.0498 0.040295,0.0901 0.090121,0.0901 l 1.1768811,-10e-6 c 0.049819,4e-5 0.090167,-0.0403 0.090127,-0.0901 l -3e-6,-0.48877 c -3.5e-6,-0.19826 -0.16116,-0.35943 -0.3599555,-0.35995 H 7.590859 c -0.1987912,-5.3e-4 -0.3599508,0.16062 -0.3599521,0.35995 z m 1.3571244,0.90863 2e-6,2.78423 -0.5317194,0.7565 c -0.071562,0.1023 -0.2226533,0.10177 -0.2947602,4e-5 l -0.5311866,-0.75702 -3.3e-6,-2.78423 c -2.21e-5,-0.0498 0.040318,-0.0901 0.090125,-0.0901 l 1.1768783,10e-6 c 0.050327,6.3e-4 0.090651,0.0408 0.090673,0.0906 z m -0.4241009,2.12158 c 0.058293,10e-6 0.1049722,-0.0467 0.1049669,-0.10497 l -1.6e-6,-1.6328 c -3.1e-6,-0.0583 -0.046665,-0.10497 -0.1049638,-0.10496 -0.058293,-2e-5 -0.1049724,0.0467 -0.104965,0.10496 l -9e-7,1.6328 c 3.8e-6,0.0584 0.046666,0.10497 0.1049644,0.10497 z m -0.2544557,0.6372 -0.2544628,-0.25445 -0.1924387,0.19243 0.2820304,0.40184 0.329738,-10e-6 0.2820269,-0.40183 -0.1924342,-0.19244 z"
         id="path1173" />
      <g
         transform="matrix(2.0922586,0,0,2.0922586,-4.7830511,-319.99004)"
         id="text837"
         style="font-style:normal;font-variant:normal;font-weight:normal;font-stretch:normal;font-size:4.52310371px;line-height:1.25;font-family:'DIN Condensed';-inkscape-font-specification:'DIN Condensed, ';letter-spacing:0px;word-spacing:0px;fill:#ff9a2a;fill-opacity:1;stroke:none;stroke-width:0.16961639"
         aria-label="R">
        <path
           inkscape:connector-curvature="0"
           id="path948"
           style="font-style:normal;font-variant:normal;font-weight:normal;font-stretch:normal;font-family:Oswald;-inkscape-font-specification:Oswald;fill:#ff9a2a;fill-opacity:1;stroke-width:0.16961639"
           d="m 8.5030628,294.82684 v -3.66371 h 0.7372659 q 0.3663714,0 0.6060959,0.0995 0.2397244,0.095 0.3528024,0.31209 0.1176,0.21259 0.1176,0.56087 0,0.21258 -0.04523,0.38898 -0.04523,0.17188 -0.144739,0.29401 -0.09951,0.1176 -0.26234,0.17187 l 0.520157,1.83638 H 9.8916556 l -0.479449,-1.71878 H 9.0141735 v 1.71878 z m 0.5111107,-2.08515 h 0.1944934 q 0.217109,0 0.3528021,-0.0543 0.1356931,-0.0543 0.1990166,-0.18545 0.063323,-0.13117 0.063323,-0.36637 0,-0.32114 -0.1176007,-0.46136 Q 9.5886076,291.5295 9.2403287,291.5295 H 9.0141735 Z" />
      </g>
    </g>
    <g
       aria-label="the reporting tool"
       style="font-style:normal;font-variant:normal;font-weight:normal;font-stretch:normal;font-size:3.41755891px;line-height:1.25;font-family:'DIN Condensed';-inkscape-font-specification:'DIN Condensed, ';letter-spacing:0px;word-spacing:0px;fill:#252930;fill-opacity:1;stroke:none;stroke-width:0.12815848"
       id="text1123"
       transform="matrix(1.224941,0,0,1.224941,-7.6180035,-62.769264)">
      <path
         inkscape:connector-curvature="0"
         d="m 35.592295,290.77426 v -0.52631 h 0.348591 v 0.52631 h 0.215306 v 0.2734 h -0.215306 v 0.96033 q 0,0.0615 0.01025,0.0957 0.01367,0.0342 0.04101,0.0513 0.02734,0.0171 0.06493,0.0205 0.04101,0.003 0.09911,0.003 v 0.32809 h -0.143538 q -0.119614,0 -0.201636,-0.0376 -0.0786,-0.0376 -0.126449,-0.0957 -0.04785,-0.0581 -0.07177,-0.12986 -0.0205,-0.0752 -0.0205,-0.14354 v -1.05261 h -0.174296 v -0.2734 z"
         style="fill:#252930;fill-opacity:1;stroke-width:0.12815848"
         id="path1125" />
      <path
         inkscape:connector-curvature="0"
         d="m 36.286486,292.50696 v -2.4333 h 0.348591 v 0.86806 h 0.0068 q 0.05468,-0.082 0.129868,-0.13329 0.0786,-0.0547 0.198218,-0.0547 0.06493,0 0.129867,0.0239 0.06493,0.0205 0.116197,0.0718 0.05126,0.0513 0.08202,0.13329 0.03076,0.0786 0.03076,0.1948 v 1.32943 h -0.348591 v -1.19957 q 0,-0.0957 -0.04443,-0.15037 -0.04443,-0.0547 -0.126449,-0.0547 -0.09911,0 -0.136703,0.0615 -0.03759,0.0615 -0.03759,0.17771 v 1.16539 z"
         style="fill:#252930;fill-opacity:1;stroke-width:0.12815848"
         id="path1127" />
      <path
         inkscape:connector-curvature="0"
         d="m 38.622975,291.77218 h -0.690347 v 0.23581 q 0,0.082 0.04443,0.12645 0.04784,0.0444 0.126449,0.0444 0.09911,0 0.129868,-0.0581 0.03418,-0.0581 0.04101,-0.11619 h 0.348591 q 0,0.22897 -0.14012,0.36909 -0.06835,0.0718 -0.164042,0.11278 -0.09569,0.041 -0.215307,0.041 -0.164043,0 -0.28024,-0.0684 -0.112779,-0.0684 -0.174295,-0.18113 -0.03759,-0.0684 -0.05126,-0.15721 -0.01367,-0.0888 -0.01367,-0.1948 v -0.57073 q 0,-0.10594 0.01367,-0.1948 0.01367,-0.0889 0.05126,-0.15721 0.06152,-0.11278 0.174295,-0.18113 0.116197,-0.0683 0.28024,-0.0683 0.119615,0 0.215307,0.041 0.09911,0.041 0.16746,0.11278 0.136702,0.15379 0.136702,0.38618 z m -0.690347,-0.2734 h 0.341756 v -0.19822 q 0,-0.0991 -0.04785,-0.14696 -0.04443,-0.0513 -0.123032,-0.0513 -0.0786,0 -0.126449,0.0513 -0.04443,0.0479 -0.04443,0.14696 z"
         style="fill:#252930;fill-opacity:1;stroke-width:0.12815848"
         id="path1129" />
      <path
         inkscape:connector-curvature="0"
         d="m 39.510472,292.50696 v -1.7327 h 0.348591 v 0.18454 q 0.105945,-0.0957 0.208472,-0.15037 0.102526,-0.0547 0.252899,-0.0547 v 0.3691 q -0.05126,-0.0205 -0.105944,-0.0205 -0.05468,0 -0.119615,0.0205 -0.06152,0.0171 -0.112779,0.0615 -0.05468,0.0444 -0.08886,0.1162 -0.03418,0.0718 -0.03418,0.17771 v 1.02869 z"
         style="fill:#252930;fill-opacity:1;stroke-width:0.12815848"
         id="path1131" />
      <path
         inkscape:connector-curvature="0"
         d="m 41.466491,291.77218 h -0.690347 v 0.23581 q 0,0.082 0.04443,0.12645 0.04785,0.0444 0.12645,0.0444 0.09911,0 0.129867,-0.0581 0.03418,-0.0581 0.04101,-0.11619 h 0.348591 q 0,0.22897 -0.14012,0.36909 -0.06835,0.0718 -0.164043,0.11278 -0.09569,0.041 -0.215306,0.041 -0.164043,0 -0.28024,-0.0684 -0.112779,-0.0684 -0.174295,-0.18113 -0.03759,-0.0684 -0.05126,-0.15721 -0.01367,-0.0888 -0.01367,-0.1948 v -0.57073 q 0,-0.10594 0.01367,-0.1948 0.01367,-0.0889 0.05126,-0.15721 0.06152,-0.11278 0.174295,-0.18113 0.116197,-0.0683 0.28024,-0.0683 0.119615,0 0.215306,0.041 0.09911,0.041 0.167461,0.11278 0.136702,0.15379 0.136702,0.38618 z m -0.690347,-0.2734 H 41.1179 v -0.19822 q 0,-0.0991 -0.04785,-0.14696 -0.04443,-0.0513 -0.123032,-0.0513 -0.0786,0 -0.12645,0.0513 -0.04443,0.0479 -0.04443,0.14696 z"
         style="fill:#252930;fill-opacity:1;stroke-width:0.12815848"
         id="path1133" />
      <path
         inkscape:connector-curvature="0"
         d="m 41.719871,293.20756 v -2.4333 h 0.348591 v 0.1572 q 0.06493,-0.0752 0.133285,-0.12645 0.06835,-0.0513 0.198218,-0.0513 0.215306,0 0.304163,0.16404 0.03076,0.0581 0.04443,0.14354 0.01367,0.0854 0.01367,0.22898 v 0.65959 q 0,0.19138 -0.01025,0.27682 -0.02051,0.17088 -0.157208,0.25632 -0.06835,0.0444 -0.198218,0.0444 -0.102527,0 -0.184549,-0.0444 -0.0786,-0.0479 -0.136702,-0.13329 h -0.0068 v 0.85781 z m 0.693764,-1.86941 q 0,-0.10594 -0.04101,-0.17088 -0.04101,-0.0649 -0.129867,-0.0649 -0.0786,0 -0.12645,0.0615 -0.04785,0.0581 -0.04785,0.15379 v 0.67326 q 0,0.082 0.04785,0.1367 0.05126,0.0513 0.12645,0.0513 0.09911,0 0.133284,-0.0615 0.03759,-0.0615 0.03759,-0.14354 z"
         style="fill:#252930;fill-opacity:1;stroke-width:0.12815848"
         id="path1135" />
      <path
         inkscape:connector-curvature="0"
         d="m 43.017422,291.35524 q 0,-0.10594 0.01367,-0.1948 0.01367,-0.0889 0.05126,-0.15721 0.06152,-0.11278 0.174295,-0.18113 0.116197,-0.0683 0.28024,-0.0683 0.164043,0 0.276822,0.0683 0.116197,0.0684 0.177713,0.18113 0.03759,0.0684 0.05126,0.15721 0.01367,0.0889 0.01367,0.1948 v 0.57073 q 0,0.10595 -0.01367,0.1948 -0.01367,0.0889 -0.05126,0.15721 -0.06152,0.11278 -0.177713,0.18113 -0.112779,0.0684 -0.276822,0.0684 -0.164043,0 -0.28024,-0.0684 -0.112779,-0.0684 -0.174295,-0.18113 -0.03759,-0.0684 -0.05126,-0.15721 -0.01367,-0.0888 -0.01367,-0.1948 z m 0.348591,0.62541 q 0,0.0991 0.04443,0.15038 0.04785,0.0478 0.12645,0.0478 0.0786,0 0.123032,-0.0478 0.04785,-0.0513 0.04785,-0.15038 v -0.68009 q 0,-0.0991 -0.04785,-0.14696 -0.04443,-0.0513 -0.123032,-0.0513 -0.0786,0 -0.12645,0.0513 -0.04443,0.0479 -0.04443,0.14696 z"
         style="fill:#252930;fill-opacity:1;stroke-width:0.12815848"
         id="path1137" />
      <path
         inkscape:connector-curvature="0"
         d="m 44.30974,292.50696 v -1.7327 h 0.348591 v 0.18454 q 0.105944,-0.0957 0.208471,-0.15037 0.102527,-0.0547 0.252899,-0.0547 v 0.3691 q -0.05126,-0.0205 -0.105944,-0.0205 -0.05468,0 -0.119614,0.0205 -0.06152,0.0171 -0.11278,0.0615 -0.05468,0.0444 -0.08886,0.1162 -0.03418,0.0718 -0.03418,0.17771 v 1.02869 z"
         style="fill:#252930;fill-opacity:1;stroke-width:0.12815848"
         id="path1139" />
      <path
         inkscape:connector-curvature="0"
         d="m 45.257579,290.77426 v -0.52631 h 0.348591 v 0.52631 h 0.215306 v 0.2734 H 45.60617 v 0.96033 q 0,0.0615 0.01025,0.0957 0.01367,0.0342 0.04101,0.0513 0.02734,0.0171 0.06493,0.0205 0.04101,0.003 0.09911,0.003 v 0.32809 h -0.143537 q -0.119615,0 -0.201636,-0.0376 -0.0786,-0.0376 -0.12645,-0.0957 -0.04785,-0.0581 -0.07177,-0.12986 -0.0205,-0.0752 -0.0205,-0.14354 v -1.05261 h -0.174296 v -0.2734 z"
         style="fill:#252930;fill-opacity:1;stroke-width:0.12815848"
         id="path1141" />
      <path
         inkscape:connector-curvature="0"
         d="m 45.95177,292.50696 v -1.7327 h 0.348591 v 1.7327 z m 0,-2.08471 v -0.34859 h 0.348591 v 0.34859 z"
         style="fill:#252930;fill-opacity:1;stroke-width:0.12815848"
         id="path1143" />
      <path
         inkscape:connector-curvature="0"
         d="m 46.585888,292.50696 v -1.7327 h 0.348591 v 0.16746 h 0.0068 q 0.05468,-0.082 0.129867,-0.13329 0.0786,-0.0547 0.198219,-0.0547 0.06493,0 0.129867,0.0239 0.06493,0.0205 0.116197,0.0718 0.05126,0.0513 0.08202,0.13329 0.03076,0.0786 0.03076,0.1948 v 1.32943 h -0.348591 v -1.19957 q 0,-0.0957 -0.04443,-0.15037 -0.04443,-0.0547 -0.12645,-0.0547 -0.09911,0 -0.136702,0.0615 -0.03759,0.0615 -0.03759,0.17771 v 1.16539 z"
         style="fill:#252930;fill-opacity:1;stroke-width:0.12815848"
         id="path1145" />
      <path
         inkscape:connector-curvature="0"
         d="m 48.262788,292.70859 q 0.0034,0.0615 0.04785,0.1162 0.04785,0.0547 0.136702,0.0547 0.08544,0 0.123032,-0.0547 0.03759,-0.0513 0.03759,-0.13328 v -0.34176 h -0.0068 q -0.0581,0.0854 -0.14012,0.13329 -0.0786,0.0444 -0.184548,0.0444 -0.218724,0 -0.304163,-0.16404 -0.03076,-0.0581 -0.04443,-0.14354 -0.01367,-0.0854 -0.01367,-0.22897 v -0.65959 q 0,-0.18797 0.01025,-0.27682 0.0205,-0.17088 0.160625,-0.25632 0.06493,-0.0444 0.194801,-0.0444 0.06493,0 0.109362,0.0137 0.04785,0.0137 0.08544,0.0376 0.03759,0.0239 0.06835,0.0581 0.03076,0.0308 0.06493,0.0684 v -0.1572 h 0.348591 v 1.94459 q 0,0.0889 -0.03076,0.17771 -0.02734,0.0923 -0.09227,0.16404 -0.06493,0.0752 -0.164043,0.11962 -0.09911,0.0478 -0.235811,0.0478 -0.0786,0 -0.164043,-0.0273 -0.08544,-0.0239 -0.157208,-0.0854 -0.07519,-0.0581 -0.129867,-0.1572 -0.05126,-0.0957 -0.06835,-0.24949 z m 0,-0.73477 q 0,0.082 0.03418,0.14354 0.03759,0.0615 0.136702,0.0615 0.07519,0 0.123032,-0.0513 0.05126,-0.0547 0.05126,-0.1367 v -0.67326 q 0,-0.0957 -0.04785,-0.15379 -0.04785,-0.0615 -0.12645,-0.0615 -0.08886,0 -0.129867,0.0649 -0.04101,0.0649 -0.04101,0.17088 z"
         style="fill:#252930;fill-opacity:1;stroke-width:0.12815848"
         id="path1147" />
      <path
         inkscape:connector-curvature="0"
         d="m 49.876623,290.77426 v -0.52631 h 0.348591 v 0.52631 h 0.215306 v 0.2734 h -0.215306 v 0.96033 q 0,0.0615 0.01025,0.0957 0.01367,0.0342 0.04101,0.0513 0.02734,0.0171 0.06493,0.0205 0.04101,0.003 0.09911,0.003 v 0.32809 h -0.143537 q -0.119615,0 -0.201636,-0.0376 -0.0786,-0.0376 -0.12645,-0.0957 -0.04785,-0.0581 -0.07177,-0.12986 -0.0205,-0.0752 -0.0205,-0.14354 v -1.05261 h -0.174295 v -0.2734 z"
         style="fill:#252930;fill-opacity:1;stroke-width:0.12815848"
         id="path1149" />
      <path
         inkscape:connector-curvature="0"
         d="m 50.540057,291.35524 q 0,-0.10594 0.01367,-0.1948 0.01367,-0.0889 0.05126,-0.15721 0.06152,-0.11278 0.174295,-0.18113 0.116197,-0.0683 0.28024,-0.0683 0.164043,0 0.276822,0.0683 0.116197,0.0684 0.177713,0.18113 0.03759,0.0684 0.05126,0.15721 0.01367,0.0889 0.01367,0.1948 v 0.57073 q 0,0.10595 -0.01367,0.1948 -0.01367,0.0889 -0.05126,0.15721 -0.06152,0.11278 -0.177713,0.18113 -0.112779,0.0684 -0.276822,0.0684 -0.164043,0 -0.28024,-0.0684 -0.112779,-0.0684 -0.174295,-0.18113 -0.03759,-0.0684 -0.05126,-0.15721 -0.01367,-0.0888 -0.01367,-0.1948 z m 0.348591,0.62541 q 0,0.0991 0.04443,0.15038 0.04785,0.0478 0.12645,0.0478 0.0786,0 0.123032,-0.0478 0.04785,-0.0513 0.04785,-0.15038 v -0.68009 q 0,-0.0991 -0.04785,-0.14696 -0.04443,-0.0513 -0.123032,-0.0513 -0.0786,0 -0.12645,0.0513 -0.04443,0.0479 -0.04443,0.14696 z"
         style="fill:#252930;fill-opacity:1;stroke-width:0.12815848"
         id="path1151" />
      <path
         inkscape:connector-curvature="0"
         d="m 51.801616,291.35524 q 0,-0.10594 0.01367,-0.1948 0.01367,-0.0889 0.05126,-0.15721 0.06152,-0.11278 0.174296,-0.18113 0.116197,-0.0683 0.280239,-0.0683 0.164043,0 0.276823,0.0683 0.116197,0.0684 0.177713,0.18113 0.03759,0.0684 0.05126,0.15721 0.01367,0.0889 0.01367,0.1948 v 0.57073 q 0,0.10595 -0.01367,0.1948 -0.01367,0.0889 -0.05126,0.15721 -0.06152,0.11278 -0.177713,0.18113 -0.11278,0.0684 -0.276823,0.0684 -0.164042,0 -0.280239,-0.0684 -0.11278,-0.0684 -0.174296,-0.18113 -0.03759,-0.0684 -0.05126,-0.15721 -0.01367,-0.0888 -0.01367,-0.1948 z m 0.348592,0.62541 q 0,0.0991 0.04443,0.15038 0.04785,0.0478 0.126449,0.0478 0.0786,0 0.123033,-0.0478 0.04784,-0.0513 0.04784,-0.15038 v -0.68009 q 0,-0.0991 -0.04784,-0.14696 -0.04443,-0.0513 -0.123033,-0.0513 -0.0786,0 -0.126449,0.0513 -0.04443,0.0479 -0.04443,0.14696 z"
         style="fill:#252930;fill-opacity:1;stroke-width:0.12815848"
         id="path1153" />
      <path
         inkscape:connector-curvature="0"
         d="m 53.07343,290.07366 h 0.348591 v 1.94459 q 0,0.0991 0.03417,0.1367 0.03759,0.0342 0.136703,0.0444 v 0.32808 q -0.119615,0 -0.215307,-0.0205 -0.09569,-0.0171 -0.164042,-0.0718 -0.06835,-0.0513 -0.105945,-0.14354 -0.03417,-0.0957 -0.03417,-0.24948 z"
         style="fill:#252930;fill-opacity:1;stroke-width:0.12815848"
         id="path1155" />
    </g>
  </g>
</svg>
