<?xml version="1.0" encoding="UTF-8" standalone="no"?>
<!-- Created with Inkscape (http://www.inkscape.org/) -->

<svg
   xmlns:dc="http://purl.org/dc/elements/1.1/"
   xmlns:cc="http://creativecommons.org/ns#"
   xmlns:rdf="http://www.w3.org/1999/02/22-rdf-syntax-ns#"
   xmlns:svg="http://www.w3.org/2000/svg"
   xmlns="http://www.w3.org/2000/svg"
   xmlns:sodipodi="http://sodipodi.sourceforge.net/DTD/sodipodi-0.dtd"
   xmlns:inkscape="http://www.inkscape.org/namespaces/inkscape"
   width="256"
   height="90"
   viewBox="0 0 67.733332 23.812501"
   version="1.1"
   id="svg882"
   inkscape:version="0.92.2 5c3e80d, 2017-08-06"
   sodipodi:docname="LogInLogo.svg">
  <defs
     id="defs876">
    <marker
       inkscape:stockid="Arrow1Send"
       orient="auto"
       refY="0"
       refX="0"
       id="Arrow1Send"
       style="overflow:visible"
       inkscape:isstock="true">
      <path
         id="path1192"
         d="M 0,0 5,-5 -12.5,0 5,5 Z"
         style="fill:#ffffff;fill-opacity:1;fill-rule:evenodd;stroke:#ffffff;stroke-width:1.00000003pt;stroke-opacity:1"
         transform="matrix(-0.2,0,0,-0.2,-1.2,0)"
         inkscape:connector-curvature="0" />
    </marker>
    <marker
       inkscape:stockid="Arrow1Mend"
       orient="auto"
       refY="0"
       refX="0"
       id="Arrow1Mend"
       style="overflow:visible"
       inkscape:isstock="true">
      <path
         id="path1186"
         d="M 0,0 5,-5 -12.5,0 5,5 Z"
         style="fill:#000000;fill-opacity:1;fill-rule:evenodd;stroke:#000000;stroke-width:1.00000003pt;stroke-opacity:1"
         transform="matrix(-0.4,0,0,-0.4,-4,0)"
         inkscape:connector-curvature="0" />
    </marker>
  </defs>
  <sodipodi:namedview
     id="base"
     pagecolor="#ffffff"
     bordercolor="#666666"
     borderopacity="1.0"
     inkscape:pageopacity="0.0"
     inkscape:pageshadow="2"
     inkscape:zoom="3.7758397"
     inkscape:cx="143.47529"
     inkscape:cy="44.712444"
     inkscape:document-units="px"
     inkscape:current-layer="layer1"
     showgrid="false"
     units="px"
     inkscape:showpageshadow="false"
     inkscape:window-width="1920"
     inkscape:window-height="1035"
     inkscape:window-x="0"
     inkscape:window-y="1"
     inkscape:window-maximized="1" />
  <metadata
     id="metadata879">
    <rdf:RDF>
      <cc:Work
         rdf:about="">
        <dc:format>image/svg+xml</dc:format>
        <dc:type
           rdf:resource="http://purl.org/dc/dcmitype/StillImage" />
        <dc:title></dc:title>
      </cc:Work>
    </rdf:RDF>
  </metadata>
  <g
     inkscape:label="Livello 1"
     inkscape:groupmode="layer"
     id="layer1"
     transform="translate(0,-273.18749)">
    <g
       id="g916"
       transform="matrix(0.79447126,0,0,0.79447126,6.8541564,60.191429)"
       style="fill:#227caa;fill-opacity:1">
      <g
         transform="matrix(5.5088198,0,0,5.5088198,-26.859995,-1334.4124)"
         id="text841"
         style="font-style:normal;font-variant:normal;font-weight:normal;font-stretch:normal;font-size:3.16827893px;line-height:1.25;font-family:'DIN Condensed';-inkscape-font-specification:'DIN Condensed, ';letter-spacing:0px;word-spacing:0px;fill:#227caa;fill-opacity:1;stroke:none;stroke-width:0.11881045"
         aria-label="tino">
        <path
           inkscape:connector-curvature="0"
           id="path939"
           style="font-style:normal;font-variant:normal;font-weight:normal;font-stretch:normal;font-family:Oswald;-inkscape-font-specification:Oswald;fill:#227caa;fill-opacity:1;stroke-width:0.11881045"
           d="m 11.731022,294.83653 q -0.142573,0 -0.231285,-0.0539 -0.08554,-0.0539 -0.126731,-0.15207 -0.03802,-0.0982 -0.03802,-0.23129 v -1.19444 h -0.193265 v -0.22495 h 0.193265 v -0.53544 h 0.339006 v 0.53544 h 0.29465 v 0.22495 h -0.29465 v 1.17226 q 0,0.10773 0.03485,0.15525 0.03485,0.0444 0.133067,0.0444 0.02535,0 0.05703,-0.003 0.03485,-0.003 0.06653,-0.006 v 0.25029 q -0.06337,0.01 -0.117226,0.0127 -0.05386,0.006 -0.117226,0.006 z" />
        <path
           inkscape:connector-curvature="0"
           id="path941"
           style="font-style:normal;font-variant:normal;font-weight:normal;font-stretch:normal;font-family:Oswald;-inkscape-font-specification:Oswald;fill:#227caa;fill-opacity:1;stroke-width:0.11881045"
           d="m 12.242996,294.81119 v -1.83127 h 0.339006 v 1.83127 z m 0,-2.10374 v -0.35485 h 0.339006 v 0.35485 z" />
        <path
           inkscape:connector-curvature="0"
           id="path943"
           style="font-style:normal;font-variant:normal;font-weight:normal;font-stretch:normal;font-family:Oswald;-inkscape-font-specification:Oswald;fill:#227caa;fill-opacity:1;stroke-width:0.11881045"
           d="m 12.944819,294.81119 v -1.83127 h 0.339006 v 0.18059 q 0.09188,-0.0855 0.20277,-0.14574 0.110889,-0.0602 0.243957,-0.0602 0.11089,0 0.167919,0.057 0.0602,0.057 0.08237,0.14257 0.02535,0.0855 0.02535,0.17425 v 1.48276 h -0.339005 v -1.38454 q 0,-0.0982 -0.02852,-0.15208 -0.02851,-0.0539 -0.117226,-0.0539 -0.05703,0 -0.120395,0.0349 -0.0602,0.0317 -0.117226,0.0792 v 1.47642 z" />
        <path
           inkscape:connector-curvature="0"
           id="path945"
           style="font-style:normal;font-variant:normal;font-weight:normal;font-stretch:normal;font-family:Oswald;-inkscape-font-specification:Oswald;fill:#227caa;fill-opacity:1;stroke-width:0.11881045"
           d="m 14.840885,294.83653 q -0.20277,0 -0.319996,-0.0824 -0.117226,-0.0824 -0.167919,-0.23445 -0.04752,-0.15208 -0.04752,-0.35802 v -0.53227 q 0,-0.20594 0.04752,-0.35802 0.05069,-0.15207 0.167919,-0.23445 0.117226,-0.0824 0.319996,-0.0824 0.20277,0 0.316828,0.0824 0.117226,0.0824 0.164751,0.23445 0.05069,0.15208 0.05069,0.35802 v 0.53227 q 0,0.20594 -0.05069,0.35802 -0.04753,0.15207 -0.164751,0.23445 -0.114058,0.0824 -0.316828,0.0824 z m 0,-0.25029 q 0.09822,0 0.136236,-0.057 0.04119,-0.057 0.04752,-0.14891 0.0095,-0.095 0.0095,-0.19643 v -0.57346 q 0,-0.10455 -0.0095,-0.19643 -0.0063,-0.0919 -0.04752,-0.14891 -0.03802,-0.0602 -0.136236,-0.0602 -0.09822,0 -0.139404,0.0602 -0.04119,0.057 -0.05069,0.14891 -0.0063,0.0919 -0.0063,0.19643 v 0.57346 q 0,0.10138 0.0063,0.19643 0.0095,0.0919 0.05069,0.14891 0.04119,0.057 0.139404,0.057 z" />
      </g>
      <g
         transform="matrix(5.5088198,0,0,5.5088198,-23.311566,-1330.1956)"
         id="text837"
         style="font-style:normal;font-variant:normal;font-weight:normal;font-stretch:normal;font-size:4.52310371px;line-height:1.25;font-family:'DIN Condensed';-inkscape-font-specification:'DIN Condensed, ';letter-spacing:0px;word-spacing:0px;fill:#227caa;fill-opacity:1;stroke:none;stroke-width:0.16961639"
         aria-label="R">
        <path
           inkscape:connector-curvature="0"
           id="path948"
           style="font-style:normal;font-variant:normal;font-weight:normal;font-stretch:normal;font-family:Oswald;-inkscape-font-specification:Oswald;fill:#227caa;fill-opacity:1;stroke-width:0.16961639"
           d="m 8.5030628,294.82684 v -3.66371 h 0.7372659 q 0.3663714,0 0.6060959,0.0995 0.2397244,0.095 0.3528024,0.31209 0.1176,0.21259 0.1176,0.56087 0,0.21258 -0.04523,0.38898 -0.04523,0.17188 -0.144739,0.29401 -0.09951,0.1176 -0.26234,0.17187 l 0.520157,1.83638 H 9.8916556 l -0.479449,-1.71878 H 9.0141735 v 1.71878 z m 0.5111107,-2.08515 h 0.1944934 q 0.217109,0 0.3528021,-0.0543 0.1356931,-0.0543 0.1990166,-0.18545 0.063323,-0.13117 0.063323,-0.36637 0,-0.32114 -0.1176007,-0.46136 Q 9.5886076,291.5295 9.2403287,291.5295 H 9.0141735 Z" />
      </g>
    </g>
    <path
       style="color:#000000;font-style:normal;font-variant:normal;font-weight:normal;font-stretch:normal;font-size:medium;line-height:normal;font-family:sans-serif;font-variant-ligatures:normal;font-variant-position:normal;font-variant-caps:normal;font-variant-numeric:normal;font-variant-alternates:normal;font-feature-settings:normal;text-indent:0;text-align:start;text-decoration:none;text-decoration-line:none;text-decoration-style:solid;text-decoration-color:#000000;letter-spacing:normal;word-spacing:normal;text-transform:none;writing-mode:lr-tb;direction:ltr;text-orientation:mixed;dominant-baseline:auto;baseline-shift:baseline;text-anchor:start;white-space:normal;shape-padding:0;clip-rule:nonzero;display:inline;overflow:visible;visibility:visible;opacity:1;isolation:auto;mix-blend-mode:normal;color-interpolation:sRGB;color-interpolation-filters:linearRGB;solid-color:#000000;solid-opacity:1;vector-effect:none;fill:#227caa;fill-opacity:1;fill-rule:nonzero;stroke:none;stroke-width:0.8944729;stroke-linecap:square;stroke-linejoin:miter;stroke-miterlimit:4;stroke-dasharray:none;stroke-dashoffset:0;stroke-opacity:1;color-rendering:auto;image-rendering:auto;shape-rendering:auto;text-rendering:auto;enable-background:accumulate"
       d="m 11.596701,277.19623 c -5.1736968,-1e-5 -9.3774381,4.20374 -9.3774396,9.37743 -2.4e-6,5.1737 4.2037401,9.37744 9.3774396,9.37744 5.173699,0 9.377442,-4.20374 9.377439,-9.37744 -10e-7,-5.17369 -4.203742,-9.37744 -9.377439,-9.37743 z m 0,0.89534 c 4.690288,0 8.483406,3.79181 8.483407,8.48209 2e-6,4.69029 -3.793117,8.48341 -8.483407,8.48341 -4.6902904,0 -8.4820884,-3.79312 -8.4820862,-8.48341 1.4e-6,-4.69028 3.7917984,-8.48209 8.4820862,-8.48209 z"
       id="path885"
       inkscape:connector-curvature="0" />
    <path
       style="fill:#ff9a2a;fill-opacity:1;stroke:none;stroke-width:0.17889459px;stroke-linecap:butt;stroke-linejoin:miter;stroke-opacity:1"
       d="M 0.99179317,293.03548 C 8.0913961,278.70549 15.294171,275.36584 24.79387,274.23638 c -3.907653,3.18481 -3.752288,5.55528 -1.137042,8.86893 -8.157232,-3.03017 -17.7858053,3.3122 -22.66503483,9.93017 z"
       id="path900"
       inkscape:connector-curvature="0"
       sodipodi:nodetypes="cccc" />
    <g
       aria-label="rapporto di assistenza"
       style="font-style:normal;font-variant:normal;font-weight:normal;font-stretch:normal;font-size:2.61514044px;line-height:1.25;font-family:'DIN Condensed';-inkscape-font-specification:'DIN Condensed, ';letter-spacing:0px;word-spacing:0px;fill:#ff9a2a;fill-opacity:1;stroke:none;stroke-width:0.09806778"
       id="text920">
      <path
         inkscape:connector-curvature="0"
         d="m 35.084243,293.04697 v -1.32588 h 0.266744 v 0.14122 q 0.08107,-0.0732 0.159524,-0.11507 0.07845,-0.0418 0.19352,-0.0418 v 0.28243 q -0.03923,-0.0157 -0.08107,-0.0157 -0.04184,0 -0.09153,0.0157 -0.04707,0.0131 -0.0863,0.0471 -0.04184,0.034 -0.06799,0.0889 -0.02615,0.0549 -0.02615,0.13599 v 0.78716 z"
         style="fill:#ff9a2a;fill-opacity:1;stroke-width:0.09806778"
         id="path922" />
      <path
         inkscape:connector-curvature="0"
         d="m 36.298935,293.04697 v -0.13599 h -0.0052 q -0.0523,0.0732 -0.107221,0.11245 -0.0523,0.0392 -0.149063,0.0392 -0.04707,0 -0.09676,-0.0157 -0.04707,-0.0131 -0.09153,-0.0523 -0.04446,-0.0366 -0.07322,-0.1046 -0.02615,-0.0706 -0.02615,-0.18045 0,-0.11245 0.01831,-0.19613 0.01831,-0.0863 0.06799,-0.14383 0.04707,-0.0549 0.128142,-0.0811 0.08107,-0.0288 0.206596,-0.0288 0.01308,0 0.02877,0 0.01569,0 0.02877,0.003 0.01308,0.003 0.03138,0.003 0.01831,0 0.03923,0.003 v -0.1386 q 0,-0.068 -0.02877,-0.11245 -0.02877,-0.0445 -0.104605,-0.0445 -0.0523,0 -0.09676,0.034 -0.04184,0.034 -0.05492,0.0994 h -0.258899 q 0.01046,-0.17783 0.120296,-0.28767 0.0523,-0.0523 0.125527,-0.0811 0.07322,-0.0314 0.164754,-0.0314 0.08368,0 0.156908,0.0262 0.07322,0.0261 0.128142,0.0785 0.0523,0.0523 0.08369,0.13075 0.03138,0.0785 0.03138,0.18306 v 0.92315 z m 0,-0.5701 q -0.04446,-0.008 -0.07322,-0.008 -0.0863,0 -0.149063,0.0418 -0.06015,0.0392 -0.06015,0.14645 0,0.0758 0.03661,0.12291 0.03661,0.0471 0.10199,0.0471 0.06799,0 0.104606,-0.0444 0.03923,-0.0445 0.03923,-0.12553 z"
         style="fill:#ff9a2a;fill-opacity:1;stroke-width:0.09806778"
         id="path924" />
      <path
         inkscape:connector-curvature="0"
         d="m 36.759567,293.58307 v -1.86198 h 0.266745 v 0.1203 q 0.04969,-0.0575 0.10199,-0.0968 0.0523,-0.0392 0.151678,-0.0392 0.164754,0 0.232748,0.12553 0.02354,0.0444 0.034,0.10983 0.01046,0.0654 0.01046,0.17522 v 0.50472 q 0,0.14645 -0.0078,0.21183 -0.01569,0.13075 -0.120297,0.19613 -0.0523,0.034 -0.151678,0.034 -0.07845,0 -0.141217,-0.034 -0.06015,-0.0366 -0.104606,-0.10199 h -0.0052 v 0.6564 z m 0.530874,-1.43048 q 0,-0.0811 -0.03138,-0.13076 -0.03138,-0.0497 -0.09938,-0.0497 -0.06015,0 -0.09676,0.0471 -0.03661,0.0444 -0.03661,0.11768 v 0.51518 q 0,0.0628 0.03661,0.10461 0.03923,0.0392 0.09676,0.0392 0.07584,0 0.10199,-0.0471 0.02877,-0.0471 0.02877,-0.10984 z"
         style="fill:#ff9a2a;fill-opacity:1;stroke-width:0.09806778"
         id="path926" />
      <path
         inkscape:connector-curvature="0"
         d="m 37.775999,293.58307 v -1.86198 h 0.266744 v 0.1203 q 0.04969,-0.0575 0.101991,-0.0968 0.0523,-0.0392 0.151678,-0.0392 0.164754,0 0.232747,0.12553 0.02354,0.0444 0.034,0.10983 0.01046,0.0654 0.01046,0.17522 v 0.50472 q 0,0.14645 -0.0078,0.21183 -0.01569,0.13075 -0.120296,0.19613 -0.0523,0.034 -0.151678,0.034 -0.07845,0 -0.141218,-0.034 -0.06015,-0.0366 -0.104606,-0.10199 h -0.0052 v 0.6564 z m 0.530873,-1.43048 q 0,-0.0811 -0.03138,-0.13076 -0.03138,-0.0497 -0.09938,-0.0497 -0.06015,0 -0.09676,0.0471 -0.03661,0.0444 -0.03661,0.11768 v 0.51518 q 0,0.0628 0.03661,0.10461 0.03923,0.0392 0.09676,0.0392 0.07584,0 0.101991,-0.0471 0.02877,-0.0471 0.02877,-0.10984 z"
         style="fill:#ff9a2a;fill-opacity:1;stroke-width:0.09806778"
         id="path928" />
      <path
         inkscape:connector-curvature="0"
         d="m 38.768894,292.16566 q 0,-0.0811 0.01046,-0.14906 0.01046,-0.068 0.03923,-0.1203 0.04707,-0.0863 0.133372,-0.1386 0.08892,-0.0523 0.214442,-0.0523 0.125526,0 0.211826,0.0523 0.08892,0.0523 0.135987,0.1386 0.02877,0.0523 0.03923,0.1203 0.01046,0.068 0.01046,0.14906 v 0.43673 q 0,0.0811 -0.01046,0.14907 -0.01046,0.068 -0.03923,0.12029 -0.04707,0.0863 -0.135987,0.1386 -0.0863,0.0523 -0.211826,0.0523 -0.125527,0 -0.214442,-0.0523 -0.0863,-0.0523 -0.133372,-0.1386 -0.02877,-0.0523 -0.03923,-0.12029 -0.01046,-0.068 -0.01046,-0.14907 z m 0.266745,0.47857 q 0,0.0758 0.034,0.11507 0.03661,0.0366 0.09676,0.0366 0.06015,0 0.09415,-0.0366 0.03661,-0.0392 0.03661,-0.11507 v -0.52041 q 0,-0.0758 -0.03661,-0.11245 -0.034,-0.0392 -0.09415,-0.0392 -0.06015,0 -0.09676,0.0392 -0.034,0.0366 -0.034,0.11245 z"
         style="fill:#ff9a2a;fill-opacity:1;stroke-width:0.09806778"
         id="path930" />
      <path
         inkscape:connector-curvature="0"
         d="m 39.757785,293.04697 v -1.32588 h 0.266744 v 0.14122 q 0.08107,-0.0732 0.159524,-0.11507 0.07845,-0.0418 0.19352,-0.0418 v 0.28243 q -0.03923,-0.0157 -0.08107,-0.0157 -0.04184,0 -0.09153,0.0157 -0.04707,0.0131 -0.0863,0.0471 -0.04184,0.034 -0.06799,0.0889 -0.02615,0.0549 -0.02615,0.13599 v 0.78716 z"
         style="fill:#ff9a2a;fill-opacity:1;stroke-width:0.09806778"
         id="path932" />
      <path
         inkscape:connector-curvature="0"
         d="m 40.483078,291.72109 v -0.40273 h 0.266744 v 0.40273 h 0.164754 v 0.20921 h -0.164754 v 0.73486 q 0,0.0471 0.0078,0.0732 0.01046,0.0261 0.03138,0.0392 0.02092,0.0131 0.04969,0.0157 0.03138,0.003 0.07584,0.003 v 0.25106 H 40.80474 q -0.09153,0 -0.154293,-0.0288 -0.06015,-0.0288 -0.09676,-0.0732 -0.03661,-0.0445 -0.05492,-0.0994 -0.01569,-0.0575 -0.01569,-0.10984 v -0.80546 h -0.133372 v -0.20921 z"
         style="fill:#ff9a2a;fill-opacity:1;stroke-width:0.09806778"
         id="path934" />
      <path
         inkscape:connector-curvature="0"
         d="m 40.990742,292.16566 q 0,-0.0811 0.01046,-0.14906 0.01046,-0.068 0.03923,-0.1203 0.04707,-0.0863 0.133372,-0.1386 0.08892,-0.0523 0.214441,-0.0523 0.125527,0 0.211827,0.0523 0.08891,0.0523 0.135987,0.1386 0.02877,0.0523 0.03923,0.1203 0.01046,0.068 0.01046,0.14906 v 0.43673 q 0,0.0811 -0.01046,0.14907 -0.01046,0.068 -0.03923,0.12029 -0.04707,0.0863 -0.135987,0.1386 -0.0863,0.0523 -0.211827,0.0523 -0.125526,0 -0.214441,-0.0523 -0.0863,-0.0523 -0.133372,-0.1386 -0.02877,-0.0523 -0.03923,-0.12029 -0.01046,-0.068 -0.01046,-0.14907 z m 0.266744,0.47857 q 0,0.0758 0.034,0.11507 0.03661,0.0366 0.09676,0.0366 0.06015,0 0.09414,-0.0366 0.03661,-0.0392 0.03661,-0.11507 v -0.52041 q 0,-0.0758 -0.03661,-0.11245 -0.034,-0.0392 -0.09414,-0.0392 -0.06015,0 -0.09676,0.0392 -0.034,0.0366 -0.034,0.11245 z"
         style="fill:#ff9a2a;fill-opacity:1;stroke-width:0.09806778"
         id="path936" />
      <path
         inkscape:connector-curvature="0"
         d="m 42.731608,292.61547 q 0,0.0811 0.03138,0.13076 0.03138,0.0497 0.09937,0.0497 0.06015,0 0.09676,-0.0444 0.03661,-0.0471 0.03661,-0.1203 v -0.51518 q 0,-0.0628 -0.03923,-0.10199 -0.03661,-0.0418 -0.09415,-0.0418 -0.07584,0 -0.104605,0.0471 -0.02615,0.0471 -0.02615,0.10983 z m 0.26413,0.4315 v -0.1203 q -0.02615,0.0288 -0.04969,0.0549 -0.02354,0.0235 -0.0523,0.0418 -0.02877,0.0183 -0.06538,0.0288 -0.03661,0.0105 -0.0863,0.0105 -0.167369,0 -0.232748,-0.12553 -0.02354,-0.0445 -0.034,-0.10984 -0.01046,-0.0654 -0.01046,-0.17521 v -0.50472 q 0,-0.14383 0.0078,-0.21183 0.01569,-0.13076 0.122912,-0.19613 0.04969,-0.034 0.149063,-0.034 0.07845,0 0.138603,0.0366 0.06276,0.034 0.10722,0.0994 h 0.0052 v -0.6564 h 0.266744 v 1.86198 z"
         style="fill:#ff9a2a;fill-opacity:1;stroke-width:0.09806778"
         id="path938" />
      <path
         inkscape:connector-curvature="0"
         d="m 43.481296,293.04697 v -1.32588 h 0.266744 v 1.32588 z m 0,-1.59524 v -0.26674 h 0.266744 v 0.26674 z"
         style="fill:#ff9a2a;fill-opacity:1;stroke-width:0.09806778"
         id="path940" />
      <path
         inkscape:connector-curvature="0"
         d="m 44.95648,293.04697 v -0.13599 h -0.0052 q -0.0523,0.0732 -0.107221,0.11245 -0.0523,0.0392 -0.149063,0.0392 -0.04707,0 -0.09676,-0.0157 -0.04707,-0.0131 -0.09153,-0.0523 -0.04446,-0.0366 -0.07322,-0.1046 -0.02615,-0.0706 -0.02615,-0.18045 0,-0.11245 0.01831,-0.19613 0.01831,-0.0863 0.06799,-0.14383 0.04707,-0.0549 0.128142,-0.0811 0.08107,-0.0288 0.206596,-0.0288 0.01308,0 0.02877,0 0.01569,0 0.02877,0.003 0.01308,0.003 0.03138,0.003 0.01831,0 0.03923,0.003 v -0.1386 q 0,-0.068 -0.02877,-0.11245 -0.02877,-0.0445 -0.104605,-0.0445 -0.0523,0 -0.09676,0.034 -0.04184,0.034 -0.05492,0.0994 H 44.41257 q 0.01046,-0.17783 0.120296,-0.28767 0.0523,-0.0523 0.125527,-0.0811 0.07322,-0.0314 0.164754,-0.0314 0.08368,0 0.156908,0.0262 0.07322,0.0261 0.128142,0.0785 0.0523,0.0523 0.08368,0.13075 0.03138,0.0785 0.03138,0.18306 v 0.92315 z m 0,-0.5701 q -0.04446,-0.008 -0.07322,-0.008 -0.0863,0 -0.149063,0.0418 -0.06015,0.0392 -0.06015,0.14645 0,0.0758 0.03661,0.12291 0.03661,0.0471 0.10199,0.0471 0.06799,0 0.104606,-0.0444 0.03923,-0.0445 0.03923,-0.12553 z"
         style="fill:#ff9a2a;fill-opacity:1;stroke-width:0.09806778"
         id="path942" />
      <path
         inkscape:connector-curvature="0"
         d="m 45.900914,292.09244 q -0.0026,-0.068 -0.04446,-0.10199 -0.03923,-0.034 -0.09153,-0.034 -0.06276,0 -0.09676,0.0418 -0.034,0.0392 -0.034,0.0915 0,0.0366 0.01831,0.0732 0.01831,0.034 0.09414,0.0628 l 0.156909,0.0628 q 0.149063,0.0575 0.203981,0.1569 0.05753,0.0994 0.05753,0.21706 0,0.0837 -0.03138,0.15691 -0.02877,0.0706 -0.08107,0.12553 -0.0523,0.0549 -0.125527,0.0863 -0.07322,0.0314 -0.159524,0.0314 -0.162138,0 -0.271974,-0.10199 -0.05492,-0.0497 -0.08892,-0.12291 -0.034,-0.0758 -0.03661,-0.17522 h 0.251054 q 0.0078,0.0549 0.03661,0.10199 0.03138,0.0471 0.10722,0.0471 0.05753,0 0.101991,-0.0366 0.04707,-0.0392 0.04707,-0.10722 0,-0.0549 -0.02877,-0.0941 -0.02877,-0.0392 -0.104606,-0.068 l -0.128142,-0.0471 q -0.125526,-0.0471 -0.19875,-0.1386 -0.07061,-0.0941 -0.07061,-0.22752 0,-0.0837 0.03138,-0.15429 0.03138,-0.0732 0.0863,-0.12553 0.0523,-0.0523 0.122912,-0.0784 0.07061,-0.0288 0.151678,-0.0288 0.08107,0 0.149063,0.0288 0.07061,0.0288 0.120296,0.0811 0.04969,0.0523 0.07845,0.12552 0.02877,0.0706 0.02877,0.15168 z"
         style="fill:#ff9a2a;fill-opacity:1;stroke-width:0.09806778"
         id="path944" />
      <path
         inkscape:connector-curvature="0"
         d="m 46.820299,292.09244 q -0.0026,-0.068 -0.04446,-0.10199 -0.03923,-0.034 -0.09153,-0.034 -0.06276,0 -0.09676,0.0418 -0.034,0.0392 -0.034,0.0915 0,0.0366 0.01831,0.0732 0.01831,0.034 0.09414,0.0628 l 0.156909,0.0628 q 0.149063,0.0575 0.203981,0.1569 0.05753,0.0994 0.05753,0.21706 0,0.0837 -0.03138,0.15691 -0.02877,0.0706 -0.08107,0.12553 -0.0523,0.0549 -0.125527,0.0863 -0.07322,0.0314 -0.159524,0.0314 -0.162138,0 -0.271974,-0.10199 -0.05492,-0.0497 -0.08892,-0.12291 -0.034,-0.0758 -0.03661,-0.17522 h 0.251054 q 0.0078,0.0549 0.03661,0.10199 0.03138,0.0471 0.10722,0.0471 0.05753,0 0.101991,-0.0366 0.04707,-0.0392 0.04707,-0.10722 0,-0.0549 -0.02877,-0.0941 -0.02877,-0.0392 -0.104606,-0.068 l -0.128142,-0.0471 q -0.125527,-0.0471 -0.19875,-0.1386 -0.07061,-0.0941 -0.07061,-0.22752 0,-0.0837 0.03138,-0.15429 0.03138,-0.0732 0.0863,-0.12553 0.0523,-0.0523 0.122912,-0.0784 0.07061,-0.0288 0.151678,-0.0288 0.08107,0 0.149063,0.0288 0.07061,0.0288 0.120296,0.0811 0.04969,0.0523 0.07845,0.12552 0.02877,0.0706 0.02877,0.15168 z"
         style="fill:#ff9a2a;fill-opacity:1;stroke-width:0.09806778"
         id="path946" />
      <path
         inkscape:connector-curvature="0"
         d="m 47.255883,293.04697 v -1.32588 h 0.266745 v 1.32588 z m 0,-1.59524 v -0.26674 h 0.266745 v 0.26674 z"
         style="fill:#ff9a2a;fill-opacity:1;stroke-width:0.09806778"
         id="path949" />
      <path
         inkscape:connector-curvature="0"
         d="m 48.224915,292.09244 q -0.0026,-0.068 -0.04446,-0.10199 -0.03923,-0.034 -0.09153,-0.034 -0.06276,0 -0.09676,0.0418 -0.034,0.0392 -0.034,0.0915 0,0.0366 0.01831,0.0732 0.01831,0.034 0.09414,0.0628 l 0.156908,0.0628 q 0.149063,0.0575 0.203981,0.1569 0.05753,0.0994 0.05753,0.21706 0,0.0837 -0.03138,0.15691 -0.02877,0.0706 -0.08107,0.12553 -0.0523,0.0549 -0.125527,0.0863 -0.07322,0.0314 -0.159523,0.0314 -0.162139,0 -0.271975,-0.10199 -0.05492,-0.0497 -0.08892,-0.12291 -0.034,-0.0758 -0.03661,-0.17522 h 0.251054 q 0.0078,0.0549 0.03661,0.10199 0.03138,0.0471 0.107221,0.0471 0.05753,0 0.10199,-0.0366 0.04707,-0.0392 0.04707,-0.10722 0,-0.0549 -0.02877,-0.0941 -0.02877,-0.0392 -0.104606,-0.068 l -0.128141,-0.0471 q -0.125527,-0.0471 -0.198751,-0.1386 -0.07061,-0.0941 -0.07061,-0.22752 0,-0.0837 0.03138,-0.15429 0.03138,-0.0732 0.0863,-0.12553 0.0523,-0.0523 0.122912,-0.0784 0.07061,-0.0288 0.151678,-0.0288 0.08107,0 0.149063,0.0288 0.07061,0.0288 0.120297,0.0811 0.04969,0.0523 0.07845,0.12552 0.02877,0.0706 0.02877,0.15168 z"
         style="fill:#ff9a2a;fill-opacity:1;stroke-width:0.09806778"
         id="path951" />
      <path
         inkscape:connector-curvature="0"
         d="m 48.6605,291.72109 v -0.40273 h 0.266744 v 0.40273 h 0.164754 v 0.20921 h -0.164754 v 0.73486 q 0,0.0471 0.0078,0.0732 0.01046,0.0261 0.03138,0.0392 0.02092,0.0131 0.04969,0.0157 0.03138,0.003 0.07584,0.003 v 0.25106 h -0.109836 q -0.09153,0 -0.154293,-0.0288 -0.06015,-0.0288 -0.09676,-0.0732 -0.03661,-0.0445 -0.05492,-0.0994 -0.01569,-0.0575 -0.01569,-0.10984 v -0.80546 h -0.133372 v -0.20921 z"
         style="fill:#ff9a2a;fill-opacity:1;stroke-width:0.09806778"
         id="path953" />
      <path
         inkscape:connector-curvature="0"
         d="m 49.963167,292.48471 h -0.528259 v 0.18045 q 0,0.0628 0.034,0.0968 0.03661,0.034 0.09676,0.034 0.07584,0 0.09938,-0.0444 0.02615,-0.0445 0.03138,-0.0889 h 0.266745 q 0,0.17522 -0.107221,0.28244 -0.0523,0.0549 -0.125527,0.0863 -0.07322,0.0314 -0.164754,0.0314 -0.125526,0 -0.214441,-0.0523 -0.0863,-0.0523 -0.133372,-0.1386 -0.02877,-0.0523 -0.03923,-0.12029 -0.01046,-0.068 -0.01046,-0.14907 v -0.43673 q 0,-0.0811 0.01046,-0.14906 0.01046,-0.068 0.03923,-0.1203 0.04707,-0.0863 0.133372,-0.1386 0.08892,-0.0523 0.214441,-0.0523 0.09153,0 0.164754,0.0314 0.07584,0.0314 0.128142,0.0863 0.104606,0.11768 0.104606,0.29551 z m -0.528259,-0.20921 h 0.261514 v -0.15168 q 0,-0.0758 -0.03661,-0.11245 -0.034,-0.0392 -0.09414,-0.0392 -0.06015,0 -0.09676,0.0392 -0.034,0.0366 -0.034,0.11245 z"
         style="fill:#ff9a2a;fill-opacity:1;stroke-width:0.09806778"
         id="path955" />
      <path
         inkscape:connector-curvature="0"
         d="m 50.157054,293.04697 v -1.32588 h 0.266745 v 0.12814 h 0.0052 q 0.04184,-0.0628 0.09938,-0.10199 0.06015,-0.0418 0.151678,-0.0418 0.04969,0 0.09938,0.0183 0.04969,0.0157 0.08891,0.0549 0.03923,0.0392 0.06276,0.10199 0.02354,0.0602 0.02354,0.14907 v 1.01729 h -0.266744 v -0.91792 q 0,-0.0732 -0.034,-0.11506 -0.034,-0.0418 -0.09676,-0.0418 -0.07584,0 -0.104606,0.0471 -0.02877,0.0471 -0.02877,0.13598 v 0.89177 z"
         style="fill:#ff9a2a;fill-opacity:1;stroke-width:0.09806778"
         id="path957" />
      <path
         inkscape:connector-curvature="0"
         d="m 51.108108,293.04697 v -0.21183 l 0.431498,-0.87869 h -0.397502 v -0.23536 h 0.700858 v 0.21183 l -0.431498,0.86299 h 0.431498 v 0.25106 z"
         style="fill:#ff9a2a;fill-opacity:1;stroke-width:0.09806778"
         id="path959" />
      <path
         inkscape:connector-curvature="0"
         d="m 52.500548,293.04697 v -0.13599 h -0.0052 q -0.0523,0.0732 -0.107221,0.11245 -0.0523,0.0392 -0.149063,0.0392 -0.04707,0 -0.09676,-0.0157 -0.04707,-0.0131 -0.09153,-0.0523 -0.04446,-0.0366 -0.07322,-0.1046 -0.02615,-0.0706 -0.02615,-0.18045 0,-0.11245 0.01831,-0.19613 0.01831,-0.0863 0.06799,-0.14383 0.04707,-0.0549 0.128142,-0.0811 0.08107,-0.0288 0.206596,-0.0288 0.01308,0 0.02877,0 0.01569,0 0.02877,0.003 0.01308,0.003 0.03138,0.003 0.01831,0 0.03923,0.003 v -0.1386 q 0,-0.068 -0.02877,-0.11245 -0.02877,-0.0445 -0.104606,-0.0445 -0.0523,0 -0.09676,0.034 -0.04184,0.034 -0.05492,0.0994 h -0.258899 q 0.01046,-0.17783 0.120296,-0.28767 0.0523,-0.0523 0.125527,-0.0811 0.07322,-0.0314 0.164754,-0.0314 0.08368,0 0.156908,0.0262 0.07322,0.0261 0.128142,0.0785 0.0523,0.0523 0.08369,0.13075 0.03138,0.0785 0.03138,0.18306 v 0.92315 z m 0,-0.5701 q -0.04446,-0.008 -0.07322,-0.008 -0.0863,0 -0.149063,0.0418 -0.06015,0.0392 -0.06015,0.14645 0,0.0758 0.03661,0.12291 0.03661,0.0471 0.10199,0.0471 0.06799,0 0.104606,-0.0444 0.03923,-0.0445 0.03923,-0.12553 z"
         style="fill:#ff9a2a;fill-opacity:1;stroke-width:0.09806778"
         id="path961" />
    </g>
  </g>
</svg>
