<?xml version="1.0" encoding="UTF-8" standalone="no"?>
<!-- Created with Inkscape (http://www.inkscape.org/) -->

<svg
   xmlns:dc="http://purl.org/dc/elements/1.1/"
   xmlns:cc="http://creativecommons.org/ns#"
   xmlns:rdf="http://www.w3.org/1999/02/22-rdf-syntax-ns#"
   xmlns:svg="http://www.w3.org/2000/svg"
   xmlns="http://www.w3.org/2000/svg"
   xmlns:sodipodi="http://sodipodi.sourceforge.net/DTD/sodipodi-0.dtd"
   xmlns:inkscape="http://www.inkscape.org/namespaces/inkscape"
   width="128"
   height="30"
   viewBox="0 0 33.866666 7.9375002"
   version="1.1"
   id="svg882"
   inkscape:version="0.92.2 5c3e80d, 2017-08-06"
   sodipodi:docname="MainLogo.svg">
  <defs
     id="defs876">
    <marker
       inkscape:stockid="Arrow1Send"
       orient="auto"
       refY="0.0"
       refX="0.0"
       id="Arrow1Send"
       style="overflow:visible;"
       inkscape:isstock="true">
      <path
         id="path1192"
         d="M 0.0,0.0 L 5.0,-5.0 L -12.5,0.0 L 5.0,5.0 L 0.0,0.0 z "
         style="fill-rule:evenodd;stroke:#ffffff;stroke-width:1pt;stroke-opacity:1;fill:#ffffff;fill-opacity:1"
         transform="scale(0.2) rotate(180) translate(6,0)" />
    </marker>
    <marker
       inkscape:stockid="Arrow1Mend"
       orient="auto"
       refY="0.0"
       refX="0.0"
       id="Arrow1Mend"
       style="overflow:visible;"
       inkscape:isstock="true">
      <path
         id="path1186"
         d="M 0.0,0.0 L 5.0,-5.0 L -12.5,0.0 L 5.0,5.0 L 0.0,0.0 z "
         style="fill-rule:evenodd;stroke:#000000;stroke-width:1pt;stroke-opacity:1;fill:#000000;fill-opacity:1"
         transform="scale(0.4) rotate(180) translate(10,0)" />
    </marker>
    <marker
       inkscape:isstock="true"
       style="overflow:visible"
       id="Arrow1Send-3"
       refX="0"
       refY="0"
       orient="auto"
       inkscape:stockid="Arrow1Send">
      <path
         inkscape:connector-curvature="0"
         transform="matrix(-0.2,0,0,-0.2,-1.2,0)"
         style="fill:#ffffff;fill-opacity:1;fill-rule:evenodd;stroke:#ffffff;stroke-width:1.00000003pt;stroke-opacity:1"
         d="M 0,0 5,-5 -12.5,0 5,5 Z"
         id="path1192-8" />
    </marker>
    <marker
       inkscape:isstock="true"
       style="overflow:visible"
       id="Arrow1Mend-0"
       refX="0"
       refY="0"
       orient="auto"
       inkscape:stockid="Arrow1Mend">
      <path
         inkscape:connector-curvature="0"
         transform="matrix(-0.4,0,0,-0.4,-4,0)"
         style="fill:#000000;fill-opacity:1;fill-rule:evenodd;stroke:#000000;stroke-width:1.00000003pt;stroke-opacity:1"
         d="M 0,0 5,-5 -12.5,0 5,5 Z"
         id="path1186-2" />
    </marker>
  </defs>
  <sodipodi:namedview
     id="base"
     pagecolor="#ffffff"
     bordercolor="#666666"
     borderopacity="1.0"
     inkscape:pageopacity="0.0"
     inkscape:pageshadow="2"
     inkscape:zoom="5.339844"
     inkscape:cx="41.865163"
     inkscape:cy="17.548932"
     inkscape:document-units="px"
     inkscape:current-layer="layer1"
     showgrid="false"
     units="px"
     inkscape:showpageshadow="false"
     inkscape:window-width="1920"
     inkscape:window-height="1035"
     inkscape:window-x="0"
     inkscape:window-y="1"
     inkscape:window-maximized="1" />
  <metadata
     id="metadata879">
    <rdf:RDF>
      <cc:Work
         rdf:about="">
        <dc:format>image/svg+xml</dc:format>
        <dc:type
           rdf:resource="http://purl.org/dc/dcmitype/StillImage" />
        <dc:title />
      </cc:Work>
    </rdf:RDF>
  </metadata>
  <g
     inkscape:label="Livello 1"
     inkscape:groupmode="layer"
     id="layer1"
     transform="translate(0,-289.06249)">
    <path
       inkscape:connector-curvature="0"
       id="path939"
       style="font-style:normal;font-variant:normal;font-weight:normal;font-stretch:normal;font-size:medium;line-height:1.25;font-family:Oswald;-inkscape-font-specification:Oswald;letter-spacing:0px;word-spacing:0px;fill:#ffffff;fill-opacity:1;stroke:none;stroke-width:0.22384235"
       d="m 20.732503,294.54115 q -0.268612,0 -0.435748,-0.10155 -0.16116,-0.10155 -0.238765,-0.2865 -0.07163,-0.18501 -0.07163,-0.43576 v -2.25036 h -0.364117 v -0.42381 h 0.364117 v -1.00878 h 0.638697 v 1.00878 h 0.555129 v 0.42381 h -0.555129 v 2.20857 q 0,0.20297 0.06566,0.2925 0.06566,0.0836 0.250702,0.0836 0.04776,0 0.107446,-0.006 0.06566,-0.006 0.125345,-0.0113 v 0.47156 q -0.119391,0.0188 -0.220857,0.0239 -0.101474,0.0113 -0.220857,0.0113 z" />
    <path
       inkscape:connector-curvature="0"
       id="path941"
       style="font-style:normal;font-variant:normal;font-weight:normal;font-stretch:normal;font-size:medium;line-height:1.25;font-family:Oswald;-inkscape-font-specification:Oswald;letter-spacing:0px;word-spacing:0px;fill:#ffffff;fill-opacity:1;stroke:none;stroke-width:0.22384235"
       d="m 21.697077,294.49341 v -3.45017 h 0.638697 v 3.45017 z m 0,-3.96351 v -0.66854 h 0.638697 v 0.66854 z" />
    <path
       inkscape:connector-curvature="0"
       id="path943"
       style="font-style:normal;font-variant:normal;font-weight:normal;font-stretch:normal;font-size:medium;line-height:1.25;font-family:Oswald;-inkscape-font-specification:Oswald;letter-spacing:0px;word-spacing:0px;fill:#ffffff;fill-opacity:1;stroke:none;stroke-width:0.22384235"
       d="m 23.019332,294.49341 v -3.45017 h 0.638697 v 0.34024 q 0.173105,-0.16108 0.382025,-0.27458 0.208918,-0.11342 0.459622,-0.11342 0.20892,0 0.316364,0.10739 0.113418,0.10739 0.155187,0.26861 0.04776,0.16109 0.04776,0.32829 v 2.79357 h -0.638696 v -2.60852 q 0,-0.18501 -0.05373,-0.28652 -0.05371,-0.10155 -0.220857,-0.10155 -0.107447,0 -0.226828,0.0657 -0.113419,0.0597 -0.220857,0.14922 v 2.78162 z" />
    <path
       inkscape:connector-curvature="0"
       id="path945"
       style="font-style:normal;font-variant:normal;font-weight:normal;font-stretch:normal;font-size:medium;line-height:1.25;font-family:Oswald;-inkscape-font-specification:Oswald;letter-spacing:0px;word-spacing:0px;fill:#ffffff;fill-opacity:1;stroke:none;stroke-width:0.22384235"
       d="m 26.591575,294.54115 q -0.382024,0 -0.602881,-0.15524 -0.220858,-0.15525 -0.316365,-0.44171 -0.08953,-0.28653 -0.08953,-0.67452 v -1.00281 q 0,-0.388 0.08953,-0.67452 0.0955,-0.28651 0.316365,-0.44172 0.220857,-0.15524 0.602881,-0.15524 0.382025,0 0.596913,0.15524 0.220858,0.15525 0.310396,0.44172 0.0955,0.28652 0.0955,0.67452 v 1.00281 q 0,0.38799 -0.0955,0.67452 -0.08955,0.2865 -0.310396,0.44171 -0.214888,0.15524 -0.596913,0.15524 z m 0,-0.47155 q 0.18505,0 0.256673,-0.10739 0.0776,-0.10739 0.08953,-0.28055 0.0179,-0.17898 0.0179,-0.37008 v -1.08042 q 0,-0.19697 -0.0179,-0.37008 -0.01187,-0.17314 -0.08953,-0.28055 -0.07163,-0.11342 -0.256673,-0.11342 -0.185049,0 -0.262641,0.11342 -0.0776,0.10739 -0.0955,0.28055 -0.01187,0.17315 -0.01187,0.37008 v 1.08042 q 0,0.191 0.01187,0.37008 0.0179,0.17314 0.0955,0.28055 0.0776,0.10739 0.262641,0.10739 z" />
    <path
       inkscape:connector-curvature="0"
       id="path948"
       style="font-style:normal;font-variant:normal;font-weight:normal;font-stretch:normal;font-size:medium;line-height:1.25;font-family:Oswald;-inkscape-font-specification:Oswald;letter-spacing:0px;word-spacing:0px;fill:#ffffff;fill-opacity:1;stroke:none;stroke-width:0.3195622"
       d="m 15.864505,295.96504 v -6.90254 h 1.38903 q 0.690255,0 1.141902,0.18746 0.451648,0.17898 0.66469,0.58799 0.221562,0.40052 0.221562,1.05669 0,0.40051 -0.08521,0.73285 -0.08521,0.32383 -0.272693,0.55393 -0.18748,0.22156 -0.494256,0.3238 l 0.979991,3.4598 h -0.928863 l -0.903296,-3.23823 h -0.749906 v 3.23823 z m 0.962947,-3.92849 h 0.366431 q 0.40904,0 0.66469,-0.1023 0.25565,-0.1023 0.374953,-0.34939 0.119302,-0.24713 0.119302,-0.69025 0,-0.60504 -0.221563,-0.86922 -0.221562,-0.27264 -0.87773,-0.27264 h -0.426083 z" />
    <path
       style="color:#000000;font-style:normal;font-variant:normal;font-weight:normal;font-stretch:normal;font-size:medium;line-height:normal;font-family:sans-serif;font-variant-ligatures:normal;font-variant-position:normal;font-variant-caps:normal;font-variant-numeric:normal;font-variant-alternates:normal;font-feature-settings:normal;text-indent:0;text-align:start;text-decoration:none;text-decoration-line:none;text-decoration-style:solid;text-decoration-color:#000000;letter-spacing:normal;word-spacing:normal;text-transform:none;writing-mode:lr-tb;direction:ltr;text-orientation:mixed;dominant-baseline:auto;baseline-shift:baseline;text-anchor:start;white-space:normal;shape-padding:0;clip-rule:nonzero;display:inline;overflow:visible;visibility:visible;opacity:1;isolation:auto;mix-blend-mode:normal;color-interpolation:sRGB;color-interpolation-filters:linearRGB;solid-color:#000000;solid-opacity:1;vector-effect:none;fill:#ffffff;fill-opacity:1;fill-rule:nonzero;stroke:none;stroke-width:0.28349137;stroke-linecap:square;stroke-linejoin:miter;stroke-miterlimit:4;stroke-dasharray:none;stroke-dashoffset:0;stroke-opacity:1;color-rendering:auto;image-rendering:auto;shape-rendering:auto;text-rendering:auto;enable-background:accumulate"
       d="m 9.6333665,290.01992 c -1.6397344,0 -2.9720548,1.33232 -2.9720556,2.97206 0,1.63973 1.3323204,2.97206 2.9720556,2.97206 1.6397365,0 2.9720565,-1.33233 2.9720555,-2.97206 0,-1.63974 -1.33232,-2.97206 -2.9720555,-2.97206 z m 0,0.28377 c 1.4865255,0 2.6887035,1.20176 2.6887035,2.68829 10e-7,1.48653 -1.202177,2.68871 -2.6887035,2.68871 -1.4865252,0 -2.6882852,-1.20218 -2.6882844,-2.68871 0,-1.48653 1.2017601,-2.68829 2.6882844,-2.68829 z"
       id="path885"
       inkscape:connector-curvature="0" />
    <path
       style="fill:#ffc403;fill-opacity:1;stroke:none;stroke-width:0.05669829px;stroke-linecap:butt;stroke-linejoin:miter;stroke-opacity:1"
       d="m 6.2722816,295.03996 c 2.2501252,-4.5417 4.5329494,-5.60015 7.5437534,-5.95812 -1.238478,1.00939 -1.189238,1.76068 -0.36037,2.81089 -2.585327,-0.96037 -5.6369763,1.04975 -7.1833834,3.14723 z"
       id="path900"
       inkscape:connector-curvature="0"
       sodipodi:nodetypes="cccc" />
  </g>
</svg>
