<?xml version="1.0" encoding="UTF-8" standalone="no"?>
<!-- Created with Inkscape (http://www.inkscape.org/) -->

<svg
   xmlns:dc="http://purl.org/dc/elements/1.1/"
   xmlns:cc="http://creativecommons.org/ns#"
   xmlns:rdf="http://www.w3.org/1999/02/22-rdf-syntax-ns#"
   xmlns:svg="http://www.w3.org/2000/svg"
   xmlns="http://www.w3.org/2000/svg"
   xmlns:sodipodi="http://sodipodi.sourceforge.net/DTD/sodipodi-0.dtd"
   xmlns:inkscape="http://www.inkscape.org/namespaces/inkscape"
   width="128"
   height="30"
   viewBox="0 0 33.866666 7.9375002"
   version="1.1"
   id="svg882"
   inkscape:version="0.92.2 5c3e80d, 2017-08-06"
   sodipodi:docname="MainLogo.svg">
  <defs
     id="defs876">
    <marker
       inkscape:stockid="Arrow1Send"
       orient="auto"
       refY="0.0"
       refX="0.0"
       id="Arrow1Send"
       style="overflow:visible;"
       inkscape:isstock="true">
      <path
         id="path1192"
         d="M 0.0,0.0 L 5.0,-5.0 L -12.5,0.0 L 5.0,5.0 L 0.0,0.0 z "
         style="fill-rule:evenodd;stroke:#ffffff;stroke-width:1pt;stroke-opacity:1;fill:#ffffff;fill-opacity:1"
         transform="scale(0.2) rotate(180) translate(6,0)" />
    </marker>
    <marker
       inkscape:stockid="Arrow1Mend"
       orient="auto"
       refY="0.0"
       refX="0.0"
       id="Arrow1Mend"
       style="overflow:visible;"
       inkscape:isstock="true">
      <path
         id="path1186"
         d="M 0.0,0.0 L 5.0,-5.0 L -12.5,0.0 L 5.0,5.0 L 0.0,0.0 z "
         style="fill-rule:evenodd;stroke:#000000;stroke-width:1pt;stroke-opacity:1;fill:#000000;fill-opacity:1"
         transform="scale(0.4) rotate(180) translate(10,0)" />
    </marker>
  </defs>
  <sodipodi:namedview
     id="base"
     pagecolor="#ffffff"
     bordercolor="#666666"
     borderopacity="1.0"
     inkscape:pageopacity="0.0"
     inkscape:pageshadow="2"
     inkscape:zoom="10.679688"
     inkscape:cx="64"
     inkscape:cy="15"
     inkscape:document-units="px"
     inkscape:current-layer="layer1"
     showgrid="false"
     units="px"
     inkscape:showpageshadow="false"
     inkscape:window-width="1920"
     inkscape:window-height="1035"
     inkscape:window-x="0"
     inkscape:window-y="1"
     inkscape:window-maximized="1" />
  <metadata
     id="metadata879">
    <rdf:RDF>
      <cc:Work
         rdf:about="">
        <dc:format>image/svg+xml</dc:format>
        <dc:type
           rdf:resource="http://purl.org/dc/dcmitype/StillImage" />
        <dc:title></dc:title>
      </cc:Work>
    </rdf:RDF>
  </metadata>
  <g
     inkscape:label="Livello 1"
     inkscape:groupmode="layer"
     id="layer1"
     transform="translate(0,-289.06249)">
    <g
       aria-label="tino"
       style="font-style:normal;font-variant:normal;font-weight:normal;font-stretch:normal;font-size:3.16827893px;line-height:1.25;font-family:'DIN Condensed';-inkscape-font-specification:'DIN Condensed, ';letter-spacing:0px;word-spacing:0px;fill:#ff9a2a;fill-opacity:1;stroke:none;stroke-width:0.11881045"
       id="text841"
       transform="matrix(2.0922586,0,0,2.0922586,-8.1770533,-321.60176)">
      <path
         d="m 11.731022,294.83653 q -0.142573,0 -0.231285,-0.0539 -0.08554,-0.0539 -0.126731,-0.15207 -0.03802,-0.0982 -0.03802,-0.23129 v -1.19444 h -0.193265 v -0.22495 h 0.193265 v -0.53544 h 0.339006 v 0.53544 h 0.29465 v 0.22495 h -0.29465 v 1.17226 q 0,0.10773 0.03485,0.15525 0.03485,0.0444 0.133067,0.0444 0.02535,0 0.05703,-0.003 0.03485,-0.003 0.06653,-0.006 v 0.25029 q -0.06337,0.01 -0.117226,0.0127 -0.05386,0.006 -0.117226,0.006 z"
         style="font-style:normal;font-variant:normal;font-weight:normal;font-stretch:normal;font-family:Oswald;-inkscape-font-specification:Oswald;fill:#ff9a2a;fill-opacity:1;stroke-width:0.11881045"
         id="path939"
         inkscape:connector-curvature="0" />
      <path
         d="m 12.242996,294.81119 v -1.83127 h 0.339006 v 1.83127 z m 0,-2.10374 v -0.35485 h 0.339006 v 0.35485 z"
         style="font-style:normal;font-variant:normal;font-weight:normal;font-stretch:normal;font-family:Oswald;-inkscape-font-specification:Oswald;fill:#ff9a2a;fill-opacity:1;stroke-width:0.11881045"
         id="path941"
         inkscape:connector-curvature="0" />
      <path
         d="m 12.944819,294.81119 v -1.83127 h 0.339006 v 0.18059 q 0.09188,-0.0855 0.20277,-0.14574 0.110889,-0.0602 0.243957,-0.0602 0.11089,0 0.167919,0.057 0.0602,0.057 0.08237,0.14257 0.02535,0.0855 0.02535,0.17425 v 1.48276 h -0.339005 v -1.38454 q 0,-0.0982 -0.02852,-0.15208 -0.02851,-0.0539 -0.117226,-0.0539 -0.05703,0 -0.120395,0.0349 -0.0602,0.0317 -0.117226,0.0792 v 1.47642 z"
         style="font-style:normal;font-variant:normal;font-weight:normal;font-stretch:normal;font-family:Oswald;-inkscape-font-specification:Oswald;fill:#ff9a2a;fill-opacity:1;stroke-width:0.11881045"
         id="path943"
         inkscape:connector-curvature="0" />
      <path
         d="m 14.840885,294.83653 q -0.20277,0 -0.319996,-0.0824 -0.117226,-0.0824 -0.167919,-0.23445 -0.04752,-0.15208 -0.04752,-0.35802 v -0.53227 q 0,-0.20594 0.04752,-0.35802 0.05069,-0.15207 0.167919,-0.23445 0.117226,-0.0824 0.319996,-0.0824 0.20277,0 0.316828,0.0824 0.117226,0.0824 0.164751,0.23445 0.05069,0.15208 0.05069,0.35802 v 0.53227 q 0,0.20594 -0.05069,0.35802 -0.04753,0.15207 -0.164751,0.23445 -0.114058,0.0824 -0.316828,0.0824 z m 0,-0.25029 q 0.09822,0 0.136236,-0.057 0.04119,-0.057 0.04752,-0.14891 0.0095,-0.095 0.0095,-0.19643 v -0.57346 q 0,-0.10455 -0.0095,-0.19643 -0.0063,-0.0919 -0.04752,-0.14891 -0.03802,-0.0602 -0.136236,-0.0602 -0.09822,0 -0.139404,0.0602 -0.04119,0.057 -0.05069,0.14891 -0.0063,0.0919 -0.0063,0.19643 v 0.57346 q 0,0.10138 0.0063,0.19643 0.0095,0.0919 0.05069,0.14891 0.04119,0.057 0.139404,0.057 z"
         style="font-style:normal;font-variant:normal;font-weight:normal;font-stretch:normal;font-family:Oswald;-inkscape-font-specification:Oswald;fill:#ff9a2a;fill-opacity:1;stroke-width:0.11881045"
         id="path945"
         inkscape:connector-curvature="0" />
    </g>
    <path
       id="path1160"
       d="m 9.0957063,291.24561 -0.1265072,0.47212 c -0.012899,0.0481 -0.062253,0.0766 -0.1103753,0.0637 l -1.1367777,-0.30461 c -0.04813,-0.0129 -0.076647,-0.0623 -0.063728,-0.11039 l 0.1265067,-0.47212 c 0.051316,-0.1915 0.2486949,-0.30546 0.4408533,-0.25452 l 0.6155023,0.16493 c 0.1921561,0.0509 0.3061149,0.24831 0.2545263,0.44084 z m -1.5460542,0.52643 -0.7206124,2.68936 0.3178048,0.86834 c 0.042645,0.11734 0.1887251,0.15593 0.2847061,0.0763 l 0.7090198,-0.59375 0.7206141,-2.68935 c 0.012903,-0.0481 -0.015614,-0.0975 -0.063728,-0.11038 l -1.1367787,-0.30459 c -0.048774,-0.0124 -0.098122,0.016 -0.1110255,0.064 z m -0.1394519,2.15904 c -0.056312,-0.0151 -0.089316,-0.0722 -0.074223,-0.12855 l 0.4225986,-1.57716 c 0.015108,-0.0564 0.072245,-0.0893 0.1285554,-0.0742 0.056312,0.0151 0.089316,0.0722 0.074223,0.12854 l -0.4225981,1.57717 c -0.015109,0.0564 -0.072244,0.0893 -0.1285559,0.0742 z m 0.080864,0.68135 0.3116499,-0.17992 0.1360749,0.23569 -0.3764228,0.31515 -0.3185014,-0.0853 -0.1684143,-0.46114 0.2356837,-0.13607 z"
       inkscape:connector-curvature="0"
       style="fill:#ffffff;fill-opacity:1;stroke-width:0.00749712" />
    <path
       style="fill:#ffffff;fill-opacity:1;stroke-width:0.00749712"
       inkscape:connector-curvature="0"
       d="m 2.630081,291.24561 0.1265072,0.47212 c 0.012899,0.0481 0.062253,0.0766 0.1103751,0.0637 l 1.1367777,-0.30461 c 0.04813,-0.0129 0.076647,-0.0623 0.063728,-0.11039 l -0.1265067,-0.47212 c -0.051316,-0.1915 -0.2486948,-0.30546 -0.4408533,-0.25452 l -0.6155023,0.16493 c -0.1921558,0.0509 -0.3061146,0.24831 -0.254526,0.44084 z m 1.546054,0.52643 0.7206128,2.68936 -0.3851677,1.28 c -0.042645,0.11734 -0.188725,0.15593 -0.284706,0.0763 l -0.6416574,-1.00541 -0.7206141,-2.68935 c -0.012903,-0.0481 0.015614,-0.0975 0.063728,-0.11038 l 1.1367787,-0.30459 c 0.048774,-0.0124 0.098122,0.016 0.1110255,0.064 z m 0.1394519,2.15904 c 0.056312,-0.0151 0.089316,-0.0722 0.074223,-0.12855 l -0.4225986,-1.57716 c -0.015108,-0.0564 -0.072245,-0.0893 -0.1285554,-0.0742 -0.056312,0.0151 -0.089316,0.0722 -0.074223,0.12854 l 0.4225981,1.57717 c 0.015109,0.0564 0.072244,0.0893 0.1285559,0.0742 z m -0.080864,0.68135 -0.3116498,-0.17992 -0.1360749,0.23569 0.3764228,0.31515 0.3185014,-0.0853 0.1684143,-0.46114 -0.2356838,-0.13607 z"
       id="path1171"
       sodipodi:nodetypes="ccccccccccccccccccccscccccscccccccc" />
    <g
       id="g1635">
      <path
         style="color:#000000;font-style:normal;font-variant:normal;font-weight:normal;font-stretch:normal;font-size:medium;line-height:normal;font-family:sans-serif;font-variant-ligatures:normal;font-variant-position:normal;font-variant-caps:normal;font-variant-numeric:normal;font-variant-alternates:normal;font-feature-settings:normal;text-indent:0;text-align:start;text-decoration:none;text-decoration-line:none;text-decoration-style:solid;text-decoration-color:#000000;letter-spacing:normal;word-spacing:normal;text-transform:none;writing-mode:lr-tb;direction:ltr;text-orientation:mixed;dominant-baseline:auto;baseline-shift:baseline;text-anchor:start;white-space:normal;shape-padding:0;clip-rule:nonzero;display:inline;overflow:visible;visibility:visible;opacity:1;isolation:auto;mix-blend-mode:normal;color-interpolation:sRGB;color-interpolation-filters:linearRGB;solid-color:#000000;solid-opacity:1;vector-effect:none;fill:#ffffff;fill-opacity:1;fill-rule:nonzero;stroke:none;stroke-width:0.26458332;stroke-linecap:butt;stroke-linejoin:miter;stroke-miterlimit:4;stroke-dasharray:none;stroke-dashoffset:0;stroke-opacity:1;color-rendering:auto;image-rendering:auto;shape-rendering:auto;text-rendering:auto;enable-background:accumulate"
         d="m 4.3496094,295.59375 v 0.26563 H 26.683594 v -0.26563 z"
         id="path1175"
         inkscape:connector-curvature="0" />
      <path
         style="fill:#ffffff;fill-opacity:1;fill-rule:evenodd;stroke:#ffffff;stroke-width:0.05291666pt;stroke-opacity:1"
         d="m 26.366517,295.72669 -0.264583,0.26458 0.926041,-0.26458 -0.926041,-0.26458 z"
         id="path1641"
         inkscape:connector-curvature="0" />
    </g>
    <path
       id="path1173"
       d="m 5.1845986,291.01496 3.4e-6,0.48877 c 1.86e-5,0.0498 0.040295,0.0901 0.090121,0.0901 l 1.1768811,-1e-5 c 0.049819,4e-5 0.090167,-0.0403 0.090127,-0.0901 l -3e-6,-0.48877 c -3.5e-6,-0.19826 -0.16116,-0.35943 -0.3599555,-0.35995 H 5.5445558 c -0.1987912,-5.3e-4 -0.3599508,0.16062 -0.3599521,0.35995 z m 1.3571244,0.90863 2e-6,2.78423 -0.5317194,0.7565 c -0.071562,0.1023 -0.2226533,0.10177 -0.2947602,4e-5 l -0.5311866,-0.75702 -3.3e-6,-2.78423 c -2.21e-5,-0.0498 0.040318,-0.0901 0.090125,-0.0901 l 1.1768783,10e-6 c 0.050327,6.3e-4 0.090651,0.0408 0.090673,0.0906 z m -0.4241009,2.12158 c 0.058293,1e-5 0.1049722,-0.0467 0.1049669,-0.10497 l -1.6e-6,-1.6328 c -3.1e-6,-0.0583 -0.046665,-0.10497 -0.1049638,-0.10496 -0.058293,-2e-5 -0.1049724,0.0467 -0.104965,0.10496 l -9e-7,1.6328 c 3.8e-6,0.0584 0.046666,0.10497 0.1049644,0.10497 z m -0.2544557,0.6372 -0.2544628,-0.25445 -0.1924387,0.19243 0.2820304,0.40184 0.329738,-1e-5 0.2820269,-0.40183 -0.1924342,-0.19244 z"
       inkscape:connector-curvature="0"
       style="fill:#ffffff;fill-opacity:1;stroke-width:0.00749712" />
    <g
       aria-label="R"
       style="font-style:normal;font-variant:normal;font-weight:normal;font-stretch:normal;font-size:4.52310371px;line-height:1.25;font-family:'DIN Condensed';-inkscape-font-specification:'DIN Condensed, ';letter-spacing:0px;word-spacing:0px;fill:#ff9a2a;fill-opacity:1;stroke:none;stroke-width:0.16961639"
       id="text837"
       transform="matrix(2.0922586,0,0,2.0922586,-6.8293543,-320.00023)">
      <path
         d="m 8.5030628,294.82684 v -3.66371 h 0.7372659 q 0.3663714,0 0.6060959,0.0995 0.2397244,0.095 0.3528024,0.31209 0.1176,0.21259 0.1176,0.56087 0,0.21258 -0.04523,0.38898 -0.04523,0.17188 -0.144739,0.29401 -0.09951,0.1176 -0.26234,0.17187 l 0.520157,1.83638 H 9.8916556 l -0.479449,-1.71878 H 9.0141735 v 1.71878 z m 0.5111107,-2.08515 h 0.1944934 q 0.217109,0 0.3528021,-0.0543 0.1356931,-0.0543 0.1990166,-0.18545 0.063323,-0.13117 0.063323,-0.36637 0,-0.32114 -0.1176007,-0.46136 Q 9.5886076,291.5295 9.2403287,291.5295 H 9.0141735 Z"
         style="font-style:normal;font-variant:normal;font-weight:normal;font-stretch:normal;font-family:Oswald;-inkscape-font-specification:Oswald;fill:#ff9a2a;fill-opacity:1;stroke-width:0.16961639"
         id="path948"
         inkscape:connector-curvature="0" />
    </g>
  </g>
</svg>
