<?xml version="1.0" encoding="UTF-8" standalone="no"?>
<!-- Generator: Adobe Illustrator 16.0.0, SVG Export Plug-In . SVG Version: 6.00 Build 0)  -->

<svg
   xmlns:dc="http://purl.org/dc/elements/1.1/"
   xmlns:cc="http://creativecommons.org/ns#"
   xmlns:rdf="http://www.w3.org/1999/02/22-rdf-syntax-ns#"
   xmlns:svg="http://www.w3.org/2000/svg"
   xmlns="http://www.w3.org/2000/svg"
   xmlns:sodipodi="http://sodipodi.sourceforge.net/DTD/sodipodi-0.dtd"
   xmlns:inkscape="http://www.inkscape.org/namespaces/inkscape"
   version="1.1"
   id="Capa_1"
   x="0px"
   y="0px"
   width="32"
   height="32"
   viewBox="0 0 32 32"
   xml:space="preserve"
   sodipodi:docname="office_icon.svg"
   inkscape:version="0.92.2 5c3e80d, 2017-08-06"><metadata
     id="metadata57"><rdf:RDF><cc:Work
         rdf:about=""><dc:format>image/svg+xml</dc:format><dc:type
           rdf:resource="http://purl.org/dc/dcmitype/StillImage" /><dc:title></dc:title></cc:Work></rdf:RDF></metadata><defs
     id="defs55" /><sodipodi:namedview
     pagecolor="#ffffff"
     bordercolor="#666666"
     borderopacity="1"
     objecttolerance="10"
     gridtolerance="10"
     guidetolerance="10"
     inkscape:pageopacity="0"
     inkscape:pageshadow="2"
     inkscape:window-width="1920"
     inkscape:window-height="1035"
     id="namedview53"
     showgrid="false"
     inkscape:showpageshadow="false"
     inkscape:zoom="10.095237"
     inkscape:cx="44.931632"
     inkscape:cy="20.31156"
     inkscape:window-x="0"
     inkscape:window-y="1"
     inkscape:window-maximized="1"
     inkscape:current-layer="Capa_1" /><g
     id="g22"
     transform="translate(0,-457.76599)" /><g
     id="g24"
     transform="translate(0,-457.76599)" /><g
     id="g26"
     transform="translate(0,-457.76599)" /><g
     id="g28"
     transform="translate(0,-457.76599)" /><g
     id="g30"
     transform="translate(0,-457.76599)" /><g
     id="g32"
     transform="translate(0,-457.76599)" /><g
     id="g34"
     transform="translate(0,-457.76599)" /><g
     id="g36"
     transform="translate(0,-457.76599)" /><g
     id="g38"
     transform="translate(0,-457.76599)" /><g
     id="g40"
     transform="translate(0,-457.76599)" /><g
     id="g42"
     transform="translate(0,-457.76599)" /><g
     id="g44"
     transform="translate(0,-457.76599)" /><g
     id="g46"
     transform="translate(0,-457.76599)" /><g
     id="g48"
     transform="translate(0,-457.76599)" /><g
     id="g50"
     transform="translate(0,-457.76599)" /><g
     id="g154"
     transform="matrix(0.03934386,0,0,0.03934386,-31.544825,4.838524)" /><g
     id="g156"
     transform="matrix(0.03934386,0,0,0.03934386,-31.544825,4.838524)" /><g
     id="g158"
     transform="matrix(0.03934386,0,0,0.03934386,-31.544825,4.838524)" /><g
     id="g160"
     transform="matrix(0.03934386,0,0,0.03934386,-31.544825,4.838524)" /><g
     id="g162"
     transform="matrix(0.03934386,0,0,0.03934386,-31.544825,4.838524)" /><g
     id="g164"
     transform="matrix(0.03934386,0,0,0.03934386,-31.544825,4.838524)" /><g
     id="g166"
     transform="matrix(0.03934386,0,0,0.03934386,-31.544825,4.838524)" /><g
     id="g168"
     transform="matrix(0.03934386,0,0,0.03934386,-31.544825,4.838524)" /><g
     id="g170"
     transform="matrix(0.03934386,0,0,0.03934386,-31.544825,4.838524)" /><g
     id="g172"
     transform="matrix(0.03934386,0,0,0.03934386,-31.544825,4.838524)" /><g
     id="g174"
     transform="matrix(0.03934386,0,0,0.03934386,-31.544825,4.838524)" /><g
     id="g176"
     transform="matrix(0.03934386,0,0,0.03934386,-31.544825,4.838524)" /><g
     id="g178"
     transform="matrix(0.03934386,0,0,0.03934386,-31.544825,4.838524)" /><g
     id="g180"
     transform="matrix(0.03934386,0,0,0.03934386,-31.544825,4.838524)" /><g
     id="g182"
     transform="matrix(0.03934386,0,0,0.03934386,-31.544825,4.838524)" /><g
     id="g487"
     transform="matrix(0.07197111,0,0,0.07197111,-55.236653,3.3444031)" /><g
     id="g489"
     transform="matrix(0.07197111,0,0,0.07197111,-55.236653,3.3444031)" /><g
     id="g491"
     transform="matrix(0.07197111,0,0,0.07197111,-55.236653,3.3444031)" /><g
     id="g493"
     transform="matrix(0.07197111,0,0,0.07197111,-55.236653,3.3444031)" /><g
     id="g495"
     transform="matrix(0.07197111,0,0,0.07197111,-55.236653,3.3444031)" /><g
     id="g497"
     transform="matrix(0.07197111,0,0,0.07197111,-55.236653,3.3444031)" /><g
     id="g499"
     transform="matrix(0.07197111,0,0,0.07197111,-55.236653,3.3444031)" /><g
     id="g501"
     transform="matrix(0.07197111,0,0,0.07197111,-55.236653,3.3444031)" /><g
     id="g503"
     transform="matrix(0.07197111,0,0,0.07197111,-55.236653,3.3444031)" /><g
     id="g505"
     transform="matrix(0.07197111,0,0,0.07197111,-55.236653,3.3444031)" /><g
     id="g507"
     transform="matrix(0.07197111,0,0,0.07197111,-55.236653,3.3444031)" /><g
     id="g509"
     transform="matrix(0.07197111,0,0,0.07197111,-55.236653,3.3444031)" /><g
     id="g511"
     transform="matrix(0.07197111,0,0,0.07197111,-55.236653,3.3444031)" /><g
     id="g513"
     transform="matrix(0.07197111,0,0,0.07197111,-55.236653,3.3444031)" /><g
     id="g515"
     transform="matrix(0.07197111,0,0,0.07197111,-55.236653,3.3444031)" /><g
     id="g1837"
     transform="translate(-46.046499,2.9864759)"><polygon
       transform="matrix(0.06521739,0,0,0.06521739,46.501688,-1.9864757)"
       id="XMLID_1285_"
       style="fill:#a0815c;fill-opacity:1"
       points="430,425 460,425 460,125 310,125 220,125 220,185 310,185 400,185 430,185 " /><path
       inkscape:connector-curvature="0"
       id="XMLID_54_"
       style="fill:#acabb1;stroke-width:0.06521739"
       d="m 68.786963,24.426567 h 1.663108 c -0.02139,-0.105326 -0.03267,-0.214369 -0.03267,-0.326087 0,-0.900456 0.729979,-1.630434 1.630435,-1.630434 h -3.260869 z" /><path
       inkscape:connector-curvature="0"
       id="XMLID_53_"
       style="fill:#acabb1;stroke-width:0.06521739"
       d="m 66.830441,22.470046 h -3.260869 c 0.900456,0 1.630434,0.729978 1.630434,1.630434 0,0.111718 -0.01128,0.220761 -0.03267,0.326087 h 1.663109 z" /><polygon
       transform="matrix(0.06521739,0,0,0.06521739,47.591311,-1.9864756)"
       id="XMLID_1273_"
       style="fill:#acabb1"
       points="325,265 325,235 310,235 295,235 295,265 " /><rect
       id="XMLID_1274_"
       x="66.830444"
       y="17.904829"
       style="fill:#acabb1;stroke-width:0.06521739"
       width="1.9565217"
       height="4.5652175" /><polygon
       transform="matrix(0.06521739,0,0,0.06521739,47.591311,-1.9864756)"
       id="XMLID_1275_"
       style="fill:#565659"
       points="295,405 295,425 325,425 325,405 325,375 295,375 " /><polygon
       transform="matrix(0.06521739,0,0,0.10869565,47.591311,-3.5082147)"
       id="XMLID_49_"
       style="fill:#e9c6af"
       points="230,35 220,125 310,125 310,35 " /><polygon
       transform="matrix(0.06521739,0,0,0.06521739,47.591311,-1.9864756)"
       id="XMLID_1276_"
       style="fill:#e9c6af"
       points="220,235 295,235 310,235 310,185 220,185 " /><polygon
       transform="matrix(0.06521739,0,0,0.06521739,47.591311,-1.9864756)"
       id="XMLID_1277_"
       style="fill:#c87137"
       points="400,235 400,185 310,185 310,235 325,235 " /><polygon
       transform="matrix(0.06521739,0,0,0.10869565,47.591311,-3.5082147)"
       id="XMLID_46_"
       style="fill:#c87137"
       points="390,35 310,35 310,125 400,125 " /><polygon
       transform="matrix(0.06521739,0,0,0.06521739,47.591311,-1.9864756)"
       id="XMLID_1278_"
       style="fill:#c87137"
       points="400,305 400,265 325,265 295,265 220,265 220,305 295,305 325,305 " /><path
       inkscape:connector-curvature="0"
       id="XMLID_1279_"
       style="fill:#565659;stroke-width:0.06521739"
       d="m 63.569572,22.470046 c -0.900457,0 -1.630435,0.729978 -1.630435,1.630434 0,0.900457 0.729978,1.630435 1.630435,1.630435 0.788739,0 1.446652,-0.560217 1.59776,-1.304348 0.02139,-0.105326 0.03267,-0.214369 0.03267,-0.326087 0,-0.900456 -0.729978,-1.630434 -1.630434,-1.630434 z" /><path
       inkscape:connector-curvature="0"
       id="XMLID_1280_"
       style="fill:#565659;stroke-width:0.06521739"
       d="m 70.417397,24.10048 c 0,0.111718 0.01128,0.220761 0.03267,0.326087 0.151109,0.744131 0.809022,1.304348 1.597761,1.304348 0.900457,0 1.630435,-0.729978 1.630435,-1.630435 0,-0.900456 -0.729978,-1.630434 -1.630435,-1.630434 -0.900456,0 -1.630435,0.729978 -1.630435,1.630434 z" /><path
       inkscape:connector-curvature="0"
       id="XMLID_1281_"
       style="fill:#a0815c;stroke-width:0.06521739"
       d="M 47.591311,6.1656981 V 25.730915 h 1.956522 V 23.774524 H 59.982615 V 10.078742 h 1.956522 V 6.1656981 Z M 58.026093,21.817872 h -8.47826 v -5.869565 h 8.47826 z m 0,-7.826087 h -8.47826 V 8.1222199 h 8.47826 z" /><path
       inkscape:connector-curvature="0"
       id="XMLID_1286_"
       style="fill:#b39a7d;stroke-width:0.06521739"
       d="m 49.547833,8.1222199 v 5.8695651 h 8.47826 V 8.1222199 Z m 6.521739,3.9130431 h -4.565218 v -1.956521 h 4.565218 z" /><rect
       id="XMLID_1289_"
       x="51.504353"
       y="10.078741"
       style="fill:#50412e;stroke-width:0.06521739"
       width="4.5652175"
       height="1.9565217" /><path
       inkscape:connector-curvature="0"
       id="XMLID_1290_"
       style="fill:#b39a7d;stroke-width:0.06521739"
       d="m 49.547833,21.817872 h 8.47826 v -5.869565 h -8.47826 z m 1.956521,-3.913044 h 4.565218 v 1.956522 h -4.565218 z" /><rect
       id="XMLID_1293_"
       x="51.504353"
       y="17.904829"
       style="fill:#50412e;stroke-width:0.06521739"
       width="4.5652175"
       height="1.9565217" /></g></svg>