<?xml version="1.0" encoding="UTF-8" standalone="no"?>
<!-- Created with Inkscape (http://www.inkscape.org/) -->

<svg
   xmlns:dc="http://purl.org/dc/elements/1.1/"
   xmlns:cc="http://creativecommons.org/ns#"
   xmlns:rdf="http://www.w3.org/1999/02/22-rdf-syntax-ns#"
   xmlns:svg="http://www.w3.org/2000/svg"
   xmlns="http://www.w3.org/2000/svg"
   xmlns:sodipodi="http://sodipodi.sourceforge.net/DTD/sodipodi-0.dtd"
   xmlns:inkscape="http://www.inkscape.org/namespaces/inkscape"
   width="680.31494"
   height="18"
   viewBox="0 0 180 4.7625004"
   version="1.1"
   id="svg8"
   inkscape:version="0.92.2 5c3e80d, 2017-08-06"
   sodipodi:docname="pdf_header.svg">
  <defs
     id="defs2">
    <marker
       inkscape:isstock="true"
       style="overflow:visible"
       id="Arrow1Send"
       refX="0"
       refY="0"
       orient="auto"
       inkscape:stockid="Arrow1Send">
      <path
         inkscape:connector-curvature="0"
         transform="matrix(-0.2,0,0,-0.2,-1.2,0)"
         style="fill:#ffffff;fill-opacity:1;fill-rule:evenodd;stroke:#ffffff;stroke-width:1.00000003pt;stroke-opacity:1"
         d="M 0,0 5,-5 -12.5,0 5,5 Z"
         id="path1192" />
    </marker>
    <marker
       inkscape:isstock="true"
       style="overflow:visible"
       id="Arrow1Mend"
       refX="0"
       refY="0"
       orient="auto"
       inkscape:stockid="Arrow1Mend">
      <path
         inkscape:connector-curvature="0"
         transform="matrix(-0.4,0,0,-0.4,-4,0)"
         style="fill:#000000;fill-opacity:1;fill-rule:evenodd;stroke:#000000;stroke-width:1.00000003pt;stroke-opacity:1"
         d="M 0,0 5,-5 -12.5,0 5,5 Z"
         id="path1186" />
    </marker>
  </defs>
  <sodipodi:namedview
     id="base"
     pagecolor="#ffffff"
     bordercolor="#666666"
     borderopacity="1.0"
     inkscape:pageopacity="0.0"
     inkscape:pageshadow="2"
     inkscape:zoom="2.0093635"
     inkscape:cx="340.15747"
     inkscape:cy="9"
     inkscape:document-units="px"
     inkscape:current-layer="layer1"
     showgrid="false"
     inkscape:showpageshadow="false"
     inkscape:window-width="1920"
     inkscape:window-height="1035"
     inkscape:window-x="0"
     inkscape:window-y="1"
     inkscape:window-maximized="1"
     units="px" />
  <metadata
     id="metadata5">
    <rdf:RDF>
      <cc:Work
         rdf:about="">
        <dc:format>image/svg+xml</dc:format>
        <dc:type
           rdf:resource="http://purl.org/dc/dcmitype/StillImage" />
        <dc:title />
      </cc:Work>
    </rdf:RDF>
  </metadata>
  <g
     inkscape:label="Livello 1"
     inkscape:groupmode="layer"
     id="layer1"
     transform="translate(0,-292.2375)">
    <g
       id="g916"
       transform="matrix(0.1452037,0,0,0.1452037,2.1297859,253.51386)"
       style="fill:#29487d;fill-opacity:1">
      <g
         transform="matrix(5.5088198,0,0,5.5088198,-26.859995,-1334.4124)"
         id="text841"
         style="font-style:normal;font-variant:normal;font-weight:normal;font-stretch:normal;font-size:3.16827893px;line-height:1.25;font-family:'DIN Condensed';-inkscape-font-specification:'DIN Condensed, ';letter-spacing:0px;word-spacing:0px;fill:#29487d;fill-opacity:1;stroke:none;stroke-width:0.11881045"
         aria-label="tino">
        <path
           inkscape:connector-curvature="0"
           id="path939"
           style="font-style:normal;font-variant:normal;font-weight:normal;font-stretch:normal;font-family:Oswald;-inkscape-font-specification:Oswald;fill:#29487d;fill-opacity:1;stroke-width:0.11881045"
           d="m 11.731022,294.83653 q -0.142573,0 -0.231285,-0.0539 -0.08554,-0.0539 -0.126731,-0.15207 -0.03802,-0.0982 -0.03802,-0.23129 v -1.19444 h -0.193265 v -0.22495 h 0.193265 v -0.53544 h 0.339006 v 0.53544 h 0.29465 v 0.22495 h -0.29465 v 1.17226 q 0,0.10773 0.03485,0.15525 0.03485,0.0444 0.133067,0.0444 0.02535,0 0.05703,-0.003 0.03485,-0.003 0.06653,-0.006 v 0.25029 q -0.06337,0.01 -0.117226,0.0127 -0.05386,0.006 -0.117226,0.006 z" />
        <path
           inkscape:connector-curvature="0"
           id="path941"
           style="font-style:normal;font-variant:normal;font-weight:normal;font-stretch:normal;font-family:Oswald;-inkscape-font-specification:Oswald;fill:#29487d;fill-opacity:1;stroke-width:0.11881045"
           d="m 12.242996,294.81119 v -1.83127 h 0.339006 v 1.83127 z m 0,-2.10374 v -0.35485 h 0.339006 v 0.35485 z" />
        <path
           inkscape:connector-curvature="0"
           id="path943"
           style="font-style:normal;font-variant:normal;font-weight:normal;font-stretch:normal;font-family:Oswald;-inkscape-font-specification:Oswald;fill:#29487d;fill-opacity:1;stroke-width:0.11881045"
           d="m 12.944819,294.81119 v -1.83127 h 0.339006 v 0.18059 q 0.09188,-0.0855 0.20277,-0.14574 0.110889,-0.0602 0.243957,-0.0602 0.11089,0 0.167919,0.057 0.0602,0.057 0.08237,0.14257 0.02535,0.0855 0.02535,0.17425 v 1.48276 h -0.339005 v -1.38454 q 0,-0.0982 -0.02852,-0.15208 -0.02851,-0.0539 -0.117226,-0.0539 -0.05703,0 -0.120395,0.0349 -0.0602,0.0317 -0.117226,0.0792 v 1.47642 z" />
        <path
           inkscape:connector-curvature="0"
           id="path945"
           style="font-style:normal;font-variant:normal;font-weight:normal;font-stretch:normal;font-family:Oswald;-inkscape-font-specification:Oswald;fill:#29487d;fill-opacity:1;stroke-width:0.11881045"
           d="m 14.840885,294.83653 q -0.20277,0 -0.319996,-0.0824 -0.117226,-0.0824 -0.167919,-0.23445 -0.04752,-0.15208 -0.04752,-0.35802 v -0.53227 q 0,-0.20594 0.04752,-0.35802 0.05069,-0.15207 0.167919,-0.23445 0.117226,-0.0824 0.319996,-0.0824 0.20277,0 0.316828,0.0824 0.117226,0.0824 0.164751,0.23445 0.05069,0.15208 0.05069,0.35802 v 0.53227 q 0,0.20594 -0.05069,0.35802 -0.04753,0.15207 -0.164751,0.23445 -0.114058,0.0824 -0.316828,0.0824 z m 0,-0.25029 q 0.09822,0 0.136236,-0.057 0.04119,-0.057 0.04752,-0.14891 0.0095,-0.095 0.0095,-0.19643 v -0.57346 q 0,-0.10455 -0.0095,-0.19643 -0.0063,-0.0919 -0.04752,-0.14891 -0.03802,-0.0602 -0.136236,-0.0602 -0.09822,0 -0.139404,0.0602 -0.04119,0.057 -0.05069,0.14891 -0.0063,0.0919 -0.0063,0.19643 v 0.57346 q 0,0.10138 0.0063,0.19643 0.0095,0.0919 0.05069,0.14891 0.04119,0.057 0.139404,0.057 z" />
      </g>
      <g
         transform="matrix(5.5088198,0,0,5.5088198,-23.311566,-1330.1956)"
         id="text837"
         style="font-style:normal;font-variant:normal;font-weight:normal;font-stretch:normal;font-size:4.52310371px;line-height:1.25;font-family:'DIN Condensed';-inkscape-font-specification:'DIN Condensed, ';letter-spacing:0px;word-spacing:0px;fill:#29487d;fill-opacity:1;stroke:none;stroke-width:0.16961639"
         aria-label="R">
        <path
           inkscape:connector-curvature="0"
           id="path948"
           style="font-style:normal;font-variant:normal;font-weight:normal;font-stretch:normal;font-family:Oswald;-inkscape-font-specification:Oswald;fill:#29487d;fill-opacity:1;stroke-width:0.16961639"
           d="m 8.5030628,294.82684 v -3.66371 h 0.7372659 q 0.3663714,0 0.6060959,0.0995 0.2397244,0.095 0.3528024,0.31209 0.1176,0.21259 0.1176,0.56087 0,0.21258 -0.04523,0.38898 -0.04523,0.17188 -0.144739,0.29401 -0.09951,0.1176 -0.26234,0.17187 l 0.520157,1.83638 H 9.8916556 l -0.479449,-1.71878 H 9.0141735 v 1.71878 z m 0.5111107,-2.08515 h 0.1944934 q 0.217109,0 0.3528021,-0.0543 0.1356931,-0.0543 0.1990166,-0.18545 0.063323,-0.13117 0.063323,-0.36637 0,-0.32114 -0.1176007,-0.46136 Q 9.5886076,291.5295 9.2403287,291.5295 H 9.0141735 Z" />
      </g>
    </g>
    <path
       style="color:#000000;font-style:normal;font-variant:normal;font-weight:normal;font-stretch:normal;font-size:medium;line-height:normal;font-family:sans-serif;font-variant-ligatures:normal;font-variant-position:normal;font-variant-caps:normal;font-variant-numeric:normal;font-variant-alternates:normal;font-feature-settings:normal;text-indent:0;text-align:start;text-decoration:none;text-decoration-line:none;text-decoration-style:solid;text-decoration-color:#000000;letter-spacing:normal;word-spacing:normal;text-transform:none;writing-mode:lr-tb;direction:ltr;text-orientation:mixed;dominant-baseline:auto;baseline-shift:baseline;text-anchor:start;white-space:normal;shape-padding:0;clip-rule:nonzero;display:inline;overflow:visible;visibility:visible;opacity:1;isolation:auto;mix-blend-mode:normal;color-interpolation:sRGB;color-interpolation-filters:linearRGB;solid-color:#000000;solid-opacity:1;vector-effect:none;fill:#29487d;fill-opacity:1;fill-rule:nonzero;stroke:none;stroke-width:0.16348077;stroke-linecap:square;stroke-linejoin:miter;stroke-miterlimit:4;stroke-dasharray:none;stroke-dashoffset:0;stroke-opacity:1;color-rendering:auto;image-rendering:auto;shape-rendering:auto;text-rendering:auto;enable-background:accumulate"
       d="m 2.99657,293.17534 c -0.9455848,-1e-5 -1.713893,0.7683 -1.7138933,1.71389 -5e-7,0.94558 0.768308,1.71389 1.7138933,1.71389 0.9455851,0 1.7138939,-0.76831 1.7138931,-1.71389 0,-0.94559 -0.7683083,-1.7139 -1.7138931,-1.71389 z m 0,0.16364 c 0.8572332,0 1.5504929,0.69302 1.5504929,1.55025 4e-7,0.85723 -0.6932593,1.55049 -1.5504929,1.55049 -0.8572337,0 -1.550252,-0.69326 -1.5502516,-1.55049 3e-7,-0.85723 0.6930183,-1.55025 1.5502516,-1.55025 z"
       id="path885"
       inkscape:connector-curvature="0" />
    <path
       style="fill:#ffc403;fill-opacity:1;stroke:none;stroke-width:0.03269616px;stroke-linecap:butt;stroke-linejoin:miter;stroke-opacity:1"
       d="m 1.0583351,296.07024 c 1.2975783,-2.61906 2.614013,-3.22944 4.3502513,-3.43587 -0.7141928,0.58208 -0.6857972,1.01533 -0.2078145,1.62095 -1.4908787,-0.55381 -3.2506711,0.60537 -4.1424368,1.81492 z"
       id="path900"
       inkscape:connector-curvature="0"
       sodipodi:nodetypes="cccc" />
    <g
       aria-label="Rapporti di Assistenza"
       style="font-style:normal;font-variant:normal;font-weight:normal;font-stretch:normal;font-size:2.3812499px;line-height:1.25;font-family:Oswald;-inkscape-font-specification:Oswald;letter-spacing:0px;word-spacing:0px;fill:#29487d;fill-opacity:1;stroke:none;stroke-width:0.08929688"
       id="text1066">
      <path
         d="m 78.197588,295.35696 v -1.92881 h 0.388144 q 0.192881,0 0.319087,0.0524 0.126206,0.05 0.185738,0.16431 0.06191,0.11191 0.06191,0.29527 0,0.11192 -0.02381,0.20479 -0.02381,0.0905 -0.0762,0.15478 -0.05239,0.0619 -0.138113,0.0905 l 0.273844,0.96678 h -0.259556 l -0.252413,-0.90487 h -0.20955 v 0.90487 z m 0.269081,-1.09775 h 0.102394 q 0.1143,0 0.185737,-0.0286 0.07144,-0.0286 0.104775,-0.0976 0.03334,-0.0691 0.03334,-0.19288 0,-0.16907 -0.06191,-0.24289 -0.06191,-0.0762 -0.245268,-0.0762 h -0.119063 z"
         style="fill:#29487d;fill-opacity:1;stroke-width:0.08929688"
         id="path1105" />
      <path
         d="m 79.660941,295.37601 q -0.08096,0 -0.142875,-0.0452 -0.06191,-0.0476 -0.09763,-0.11906 -0.03572,-0.0738 -0.03572,-0.15478 0,-0.12859 0.04286,-0.2167 0.04286,-0.0881 0.116681,-0.14763 0.0762,-0.0619 0.173831,-0.10716 0.100013,-0.0452 0.20955,-0.0881 v -0.0976 q 0,-0.0833 -0.0095,-0.13811 -0.0095,-0.0548 -0.04048,-0.081 -0.02858,-0.0286 -0.08811,-0.0286 -0.05239,0 -0.08573,0.0238 -0.03096,0.0238 -0.04524,0.0691 -0.01429,0.0429 -0.01429,0.10239 v 0.0691 l -0.252413,-0.01 q 0.0048,-0.2286 0.104775,-0.33576 0.100013,-0.10954 0.309563,-0.10954 0.204787,0 0.290512,0.11192 0.08572,0.11192 0.08572,0.32385 v 0.62865 q 0,0.0643 0.0024,0.12383 0.0048,0.0595 0.0095,0.11191 0.0071,0.05 0.01191,0.0953 h -0.233363 q -0.0071,-0.0381 -0.01905,-0.0953 -0.0095,-0.0595 -0.01429,-0.10715 -0.02381,0.081 -0.09287,0.1524 -0.06668,0.0691 -0.185737,0.0691 z m 0.100012,-0.21907 q 0.0381,0 0.07144,-0.0214 0.03334,-0.0214 0.05953,-0.0476 0.02619,-0.0286 0.03572,-0.0452 v -0.39053 q -0.05953,0.0333 -0.111918,0.0667 -0.05239,0.0333 -0.09287,0.0714 -0.0381,0.0357 -0.06191,0.0833 -0.02143,0.0452 -0.02143,0.10478 0,0.0833 0.03096,0.13096 0.03096,0.0476 0.09049,0.0476 z"
         style="fill:#29487d;fill-opacity:1;stroke-width:0.08929688"
         id="path1107" />
      <path
         d="m 80.427182,295.8094 v -1.8288 h 0.254794 v 0.10954 q 0.04524,-0.0524 0.109537,-0.0905 0.06429,-0.0381 0.1524,-0.0381 0.107156,0 0.169069,0.0572 0.06429,0.0548 0.09525,0.1405 0.03096,0.0833 0.04048,0.17145 0.0095,0.0857 0.0095,0.14763 v 0.33338 q 0,0.14525 -0.02858,0.27622 -0.02858,0.12859 -0.104775,0.20955 -0.07382,0.0786 -0.20955,0.0786 -0.07382,0 -0.130969,-0.0357 -0.05715,-0.0381 -0.102393,-0.0857 v 0.55483 z m 0.43815,-0.63341 q 0.06668,0 0.09525,-0.0476 0.02858,-0.05 0.03572,-0.13335 0.0071,-0.0833 0.0071,-0.18335 v -0.33338 q 0,-0.0857 -0.0095,-0.15716 -0.0095,-0.0738 -0.04048,-0.11668 -0.03096,-0.0429 -0.09763,-0.0429 -0.05001,0 -0.09525,0.0214 -0.04524,0.0214 -0.07858,0.05 v 0.88107 q 0.03572,0.0262 0.08096,0.0452 0.04524,0.0167 0.102394,0.0167 z"
         style="fill:#29487d;fill-opacity:1;stroke-width:0.08929688"
         id="path1109" />
      <path
         d="m 81.487582,295.8094 v -1.8288 h 0.254794 v 0.10954 q 0.04524,-0.0524 0.109538,-0.0905 0.06429,-0.0381 0.1524,-0.0381 0.107156,0 0.169068,0.0572 0.06429,0.0548 0.09525,0.1405 0.03096,0.0833 0.04048,0.17145 0.0095,0.0857 0.0095,0.14763 v 0.33338 q 0,0.14525 -0.02858,0.27622 -0.02858,0.12859 -0.104775,0.20955 -0.07382,0.0786 -0.20955,0.0786 -0.07382,0 -0.130969,-0.0357 -0.05715,-0.0381 -0.102394,-0.0857 v 0.55483 z m 0.43815,-0.63341 q 0.06668,0 0.09525,-0.0476 0.02857,-0.05 0.03572,-0.13335 0.0071,-0.0833 0.0071,-0.18335 v -0.33338 q 0,-0.0857 -0.0095,-0.15716 -0.0095,-0.0738 -0.04048,-0.11668 -0.03096,-0.0429 -0.09763,-0.0429 -0.05001,0 -0.09525,0.0214 -0.04524,0.0214 -0.07858,0.05 v 0.88107 q 0.03572,0.0262 0.08096,0.0452 0.04524,0.0167 0.102393,0.0167 z"
         style="fill:#29487d;fill-opacity:1;stroke-width:0.08929688"
         id="path1111" />
      <path
         d="m 82.926602,295.37601 q -0.1524,0 -0.240507,-0.0619 -0.08811,-0.0619 -0.126206,-0.17621 -0.03572,-0.1143 -0.03572,-0.26908 v -0.40005 q 0,-0.15478 0.03572,-0.26908 0.0381,-0.1143 0.126206,-0.17622 0.08811,-0.0619 0.240507,-0.0619 0.1524,0 0.238125,0.0619 0.08811,0.0619 0.123825,0.17622 0.0381,0.1143 0.0381,0.26908 v 0.40005 q 0,0.15478 -0.0381,0.26908 -0.03572,0.1143 -0.123825,0.17621 -0.08572,0.0619 -0.238125,0.0619 z m 0,-0.18811 q 0.07382,0 0.102393,-0.0429 0.03096,-0.0429 0.03572,-0.11192 0.0071,-0.0714 0.0071,-0.14763 v -0.43101 q 0,-0.0786 -0.0071,-0.14764 -0.0048,-0.0691 -0.03572,-0.11192 -0.02857,-0.0452 -0.102393,-0.0452 -0.07382,0 -0.104775,0.0452 -0.03096,0.0429 -0.0381,0.11192 -0.0048,0.0691 -0.0048,0.14764 v 0.43101 q 0,0.0762 0.0048,0.14763 0.0071,0.0691 0.0381,0.11192 0.03096,0.0429 0.104775,0.0429 z"
         style="fill:#29487d;fill-opacity:1;stroke-width:0.08929688"
         id="path1113" />
      <path
         d="m 83.569018,295.35696 v -1.37636 h 0.254794 v 0.19526 q 0.0762,-0.1262 0.1524,-0.16906 0.0762,-0.0429 0.1524,-0.0429 0.0095,0 0.01667,0 0.0095,0 0.02381,0.002 v 0.28099 q -0.02858,-0.0119 -0.06668,-0.019 -0.03572,-0.01 -0.07382,-0.01 -0.05953,0 -0.109537,0.0286 -0.04762,0.0262 -0.09525,0.10478 v 1.00488 z"
         style="fill:#29487d;fill-opacity:1;stroke-width:0.08929688"
         id="path1115" />
      <path
         d="m 84.691331,295.37601 q -0.107156,0 -0.173831,-0.0405 -0.06429,-0.0405 -0.09525,-0.1143 -0.02858,-0.0738 -0.02858,-0.17383 v -0.89773 h -0.145256 v -0.16907 h 0.145256 v -0.40243 h 0.254794 v 0.40243 h 0.221456 v 0.16907 h -0.221456 v 0.88106 q 0,0.081 0.02619,0.11668 0.02619,0.0333 0.100013,0.0333 0.01905,0 0.04286,-0.002 0.02619,-0.002 0.05001,-0.005 v 0.18812 q -0.04762,0.007 -0.08811,0.01 -0.04048,0.005 -0.08811,0.005 z"
         style="fill:#29487d;fill-opacity:1;stroke-width:0.08929688"
         id="path1117" />
      <path
         d="m 85.076126,295.35696 v -1.37636 h 0.254794 v 1.37636 z m 0,-1.58115 v -0.2667 h 0.254794 v 0.2667 z"
         style="fill:#29487d;fill-opacity:1;stroke-width:0.08929688"
         id="path1119" />
      <path
         d="m 86.466851,295.37601 q -0.173832,0 -0.259557,-0.1262 -0.08573,-0.12859 -0.08573,-0.43339 v -0.2667 q 0,-0.15716 0.02619,-0.29051 0.02619,-0.13573 0.09763,-0.2167 0.07382,-0.081 0.214313,-0.081 0.06906,0 0.126206,0.031 0.05715,0.031 0.102394,0.0762 v -0.64056 H 86.9431 v 1.92881 h -0.254793 v -0.0881 q -0.04524,0.0476 -0.100013,0.0786 -0.05239,0.0286 -0.121443,0.0286 z m 0.06429,-0.20002 q 0.03572,0 0.0762,-0.0119 0.04048,-0.0143 0.08096,-0.0405 v -0.90249 q -0.03334,-0.0238 -0.07382,-0.0405 -0.04048,-0.019 -0.08811,-0.019 -0.08811,0 -0.119063,0.0857 -0.03096,0.0833 -0.03096,0.20241 v 0.38814 q 0,0.0953 0.0095,0.17383 0.01191,0.0762 0.04524,0.12145 0.03334,0.0429 0.100012,0.0429 z"
         style="fill:#29487d;fill-opacity:1;stroke-width:0.08929688"
         id="path1121" />
      <path
         d="m 87.215531,295.35696 v -1.37636 h 0.254793 v 1.37636 z m 0,-1.58115 v -0.2667 h 0.254793 v 0.2667 z"
         style="fill:#29487d;fill-opacity:1;stroke-width:0.08929688"
         id="path1123" />
      <path
         d="m 88.203824,295.35696 0.409575,-1.92881 h 0.259556 l 0.411956,1.92881 h -0.254794 l -0.08811,-0.48577 h -0.392906 l -0.09287,0.48577 z m 0.381,-0.67865 h 0.321468 l -0.161925,-0.86916 z"
         style="fill:#29487d;fill-opacity:1;stroke-width:0.08929688"
         id="path1125" />
      <path
         d="m 89.778276,295.37601 q -0.169069,0 -0.271463,-0.10477 -0.102394,-0.10716 -0.116681,-0.28099 l 0.211931,-0.0643 q 0.01905,0.13097 0.06429,0.19764 0.04524,0.0643 0.13335,0.0643 0.06906,0 0.104775,-0.0381 0.03572,-0.0405 0.03572,-0.10716 0,-0.0595 -0.02619,-0.10716 -0.02619,-0.0476 -0.08572,-0.0976 l -0.235744,-0.2024 q -0.07144,-0.0619 -0.121444,-0.13812 -0.04762,-0.0762 -0.04762,-0.19764 0,-0.10954 0.04286,-0.18336 0.04524,-0.0762 0.123825,-0.1143 0.08096,-0.0405 0.188119,-0.0405 0.164306,0 0.250031,0.10716 0.08811,0.10477 0.100012,0.25479 l -0.17145,0.0643 q -0.0095,-0.0714 -0.02858,-0.12383 -0.01905,-0.0548 -0.05239,-0.0833 -0.03334,-0.031 -0.08811,-0.031 -0.06191,0 -0.100013,0.0429 -0.03572,0.0405 -0.03572,0.0976 0,0.0357 0.01429,0.0714 0.01667,0.0333 0.05477,0.0667 l 0.242887,0.22383 q 0.05001,0.0453 0.09287,0.0976 0.04524,0.0524 0.07382,0.11906 0.02858,0.0667 0.02858,0.15478 0,0.11668 -0.04763,0.19526 -0.04762,0.0786 -0.13335,0.11906 -0.08572,0.0381 -0.200025,0.0381 z"
         style="fill:#29487d;fill-opacity:1;stroke-width:0.08929688"
         id="path1127" />
      <path
         d="m 90.666594,295.37601 q -0.169069,0 -0.271463,-0.10477 -0.102393,-0.10716 -0.116681,-0.28099 l 0.211931,-0.0643 q 0.01905,0.13097 0.06429,0.19764 0.04524,0.0643 0.13335,0.0643 0.06906,0 0.104775,-0.0381 0.03572,-0.0405 0.03572,-0.10716 0,-0.0595 -0.02619,-0.10716 -0.02619,-0.0476 -0.08572,-0.0976 l -0.235744,-0.2024 q -0.07144,-0.0619 -0.121443,-0.13812 -0.04762,-0.0762 -0.04762,-0.19764 0,-0.10954 0.04286,-0.18336 0.04524,-0.0762 0.123825,-0.1143 0.08096,-0.0405 0.188119,-0.0405 0.164306,0 0.250031,0.10716 0.08811,0.10477 0.100013,0.25479 l -0.17145,0.0643 q -0.0095,-0.0714 -0.02857,-0.12383 -0.01905,-0.0548 -0.05239,-0.0833 -0.03334,-0.031 -0.08811,-0.031 -0.06191,0 -0.100013,0.0429 -0.03572,0.0405 -0.03572,0.0976 0,0.0357 0.01429,0.0714 0.01667,0.0333 0.05477,0.0667 l 0.242887,0.22383 q 0.05001,0.0453 0.09287,0.0976 0.04524,0.0524 0.07382,0.11906 0.02858,0.0667 0.02858,0.15478 0,0.11668 -0.04763,0.19526 -0.04762,0.0786 -0.13335,0.11906 -0.08572,0.0381 -0.200025,0.0381 z"
         style="fill:#29487d;fill-opacity:1;stroke-width:0.08929688"
         id="path1129" />
      <path
         d="m 91.252493,295.35696 v -1.37636 h 0.254794 v 1.37636 z m 0,-1.58115 v -0.2667 h 0.254794 v 0.2667 z"
         style="fill:#29487d;fill-opacity:1;stroke-width:0.08929688"
         id="path1131" />
      <path
         d="m 92.099064,295.37601 q -0.169069,0 -0.271462,-0.10477 -0.102394,-0.10716 -0.116682,-0.28099 l 0.211932,-0.0643 q 0.01905,0.13097 0.06429,0.19764 0.04524,0.0643 0.13335,0.0643 0.06906,0 0.104775,-0.0381 0.03572,-0.0405 0.03572,-0.10716 0,-0.0595 -0.02619,-0.10716 -0.02619,-0.0476 -0.08573,-0.0976 l -0.235743,-0.2024 q -0.07144,-0.0619 -0.121444,-0.13812 -0.04762,-0.0762 -0.04762,-0.19764 0,-0.10954 0.04286,-0.18336 0.04524,-0.0762 0.123825,-0.1143 0.08096,-0.0405 0.188119,-0.0405 0.164306,0 0.250031,0.10716 0.08811,0.10477 0.100013,0.25479 l -0.17145,0.0643 q -0.0095,-0.0714 -0.02858,-0.12383 -0.01905,-0.0548 -0.05239,-0.0833 -0.03334,-0.031 -0.08811,-0.031 -0.06191,0 -0.100012,0.0429 -0.03572,0.0405 -0.03572,0.0976 0,0.0357 0.01429,0.0714 0.01667,0.0333 0.05477,0.0667 l 0.242888,0.22383 q 0.05001,0.0453 0.09287,0.0976 0.04524,0.0524 0.07382,0.11906 0.02858,0.0667 0.02858,0.15478 0,0.11668 -0.04762,0.19526 -0.04762,0.0786 -0.13335,0.11906 -0.08572,0.0381 -0.200025,0.0381 z"
         style="fill:#29487d;fill-opacity:1;stroke-width:0.08929688"
         id="path1133" />
      <path
         d="m 93.035007,295.37601 q -0.107156,0 -0.173831,-0.0405 -0.06429,-0.0405 -0.09525,-0.1143 -0.02857,-0.0738 -0.02857,-0.17383 v -0.89773 h -0.145256 v -0.16907 h 0.145256 v -0.40243 h 0.254794 v 0.40243 h 0.221456 v 0.16907 h -0.221456 v 0.88106 q 0,0.081 0.02619,0.11668 0.02619,0.0333 0.100013,0.0333 0.01905,0 0.04286,-0.002 0.02619,-0.002 0.05001,-0.005 v 0.18812 q -0.04762,0.007 -0.08811,0.01 -0.04048,0.005 -0.08811,0.005 z"
         style="fill:#29487d;fill-opacity:1;stroke-width:0.08929688"
         id="path1135" />
      <path
         d="m 93.784133,295.37601 q -0.161925,0 -0.250031,-0.0619 -0.08811,-0.0643 -0.123825,-0.18574 -0.03334,-0.12382 -0.03334,-0.30241 v -0.31433 q 0,-0.18336 0.03572,-0.3048 0.03572,-0.12144 0.123825,-0.18336 0.09049,-0.0619 0.24765,-0.0619 0.173831,0 0.254794,0.0714 0.08334,0.0714 0.109537,0.20717 0.02619,0.13335 0.02619,0.32147 v 0.11192 h -0.542925 v 0.27622 q 0,0.0833 0.01429,0.13573 0.01667,0.0524 0.05001,0.0786 0.03572,0.0238 0.09049,0.0238 0.05715,0 0.08572,-0.0262 0.03096,-0.0286 0.04048,-0.0786 0.01191,-0.0524 0.01191,-0.12144 v -0.0833 h 0.24765 v 0.0524 q 0,0.20717 -0.08811,0.32623 -0.08811,0.11906 -0.300038,0.11906 z m -0.1524,-0.84058 h 0.292894 v -0.12382 q 0,-0.0857 -0.0095,-0.14288 -0.0095,-0.0595 -0.04048,-0.0881 -0.02858,-0.031 -0.09287,-0.031 -0.06191,0 -0.09525,0.0286 -0.03096,0.0286 -0.04286,0.0976 -0.01191,0.0667 -0.01191,0.18573 z"
         style="fill:#29487d;fill-opacity:1;stroke-width:0.08929688"
         id="path1137" />
      <path
         d="m 94.407724,295.35696 v -1.37636 h 0.254794 v 0.13573 q 0.06906,-0.0643 0.1524,-0.10953 0.08334,-0.0453 0.183356,-0.0453 0.08334,0 0.126206,0.0429 0.04524,0.0429 0.06191,0.10716 0.01905,0.0643 0.01905,0.13097 v 1.11442 h -0.254794 v -1.0406 q 0,-0.0738 -0.02143,-0.1143 -0.02143,-0.0405 -0.08811,-0.0405 -0.04286,0 -0.09049,0.0262 -0.04524,0.0238 -0.08811,0.0595 v 1.10966 z"
         style="fill:#29487d;fill-opacity:1;stroke-width:0.08929688"
         id="path1139" />
      <path
         d="m 95.401784,295.35696 v -0.17145 l 0.421482,-1.01441 h -0.378619 v -0.1905 h 0.652462 v 0.13811 l -0.423862,1.04537 h 0.414337 v 0.19288 z"
         style="fill:#29487d;fill-opacity:1;stroke-width:0.08929688"
         id="path1141" />
      <path
         d="m 96.529678,295.37601 q -0.08096,0 -0.142875,-0.0452 -0.06191,-0.0476 -0.09763,-0.11906 -0.03572,-0.0738 -0.03572,-0.15478 0,-0.12859 0.04286,-0.2167 0.04286,-0.0881 0.116682,-0.14763 0.0762,-0.0619 0.173831,-0.10716 0.100012,-0.0452 0.20955,-0.0881 v -0.0976 q 0,-0.0833 -0.0095,-0.13811 -0.0095,-0.0548 -0.04048,-0.081 -0.02857,-0.0286 -0.08811,-0.0286 -0.05239,0 -0.08572,0.0238 -0.03096,0.0238 -0.04524,0.0691 -0.01429,0.0429 -0.01429,0.10239 v 0.0691 l -0.252412,-0.01 q 0.0048,-0.2286 0.104775,-0.33576 0.100012,-0.10954 0.309562,-0.10954 0.204788,0 0.290513,0.11192 0.08572,0.11192 0.08572,0.32385 v 0.62865 q 0,0.0643 0.0024,0.12383 0.0048,0.0595 0.0095,0.11191 0.0071,0.05 0.01191,0.0953 h -0.233362 q -0.0071,-0.0381 -0.01905,-0.0953 -0.0095,-0.0595 -0.01429,-0.10715 -0.02381,0.081 -0.09287,0.1524 -0.06667,0.0691 -0.185737,0.0691 z m 0.100012,-0.21907 q 0.0381,0 0.07144,-0.0214 0.03334,-0.0214 0.05953,-0.0476 0.02619,-0.0286 0.03572,-0.0452 v -0.39053 q -0.05953,0.0333 -0.111919,0.0667 -0.05239,0.0333 -0.09287,0.0714 -0.0381,0.0357 -0.06191,0.0833 -0.02143,0.0452 -0.02143,0.10478 0,0.0833 0.03096,0.13096 0.03096,0.0476 0.09049,0.0476 z"
         style="fill:#29487d;fill-opacity:1;stroke-width:0.08929688"
         id="path1143" />
    </g>
    <path
       id="path834"
       d="m 166.73029,292.63437 c -8.7e-4,0 0.0237,2e-5 0.0228,2e-5 l -2.2e-4,1.1e-4 c -0.008,-8e-5 -0.0151,-1.1e-4 -0.0226,-1.1e-4 z m 0.0226,1.1e-4 c 1.07726,0.0121 1.95053,0.88595 1.96164,1.96344 h -0.23138 c -0.0111,-0.95991 -0.79028,-1.7322 -1.75286,-1.7322 -8.7e-4,0 0.0237,2e-5 0.0228,2e-5 l -0.16619,-0.11396 z m -0.0808,7.6e-4 -0.16797,0.11629 0.16651,0.11527 c -0.13972,0.005 -0.2752,0.0257 -0.40471,0.0611 l -0.0598,-0.22326 c 0.14911,-0.0408 0.30517,-0.0647 0.46599,-0.0694 z m -0.51923,0.0848 0.0598,0.22324 c -0.13026,0.0401 -0.25396,0.095 -0.36925,0.16258 l -0.11516,-0.19946 c 0.13253,-0.0778 0.27481,-0.14075 0.4246,-0.18636 z m -0.472,0.21509 0.11519,0.19952 c -0.11289,0.0711 -0.21703,0.15477 -0.31055,0.24899 l -0.1626,-0.16259 c 0.10769,-0.10842 0.22777,-0.20451 0.35796,-0.28592 z m -0.39646,0.3258 0.16267,0.16267 c -0.19112,0.2051 -0.33353,0.4562 -0.40898,0.73509 l -0.22311,-0.0598 c 0.0864,-0.31803 0.25001,-0.6045 0.46942,-0.83798 z m -0.48314,0.89164 0.22331,0.0598 c -0.0309,0.13037 -0.0473,0.26639 -0.0473,0.40633 0,0.14461 0.0176,0.28503 0.0504,0.41937 l -0.2233,0.0598 c -0.0382,-0.15351 -0.0585,-0.31402 -0.0585,-0.47921 0,-0.16053 0.0192,-0.31663 0.0553,-0.46618 z m 3.91305,0.50085 c -0.009,0.53599 -0.23177,1.02073 -0.58626,1.3728 l -0.16261,-0.1626 c 0.31231,-0.30989 0.50831,-0.73678 0.51746,-1.2102 z m -3.67262,0.43831 c 0.0772,0.27698 0.22054,0.52613 0.41202,0.72941 l -0.16262,0.16262 c -0.21978,-0.23164 -0.38441,-0.51611 -0.47255,-0.83223 z m 0.45072,0.76909 c 0.30411,0.30313 0.71916,0.49498 1.17968,0.50995 v 0.23148 c -0.52314,-0.0151 -0.99597,-0.23355 -1.34226,-0.57884 z m 2.43303,0.0412 0.16275,0.16274 c -0.35518,0.33374 -0.83299,0.53841 -1.35791,0.53841 h -0.003 v -0.23138 c 8.7e-4,0 0.002,0 0.003,0 0.46232,0 0.88224,-0.17824 1.19516,-0.46977 z"
       style="color:#000000;font-style:normal;font-variant:normal;font-weight:normal;font-stretch:normal;font-size:medium;line-height:normal;font-family:sans-serif;font-variant-ligatures:normal;font-variant-position:normal;font-variant-caps:normal;font-variant-numeric:normal;font-variant-alternates:normal;font-feature-settings:normal;text-indent:0;text-align:start;text-decoration:none;text-decoration-line:none;text-decoration-style:solid;text-decoration-color:#000000;letter-spacing:normal;word-spacing:normal;text-transform:none;writing-mode:lr-tb;direction:ltr;text-orientation:mixed;dominant-baseline:auto;baseline-shift:baseline;text-anchor:start;white-space:normal;shape-padding:0;clip-rule:nonzero;display:inline;overflow:visible;visibility:visible;opacity:1;isolation:auto;mix-blend-mode:normal;color-interpolation:sRGB;color-interpolation-filters:linearRGB;solid-color:#000000;solid-opacity:1;vector-effect:none;fill:#6e297d;fill-opacity:1;fill-rule:nonzero;stroke:none;stroke-width:0.23137186;stroke-linecap:round;stroke-linejoin:round;stroke-miterlimit:4;stroke-dasharray:none;stroke-dashoffset:0;stroke-opacity:1;color-rendering:auto;image-rendering:auto;shape-rendering:auto;text-rendering:auto;enable-background:accumulate"
       inkscape:connector-curvature="0"
       sodipodi:nodetypes="ccccccccsccccccccccccccccccccccccccccsccsccccccccccccccccccsccsc" />
    <path
       inkscape:connector-curvature="0"
       style="opacity:1;fill:#29487d;fill-opacity:1;stroke:none;stroke-width:0.00469975;stroke-linecap:square;stroke-linejoin:miter;stroke-miterlimit:4;stroke-dasharray:none;stroke-dashoffset:0;stroke-opacity:1"
       d="m 166.73024,293.39725 a 1.2214981,1.2214981 0 0 0 -1.21567,1.10516 h 2.43048 a 1.2214981,1.2214981 0 0 0 -1.21481,-1.10516 z m -1.2148,1.33783 a 1.2214981,1.2214981 0 0 0 1.2148,1.10516 1.2214981,1.2214981 0 0 0 1.21567,-1.10516 z"
       id="path1499" />
    <path
       inkscape:connector-curvature="0"
       id="path1512"
       style="font-style:normal;font-variant:normal;font-weight:normal;font-stretch:normal;font-size:55.88350677px;line-height:1.25;font-family:'Anita Semi-square';-inkscape-font-specification:'Anita Semi-square, Normal';font-variant-ligatures:normal;font-variant-caps:normal;font-variant-numeric:normal;font-feature-settings:normal;text-align:start;letter-spacing:0px;word-spacing:0px;writing-mode:lr-tb;text-anchor:start;fill:#29487d;fill-opacity:1;stroke:none;stroke-width:0.16808727"
       d="m 169.58319,294.91122 h 0.75426 c 0.19435,0.0118 0.29481,-0.0952 0.30138,-0.32107 v -0.40858 c -0.003,-0.20092 -0.0992,-0.30072 -0.28956,-0.29941 h -0.9729 v 1.44272 h -0.40971 v -1.8544 h 1.46534 c 0.40709,0.009 0.61457,0.21142 0.62245,0.60669 l -0.006,0.6292 c -0.008,0.40183 -0.21339,0.608 -0.61654,0.61851 h -0.8488 z"
       sodipodi:nodetypes="ccccccccccccccc" />
    <path
       inkscape:connector-curvature="0"
       id="path1514"
       style="font-style:normal;font-variant:normal;font-weight:normal;font-stretch:normal;font-size:55.88350677px;line-height:1.25;font-family:'Anita Semi-square';-inkscape-font-specification:'Anita Semi-square, Normal';font-variant-ligatures:normal;font-variant-caps:normal;font-variant-numeric:normal;font-feature-settings:normal;text-align:start;letter-spacing:0px;word-spacing:0px;writing-mode:lr-tb;text-anchor:start;fill:#29487d;fill-opacity:1;stroke:none;stroke-width:0.08365595"
       d="m 171.28029,294.492 v -0.2049 h 0.71957 q 0.30783,0 0.30979,0.30195 v 0.72741 h -0.848 q -0.2843,0 -0.2843,-0.25685 v -0.14215 q 0,-0.26077 0.26273,-0.26175 h 0.54409 v 0.20587 h -0.45291 q -0.14804,0 -0.14902,0.12059 h 9.8e-4 q 0,0.12842 0.13725,0.12842 h 0.5833 l -9.7e-4,-0.45586 q 0,-0.16273 -0.13823,-0.16273 z" />
    <path
       inkscape:connector-curvature="0"
       id="path1516"
       style="font-style:normal;font-variant:normal;font-weight:normal;font-stretch:normal;font-size:55.88350677px;line-height:1.25;font-family:'Anita Semi-square';-inkscape-font-specification:'Anita Semi-square, Normal';font-variant-ligatures:normal;font-variant-caps:normal;font-variant-numeric:normal;font-feature-settings:normal;text-align:start;letter-spacing:0px;word-spacing:0px;writing-mode:lr-tb;text-anchor:start;fill:#29487d;fill-opacity:1;stroke:none;stroke-width:0.08365595"
       d="m 173.63507,294.29299 -0.49801,1.02347 h -0.12647 l -0.50291,-1.02347 h 0.22449 l 0.34411,0.7029 0.34606,-0.7029 z" />
    <path
       inkscape:connector-curvature="0"
       id="path1518"
       style="font-style:normal;font-variant:normal;font-weight:normal;font-stretch:normal;font-size:55.88350677px;line-height:1.25;font-family:'Anita Semi-square';-inkscape-font-specification:'Anita Semi-square, Normal';font-variant-ligatures:normal;font-variant-caps:normal;font-variant-numeric:normal;font-feature-settings:normal;text-align:start;letter-spacing:0px;word-spacing:0px;writing-mode:lr-tb;text-anchor:start;fill:#29487d;fill-opacity:1;stroke:none;stroke-width:0.08365595"
       d="m 174.57816,294.49102 h -0.45586 q -0.13431,9.7e-4 -0.13627,0.13136 v 0.38332 q -9.8e-4,0.10391 0.17843,0.10489 h 0.40586 q 0.13823,0 0.13921,-0.0774 v -0.41076 q 0,-0.13038 -0.13137,-0.13136 z m 0.3392,0.10391 v 0.46567 q -9.8e-4,0.25292 -0.31273,0.25586 h -0.51566 q -0.30783,-0.003 -0.30881,-0.26371 v -0.45782 q 0.003,-0.30783 0.31077,-0.30881 h 0.51468 q 0.30881,0 0.31175,0.30881 z" />
    <path
       inkscape:connector-curvature="0"
       id="path1520"
       style="font-style:normal;font-variant:normal;font-weight:normal;font-stretch:normal;font-size:55.88350677px;line-height:1.25;font-family:'Anita Semi-square';-inkscape-font-specification:'Anita Semi-square, Normal';font-variant-ligatures:normal;font-variant-caps:normal;font-variant-numeric:normal;font-feature-settings:normal;text-align:start;letter-spacing:0px;word-spacing:0px;writing-mode:lr-tb;text-anchor:start;fill:#6e297d;fill-opacity:1;stroke:none;stroke-width:0.08365595"
       d="m 176.28396,294.48906 h -0.81565 q -0.10195,9.7e-4 -0.10195,0.10097 0,0.10294 0.10293,0.10392 h 0.51076 q 0.30881,0 0.30979,0.26469 v 0.10097 q -0.005,0.25685 -0.31469,0.25685 h -0.8127 v -0.20489 h 0.78623 q 0.12941,-9.8e-4 0.13333,-0.11372 -9.8e-4,-0.0931 -0.13235,-0.0951 h -0.48037 q -0.3088,0 -0.30978,-0.25293 v -0.10392 q 9.7e-4,-0.25881 0.30978,-0.25881 h 0.81467 z" />
    <path
       inkscape:connector-curvature="0"
       id="path1522"
       style="font-style:normal;font-variant:normal;font-weight:normal;font-stretch:normal;font-size:55.88350677px;line-height:1.25;font-family:'Anita Semi-square';-inkscape-font-specification:'Anita Semi-square, Normal';font-variant-ligatures:normal;font-variant-caps:normal;font-variant-numeric:normal;font-feature-settings:normal;text-align:start;letter-spacing:0px;word-spacing:0px;writing-mode:lr-tb;text-anchor:start;fill:#6e297d;fill-opacity:1;stroke:none;stroke-width:0.08365595"
       d="m 176.48199,293.87536 h 0.20587 v 1.4411 h -0.20587 z m 0.88819,1.4411 -0.57938,-0.55585 0.55487,-0.47252 h 0.31665 l -0.5637,0.48134 0.56958,0.54703 z" />
    <path
       inkscape:connector-curvature="0"
       id="path1524"
       style="font-style:normal;font-variant:normal;font-weight:normal;font-stretch:normal;font-size:55.88350677px;line-height:1.25;font-family:'Anita Semi-square';-inkscape-font-specification:'Anita Semi-square, Normal';font-variant-ligatures:normal;font-variant-caps:normal;font-variant-numeric:normal;font-feature-settings:normal;text-align:start;letter-spacing:0px;word-spacing:0px;writing-mode:lr-tb;text-anchor:start;fill:#6e297d;fill-opacity:1;stroke:none;stroke-width:0.08365595"
       d="m 178.01426,294.28691 v 0.6833 c 6.6e-4,0.0935 0.0487,0.14051 0.14411,0.14117 h 0.46175 v 0.20489 h -0.5039 c -0.20457,-6.5e-4 -0.3075,-0.1013 -0.30881,-0.30195 v -0.72741 z m 0.92741,0 v 1.31776 c -10e-4,0.20456 -0.10425,0.3075 -0.30881,0.3088 h -0.6186 v -0.4011 h 0.58625 c 0.0895,-6.5e-4 0.13463,-0.0438 0.13529,-0.1294 v -1.09606 z"
       sodipodi:nodetypes="cccccccccscccccccs" />
    <path
       id="path1540"
       style="font-style:normal;font-variant:normal;font-weight:normal;font-stretch:normal;font-size:medium;line-height:1.25;font-family:SquareFont;-inkscape-font-specification:SquareFont;letter-spacing:0px;word-spacing:0px;fill:#6e297d;fill-opacity:1;stroke:none;stroke-width:0.0074299"
       d="m 174.09948,295.83779 h 0.24885 v 0.0673 h -0.34558 v -0.39267 h 0.34558 v 0.0673 h -0.24885 z"
       inkscape:connector-curvature="0" />
    <path
       id="path1542"
       style="font-style:normal;font-variant:normal;font-weight:normal;font-stretch:normal;font-size:medium;line-height:1.25;font-family:SquareFont;-inkscape-font-specification:SquareFont;letter-spacing:0px;word-spacing:0px;fill:#6e297d;fill-opacity:1;stroke:none;stroke-width:0.0074299"
       d="m 174.76471,295.51239 v 0.39267 h -0.34558 v -0.39267 z m -0.0908,0.0673 h -0.15807 v 0.25813 h 0.15807 z"
       inkscape:connector-curvature="0" />
    <path
       id="path1544"
       style="font-style:normal;font-variant:normal;font-weight:normal;font-stretch:normal;font-size:medium;line-height:1.25;font-family:SquareFont;-inkscape-font-specification:SquareFont;letter-spacing:0px;word-spacing:0px;fill:#6e297d;fill-opacity:1;stroke:none;stroke-width:0.0074299"
       d="m 174.93224,295.90506 h -0.0967 v -0.39267 h 0.0967 l 0.15807,0.22013 v -0.22013 h 0.0908 v 0.39267 h -0.0908 l -0.15807,-0.22669 z"
       inkscape:connector-curvature="0" />
    <path
       id="path1546"
       style="font-style:normal;font-variant:normal;font-weight:normal;font-stretch:normal;font-size:medium;line-height:1.25;font-family:SquareFont;-inkscape-font-specification:SquareFont;letter-spacing:0px;word-spacing:0px;fill:#6e297d;fill-opacity:1;stroke:none;stroke-width:0.0074299"
       d="m 175.34861,295.90506 h -0.0967 v -0.39267 h 0.0967 l 0.15807,0.22013 v -0.22013 h 0.0908 v 0.39267 h -0.0908 l -0.15807,-0.22669 z"
       inkscape:connector-curvature="0" />
    <path
       id="path1548"
       style="font-style:normal;font-variant:normal;font-weight:normal;font-stretch:normal;font-size:medium;line-height:1.25;font-family:SquareFont;-inkscape-font-specification:SquareFont;letter-spacing:0px;word-spacing:0px;fill:#6e297d;fill-opacity:1;stroke:none;stroke-width:0.0074299"
       d="m 175.76499,295.57966 v 0.0971 h 0.24884 v 0.064 h -0.24884 v 0.0971 h 0.24884 v 0.0673 h -0.34557 v -0.39267 h 0.34557 v 0.0673 z"
       inkscape:connector-curvature="0" />
    <path
       id="path1550"
       style="font-style:normal;font-variant:normal;font-weight:normal;font-stretch:normal;font-size:medium;line-height:1.25;font-family:SquareFont;-inkscape-font-specification:SquareFont;letter-spacing:0px;word-spacing:0px;fill:#6e297d;fill-opacity:1;stroke:none;stroke-width:0.0074299"
       d="m 176.18137,295.83779 h 0.24884 v 0.0673 h -0.34558 v -0.39267 h 0.34558 v 0.0673 h -0.24884 z"
       inkscape:connector-curvature="0" />
    <path
       id="path1552"
       style="font-style:normal;font-variant:normal;font-weight:normal;font-stretch:normal;font-size:medium;line-height:1.25;font-family:SquareFont;-inkscape-font-specification:SquareFont;letter-spacing:0px;word-spacing:0px;fill:#6e297d;fill-opacity:1;stroke:none;stroke-width:0.0074299"
       d="m 176.63174,295.57966 h -0.13073 v -0.0673 h 0.34558 v 0.0673 h -0.11812 v 0.3254 h -0.0967 z"
       inkscape:connector-curvature="0" />
    <path
       id="path1554"
       style="font-style:normal;font-variant:normal;font-weight:normal;font-stretch:normal;font-size:medium;line-height:1.25;font-family:SquareFont;-inkscape-font-specification:SquareFont;letter-spacing:0px;word-spacing:0px;fill:#6e297d;fill-opacity:1;stroke:none;stroke-width:0.0074299"
       d="m 177.01412,295.90506 h -0.0967 v -0.39267 h 0.0967 z"
       inkscape:connector-curvature="0" />
    <path
       id="path1556"
       style="font-style:normal;font-variant:normal;font-weight:normal;font-stretch:normal;font-size:medium;line-height:1.25;font-family:SquareFont;-inkscape-font-specification:SquareFont;letter-spacing:0px;word-spacing:0px;fill:#6e297d;fill-opacity:1;stroke:none;stroke-width:0.0074299"
       d="m 177.42979,295.51239 v 0.39267 h -0.34557 v -0.39267 z m -0.0908,0.0673 h -0.15807 v 0.25813 h 0.15807 z"
       inkscape:connector-curvature="0" />
    <path
       id="path1558"
       style="font-style:normal;font-variant:normal;font-weight:normal;font-stretch:normal;font-size:medium;line-height:1.25;font-family:SquareFont;-inkscape-font-specification:SquareFont;letter-spacing:0px;word-spacing:0px;fill:#6e297d;fill-opacity:1;stroke:none;stroke-width:0.0074299"
       d="m 177.59733,295.90506 h -0.0967 v -0.39267 h 0.0967 l 0.15807,0.22013 v -0.22013 h 0.0908 v 0.39267 h -0.0908 l -0.15807,-0.22669 z"
       inkscape:connector-curvature="0" />
    <g
       aria-label="the"
       style="font-style:normal;font-variant:normal;font-weight:normal;font-stretch:normal;font-size:0.33043909px;line-height:1.25;font-family:'DIN Condensed';-inkscape-font-specification:'DIN Condensed, ';letter-spacing:0px;word-spacing:0px;fill:#29487d;fill-opacity:1;stroke:none;stroke-width:0.00387233"
       id="text1608">
      <path
         d="m 171.29272,293.71254 h -0.0602 v -0.0397 h 0.15909 v 0.0397 h -0.0544 v 0.192 h -0.0445 z"
         style="font-style:normal;font-variant:normal;font-weight:normal;font-stretch:normal;font-family:SquareFont;-inkscape-font-specification:SquareFont;stroke-width:0.00387233;fill:#29487d;fill-opacity:1"
         id="path1146" />
      <path
         d="m 171.46875,293.90454 h -0.0445 v -0.23169 h 0.0445 v 0.097 h 0.0728 v -0.097 h 0.0418 v 0.23169 h -0.0418 v -0.097 h -0.0728 z"
         style="font-style:normal;font-variant:normal;font-weight:normal;font-stretch:normal;font-family:SquareFont;-inkscape-font-specification:SquareFont;stroke-width:0.00387233;fill:#29487d;fill-opacity:1"
         id="path1148" />
      <path
         d="m 171.66043,293.71254 v 0.0573 h 0.11455 v 0.0378 h -0.11455 v 0.0573 h 0.11455 v 0.0397 h -0.15908 v -0.23169 h 0.15908 v 0.0397 z"
         style="font-style:normal;font-variant:normal;font-weight:normal;font-stretch:normal;font-family:SquareFont;-inkscape-font-specification:SquareFont;stroke-width:0.00387233;fill:#29487d;fill-opacity:1"
         id="path1150" />
    </g>
    <path
       id="rect850"
       d="m 169.04648,295.51239 h 0.47844 c 0.0442,0 0.0798,0.0356 0.0798,0.0798 v 0.23302 c 0,0.0442 -0.0356,0.0798 -0.0798,0.0798 h -0.47844 c -0.0442,0 -0.0798,-0.0356 -0.0798,-0.0798 v -0.23302 c 0,-0.0442 0.0356,-0.0798 0.0798,-0.0798 z"
       style="opacity:1;fill:#6e297d;fill-opacity:1;stroke:none;stroke-width:0.00198527;stroke-linecap:square;stroke-linejoin:miter;stroke-miterlimit:4;stroke-dasharray:none;stroke-dashoffset:0;stroke-opacity:1"
       inkscape:connector-curvature="0" />
    <path
       inkscape:connector-curvature="0"
       id="rect854"
       d="m 169.73812,295.51239 h 0.47844 c 0.0442,0 0.0798,0.0356 0.0798,0.0798 v 0.23302 c 0,0.0442 -0.0356,0.0798 -0.0798,0.0798 h -0.47844 c -0.0442,0 -0.0798,-0.0356 -0.0798,-0.0798 v -0.23302 c 0,-0.0442 0.0356,-0.0798 0.0798,-0.0798 z"
       style="opacity:1;fill:#6e297d;fill-opacity:1;stroke:none;stroke-width:0.00198527;stroke-linecap:square;stroke-linejoin:miter;stroke-miterlimit:4;stroke-dasharray:none;stroke-dashoffset:0;stroke-opacity:1" />
    <path
       inkscape:connector-curvature="0"
       id="rect856"
       d="m 170.42976,295.51239 h 0.47844 c 0.0442,0 0.0798,0.0356 0.0798,0.0798 v 0.23302 c 0,0.0442 -0.0356,0.0798 -0.0798,0.0798 h -0.47844 c -0.0442,0 -0.0798,-0.0356 -0.0798,-0.0798 v -0.23302 c 0,-0.0442 0.0356,-0.0798 0.0798,-0.0798 z"
       style="opacity:1;fill:#6e297d;fill-opacity:1;stroke:none;stroke-width:0.00198527;stroke-linecap:square;stroke-linejoin:miter;stroke-miterlimit:4;stroke-dasharray:none;stroke-dashoffset:0;stroke-opacity:1" />
    <path
       inkscape:connector-curvature="0"
       id="rect858-0"
       d="m 171.12139,295.51239 h 0.47844 c 0.0442,0 0.0798,0.0356 0.0798,0.0798 v 0.23302 c 0,0.0442 -0.0356,0.0798 -0.0798,0.0798 h -0.47844 c -0.0442,0 -0.0798,-0.0356 -0.0798,-0.0798 v -0.23302 c 0,-0.0442 0.0356,-0.0798 0.0798,-0.0798 z"
       style="opacity:1;fill:#6e297d;fill-opacity:1;stroke:none;stroke-width:0.00198527;stroke-linecap:square;stroke-linejoin:miter;stroke-miterlimit:4;stroke-dasharray:none;stroke-dashoffset:0;stroke-opacity:1" />
    <path
       inkscape:connector-curvature="0"
       id="rect860"
       d="m 171.81303,295.51239 h 0.47844 c 0.0442,0 0.0798,0.0356 0.0798,0.0798 v 0.23302 c 0,0.0442 -0.0356,0.0798 -0.0798,0.0798 h -0.47844 c -0.0442,0 -0.0798,-0.0356 -0.0798,-0.0798 v -0.23302 c 0,-0.0442 0.0356,-0.0798 0.0798,-0.0798 z"
       style="opacity:1;fill:#6e297d;fill-opacity:1;stroke:none;stroke-width:0.00198527;stroke-linecap:square;stroke-linejoin:miter;stroke-miterlimit:4;stroke-dasharray:none;stroke-dashoffset:0;stroke-opacity:1" />
    <path
       inkscape:connector-curvature="0"
       id="rect862"
       d="m 172.50467,295.51239 h 0.47844 c 0.0442,0 0.0798,0.0356 0.0798,0.0798 v 0.23302 c 0,0.0442 -0.0356,0.0798 -0.0798,0.0798 h -0.47844 c -0.0442,0 -0.0798,-0.0356 -0.0798,-0.0798 v -0.23302 c 0,-0.0442 0.0356,-0.0798 0.0798,-0.0798 z"
       style="opacity:1;fill:#6e297d;fill-opacity:1;stroke:none;stroke-width:0.00198527;stroke-linecap:square;stroke-linejoin:miter;stroke-miterlimit:4;stroke-dasharray:none;stroke-dashoffset:0;stroke-opacity:1" />
    <path
       inkscape:connector-curvature="0"
       id="circle998"
       d="m 169.28328,295.56418 -0.0249,0.0259 0.0227,0.0235 c -0.0507,0.002 -0.0905,0.0438 -0.0905,0.0951 0,0.0529 0.0423,0.0952 0.0952,0.0952 0.0529,0 0.0952,-0.0423 0.0952,-0.0952 0,-0.0485 -0.0356,-0.0881 -0.0823,-0.0943 l -0.0234,-0.0243 0.0243,-0.0253 c 0.0731,0.007 0.13073,0.069 0.13073,0.1439 0,0.0795 -0.065,0.14457 -0.14458,0.14457 -0.0795,0 -0.14458,-0.065 -0.14458,-0.14457 0,-0.0787 0.0637,-0.14321 0.14216,-0.14452 z"
       style="color:#000000;font-style:normal;font-variant:normal;font-weight:normal;font-stretch:normal;font-size:medium;line-height:normal;font-family:sans-serif;font-variant-ligatures:normal;font-variant-position:normal;font-variant-caps:normal;font-variant-numeric:normal;font-variant-alternates:normal;font-feature-settings:normal;text-indent:0;text-align:start;text-decoration:none;text-decoration-line:none;text-decoration-style:solid;text-decoration-color:#000000;letter-spacing:normal;word-spacing:normal;text-transform:none;writing-mode:lr-tb;direction:ltr;text-orientation:mixed;dominant-baseline:auto;baseline-shift:baseline;text-anchor:start;white-space:normal;shape-padding:0;clip-rule:nonzero;display:inline;overflow:visible;visibility:visible;opacity:1;isolation:auto;mix-blend-mode:normal;color-interpolation:sRGB;color-interpolation-filters:linearRGB;solid-color:#000000;solid-opacity:1;vector-effect:none;fill:#ffffff;fill-opacity:1;fill-rule:nonzero;stroke:none;stroke-width:0.04936364;stroke-linecap:square;stroke-linejoin:miter;stroke-miterlimit:4;stroke-dasharray:none;stroke-dashoffset:0;stroke-opacity:1;color-rendering:auto;image-rendering:auto;shape-rendering:auto;text-rendering:auto;enable-background:accumulate" />
    <path
       inkscape:connector-curvature="0"
       id="path1021"
       d="m 169.97758,295.56415 -0.11856,0.13566 h 0.23663 z m -0.11856,0.15349 0.11856,0.13567 0.11807,-0.13567 z"
       style="fill:#ffffff;fill-opacity:1;stroke:none;stroke-width:0.00135341px;stroke-linecap:butt;stroke-linejoin:miter;stroke-opacity:1" />
    <path
       id="rect1028"
       d="m 170.5244,295.68404 h 0.28915 v 0.0494 h -0.28915 z"
       style="opacity:1;fill:#ffffff;fill-opacity:1;stroke:none;stroke-width:0.01618571;stroke-linecap:square;stroke-linejoin:miter;stroke-miterlimit:4;stroke-dasharray:none;stroke-dashoffset:0;stroke-opacity:1"
       inkscape:connector-curvature="0" />
    <path
       id="rect1030"
       d="m 170.58571,295.6241 h 0.16653 v 0.0494 h -0.16653 z"
       style="opacity:1;fill:#ffffff;fill-opacity:1;stroke:none;stroke-width:0.01228327;stroke-linecap:square;stroke-linejoin:miter;stroke-miterlimit:4;stroke-dasharray:none;stroke-dashoffset:0;stroke-opacity:1"
       inkscape:connector-curvature="0" />
    <path
       id="rect1032"
       d="m 170.58571,295.74399 h 0.16653 v 0.0494 h -0.16653 z"
       style="opacity:1;fill:#ffffff;fill-opacity:1;stroke:none;stroke-width:0.01228327;stroke-linecap:square;stroke-linejoin:miter;stroke-miterlimit:4;stroke-dasharray:none;stroke-dashoffset:0;stroke-opacity:1"
       inkscape:connector-curvature="0" />
    <path
       id="rect1034"
       d="m 170.63132,295.80394 h 0.0753 v 0.0494 h -0.0753 z"
       style="opacity:1;fill:#ffffff;fill-opacity:1;stroke:none;stroke-width:0.00826055;stroke-linecap:square;stroke-linejoin:miter;stroke-miterlimit:4;stroke-dasharray:none;stroke-dashoffset:0;stroke-opacity:1"
       inkscape:connector-curvature="0" />
    <path
       id="rect1036"
       d="m 170.63132,295.56415 h 0.0753 v 0.0494 h -0.0753 z"
       style="opacity:1;fill:#ffffff;fill-opacity:1;stroke:none;stroke-width:0.00826055;stroke-linecap:square;stroke-linejoin:miter;stroke-miterlimit:4;stroke-dasharray:none;stroke-dashoffset:0;stroke-opacity:1"
       inkscape:connector-curvature="0" />
    <path
       inkscape:connector-curvature="0"
       id="path1079"
       d="m 171.33593,295.56415 v 0.0586 h -0.0586 v 0.0494 h 0.0586 v 0.0586 h 0.0494 v -0.0586 h 0.0586 v -0.0494 h -0.0586 v -0.0586 z"
       style="opacity:1;fill:#ffffff;fill-opacity:1;stroke:none;stroke-width:0.01228327;stroke-linecap:square;stroke-linejoin:miter;stroke-miterlimit:4;stroke-dasharray:none;stroke-dashoffset:0;stroke-opacity:1" />
    <path
       id="path1083"
       d="m 171.27735,295.80394 h 0.16653 v 0.0494 h -0.16653 z"
       style="opacity:1;fill:#ffffff;fill-opacity:1;stroke:none;stroke-width:0.01228327;stroke-linecap:square;stroke-linejoin:miter;stroke-miterlimit:4;stroke-dasharray:none;stroke-dashoffset:0;stroke-opacity:1"
       inkscape:connector-curvature="0" />
    <path
       inkscape:connector-curvature="0"
       style="opacity:1;fill:#6e297d;fill-opacity:1;stroke:none;stroke-width:0.00198527;stroke-linecap:square;stroke-linejoin:miter;stroke-miterlimit:4;stroke-dasharray:none;stroke-dashoffset:0;stroke-opacity:1"
       d="m 173.1963,295.51239 h 0.47844 c 0.0442,0 0.0798,0.0356 0.0798,0.0798 v 0.23302 c 0,0.0442 -0.0356,0.0798 -0.0798,0.0798 h -0.47844 c -0.0442,0 -0.0798,-0.0356 -0.0798,-0.0798 v -0.23302 c 0,-0.0442 0.0356,-0.0798 0.0798,-0.0798 z"
       id="path1091" />
    <path
       inkscape:connector-curvature="0"
       id="path1095"
       d="m 172.00148,295.56419 c -0.007,-3.3e-4 -0.0135,8.7e-4 -0.0191,0.004 -0.0112,0.006 -0.0189,0.0143 -0.0266,0.0255 -0.0153,0.0223 -0.0302,0.0566 -0.0482,0.10937 l 0.0436,0.0148 c 0.0173,-0.051 0.0322,-0.083 0.0426,-0.0982 0.003,-0.004 0.003,-0.004 0.005,-0.005 0.002,0.003 0.007,0.009 0.0121,0.0253 0.007,0.02 0.013,0.0469 0.0193,0.0756 l 7e-5,2.2e-4 6e-5,2.2e-4 c 0.006,0.0259 0.0125,0.0524 0.0199,0.0751 0.007,0.0227 0.0134,0.0422 0.0324,0.0557 0.009,0.007 0.0252,0.009 0.0371,0.005 0.0119,-0.005 0.02,-0.0134 0.0279,-0.0243 0.0158,-0.0217 0.031,-0.0555 0.0496,-0.10881 l -0.0435,-0.0152 c -0.018,0.0514 -0.0332,0.0829 -0.0435,0.097 -0.002,0.003 -0.002,0.002 -0.004,0.004 -0.002,-0.003 -0.007,-0.0107 -0.0128,-0.0272 -0.006,-0.0197 -0.0126,-0.0452 -0.0188,-0.071 l -1e-4,-4.4e-4 c -0.006,-0.0289 -0.0128,-0.0567 -0.0205,-0.0798 -0.008,-0.0232 -0.0138,-0.043 -0.0343,-0.0556 -0.005,-0.003 -0.0117,-0.005 -0.0184,-0.005 z"
       style="color:#000000;font-style:normal;font-variant:normal;font-weight:normal;font-stretch:normal;font-size:medium;line-height:normal;font-family:sans-serif;font-variant-ligatures:normal;font-variant-position:normal;font-variant-caps:normal;font-variant-numeric:normal;font-variant-alternates:normal;font-feature-settings:normal;text-indent:0;text-align:start;text-decoration:none;text-decoration-line:none;text-decoration-style:solid;text-decoration-color:#000000;letter-spacing:normal;word-spacing:normal;text-transform:none;writing-mode:lr-tb;direction:ltr;text-orientation:mixed;dominant-baseline:auto;baseline-shift:baseline;text-anchor:start;white-space:normal;shape-padding:0;clip-rule:nonzero;display:inline;overflow:visible;visibility:visible;opacity:1;isolation:auto;mix-blend-mode:normal;color-interpolation:sRGB;color-interpolation-filters:linearRGB;solid-color:#000000;solid-opacity:1;vector-effect:none;fill:#ffffff;fill-opacity:1;fill-rule:nonzero;stroke:none;stroke-width:0.04603612;stroke-linecap:butt;stroke-linejoin:miter;stroke-miterlimit:4;stroke-dasharray:none;stroke-dashoffset:0;stroke-opacity:1;color-rendering:auto;image-rendering:auto;shape-rendering:auto;text-rendering:auto;enable-background:accumulate" />
    <path
       inkscape:connector-curvature="0"
       id="path1099"
       d="m 172.59931,295.58668 v 0.2441 l 0.13994,-0.1218 z m 0.28915,0 -0.13995,0.1223 0.13995,0.1218 z"
       style="fill:#ffffff;fill-opacity:1;stroke:none;stroke-width:0.00139615px;stroke-linecap:butt;stroke-linejoin:miter;stroke-opacity:1" />
    <path
       inkscape:connector-curvature="0"
       id="path1104"
       d="m 173.51855,295.62114 -0.0616,0.0679 0.0328,0.0297 0.007,-0.007 v 0.0848 h 0.0443 v -0.0849 l 0.007,0.007 0.0328,-0.0297 z m -0.17506,4e-5 v 0.10469 h -0.0525 v 0.04 h 0.0525 v 0.0305 h 0.0443 v -0.0305 h 0.0526 v -0.04 h -0.0526 v -0.10469 z"
       style="opacity:1;fill:#ffffff;fill-opacity:1;stroke:none;stroke-width:0.01192888;stroke-linecap:square;stroke-linejoin:miter;stroke-miterlimit:4;stroke-dasharray:none;stroke-dashoffset:0;stroke-opacity:1" />
  </g>
</svg>
