<?xml version="1.0" encoding="UTF-8" standalone="no"?>
<!-- Generator: Adobe Illustrator 16.0.0, SVG Export Plug-In . SVG Version: 6.00 Build 0)  -->

<svg
   xmlns:dc="http://purl.org/dc/elements/1.1/"
   xmlns:cc="http://creativecommons.org/ns#"
   xmlns:rdf="http://www.w3.org/1999/02/22-rdf-syntax-ns#"
   xmlns:svg="http://www.w3.org/2000/svg"
   xmlns="http://www.w3.org/2000/svg"
   xmlns:sodipodi="http://sodipodi.sourceforge.net/DTD/sodipodi-0.dtd"
   xmlns:inkscape="http://www.inkscape.org/namespaces/inkscape"
   version="1.1"
   id="Capa_1"
   x="0px"
   y="0px"
   width="32"
   height="32"
   viewBox="0 0 32 32"
   xml:space="preserve"
   sodipodi:docname="project_typology_icon.svg"
   inkscape:version="0.92.2 5c3e80d, 2017-08-06"><metadata
     id="metadata57"><rdf:RDF><cc:Work
         rdf:about=""><dc:format>image/svg+xml</dc:format><dc:type
           rdf:resource="http://purl.org/dc/dcmitype/StillImage" /><dc:title></dc:title></cc:Work></rdf:RDF></metadata><defs
     id="defs55" /><sodipodi:namedview
     pagecolor="#ffffff"
     bordercolor="#666666"
     borderopacity="1"
     objecttolerance="10"
     gridtolerance="10"
     guidetolerance="10"
     inkscape:pageopacity="0"
     inkscape:pageshadow="2"
     inkscape:window-width="1920"
     inkscape:window-height="1035"
     id="namedview53"
     showgrid="false"
     inkscape:showpageshadow="false"
     inkscape:zoom="0.87862055"
     inkscape:cx="16.089068"
     inkscape:cy="117.65597"
     inkscape:window-x="0"
     inkscape:window-y="1"
     inkscape:window-maximized="1"
     inkscape:current-layer="Capa_1" /><g
     id="g22"
     transform="translate(0,-457.76599)" /><g
     id="g24"
     transform="translate(0,-457.76599)" /><g
     id="g26"
     transform="translate(0,-457.76599)" /><g
     id="g28"
     transform="translate(0,-457.76599)" /><g
     id="g30"
     transform="translate(0,-457.76599)" /><g
     id="g32"
     transform="translate(0,-457.76599)" /><g
     id="g34"
     transform="translate(0,-457.76599)" /><g
     id="g36"
     transform="translate(0,-457.76599)" /><g
     id="g38"
     transform="translate(0,-457.76599)" /><g
     id="g40"
     transform="translate(0,-457.76599)" /><g
     id="g42"
     transform="translate(0,-457.76599)" /><g
     id="g44"
     transform="translate(0,-457.76599)" /><g
     id="g46"
     transform="translate(0,-457.76599)" /><g
     id="g48"
     transform="translate(0,-457.76599)" /><g
     id="g50"
     transform="translate(0,-457.76599)" /><g
     id="g154"
     transform="matrix(0.03934386,0,0,0.03934386,-31.544825,4.838524)" /><g
     id="g156"
     transform="matrix(0.03934386,0,0,0.03934386,-31.544825,4.838524)" /><g
     id="g158"
     transform="matrix(0.03934386,0,0,0.03934386,-31.544825,4.838524)" /><g
     id="g160"
     transform="matrix(0.03934386,0,0,0.03934386,-31.544825,4.838524)" /><g
     id="g162"
     transform="matrix(0.03934386,0,0,0.03934386,-31.544825,4.838524)" /><g
     id="g164"
     transform="matrix(0.03934386,0,0,0.03934386,-31.544825,4.838524)" /><g
     id="g166"
     transform="matrix(0.03934386,0,0,0.03934386,-31.544825,4.838524)" /><g
     id="g168"
     transform="matrix(0.03934386,0,0,0.03934386,-31.544825,4.838524)" /><g
     id="g170"
     transform="matrix(0.03934386,0,0,0.03934386,-31.544825,4.838524)" /><g
     id="g172"
     transform="matrix(0.03934386,0,0,0.03934386,-31.544825,4.838524)" /><g
     id="g174"
     transform="matrix(0.03934386,0,0,0.03934386,-31.544825,4.838524)" /><g
     id="g176"
     transform="matrix(0.03934386,0,0,0.03934386,-31.544825,4.838524)" /><g
     id="g178"
     transform="matrix(0.03934386,0,0,0.03934386,-31.544825,4.838524)" /><g
     id="g180"
     transform="matrix(0.03934386,0,0,0.03934386,-31.544825,4.838524)" /><g
     id="g182"
     transform="matrix(0.03934386,0,0,0.03934386,-31.544825,4.838524)" /><g
     id="g487"
     transform="matrix(0.07197111,0,0,0.07197111,-55.236653,3.3444031)" /><g
     id="g489"
     transform="matrix(0.07197111,0,0,0.07197111,-55.236653,3.3444031)" /><g
     id="g491"
     transform="matrix(0.07197111,0,0,0.07197111,-55.236653,3.3444031)" /><g
     id="g493"
     transform="matrix(0.07197111,0,0,0.07197111,-55.236653,3.3444031)" /><g
     id="g495"
     transform="matrix(0.07197111,0,0,0.07197111,-55.236653,3.3444031)" /><g
     id="g497"
     transform="matrix(0.07197111,0,0,0.07197111,-55.236653,3.3444031)" /><g
     id="g499"
     transform="matrix(0.07197111,0,0,0.07197111,-55.236653,3.3444031)" /><g
     id="g501"
     transform="matrix(0.07197111,0,0,0.07197111,-55.236653,3.3444031)" /><g
     id="g503"
     transform="matrix(0.07197111,0,0,0.07197111,-55.236653,3.3444031)" /><g
     id="g505"
     transform="matrix(0.07197111,0,0,0.07197111,-55.236653,3.3444031)" /><g
     id="g507"
     transform="matrix(0.07197111,0,0,0.07197111,-55.236653,3.3444031)" /><g
     id="g509"
     transform="matrix(0.07197111,0,0,0.07197111,-55.236653,3.3444031)" /><g
     id="g511"
     transform="matrix(0.07197111,0,0,0.07197111,-55.236653,3.3444031)" /><g
     id="g513"
     transform="matrix(0.07197111,0,0,0.07197111,-55.236653,3.3444031)" /><g
     id="g515"
     transform="matrix(0.07197111,0,0,0.07197111,-55.236653,3.3444031)" /><g
     id="g1376"
     transform="matrix(0.05859364,0,0,0.05859364,0.99999886,0.99999886)"><path
       id="path1282"
       d="m 127.534,75.967 -12.776,25.55 h 97.103 l -12.776,-25.55 c -2.99,-5.982 -9.103,-9.76 -15.791,-9.76 h -39.97 c -6.686,0 -12.799,3.778 -15.79,9.76 z"
       style="fill:#e4eaf6"
       inkscape:connector-curvature="0" /><path
       id="path1284"
       d="M 397.241,225.103 H 114.759 c -4.875,0 -8.828,-3.953 -8.828,-8.828 V 92.69 c 0,-4.875 3.953,-8.828 8.828,-8.828 h 282.483 c 4.875,0 8.828,3.953 8.828,8.828 v 123.586 c -10e-4,4.875 -3.954,8.827 -8.829,8.827 z"
       style="fill:#eff2fa"
       inkscape:connector-curvature="0" /><path
       id="path1286"
       d="M 414.897,242.759 H 97.103 c -4.875,0 -8.828,-3.953 -8.828,-8.828 V 110.345 c 0,-4.875 3.953,-8.828 8.828,-8.828 h 317.793 c 4.875,0 8.828,3.953 8.828,8.828 v 123.586 c 0,4.875 -3.952,8.828 -8.827,8.828 z"
       style="fill:#e4eaf6"
       inkscape:connector-curvature="0" /><path
       id="path1288"
       d="m 509.778,256.415 -39.393,-70.909 c -1.557,-2.803 -4.511,-4.541 -7.716,-4.541 H 49.332 c -3.206,0 -6.159,1.738 -7.716,4.541 L 2.222,256.415 C 0.765,259.038 0,261.988 0,264.989 v 39.563 h 512 v -39.563 c 0,-3.001 -0.765,-5.951 -2.222,-8.574 z"
       style="fill:#e1c3a0"
       inkscape:connector-curvature="0" /><path
       id="path1290"
       d="m 109.879,111.277 -12.776,25.55 h 108.015 l -12.776,-25.55 c -2.99,-5.982 -9.105,-9.76 -15.791,-9.76 H 125.67 c -6.687,0 -12.8,3.778 -15.791,9.76 z"
       style="fill:#c7cfe2"
       inkscape:connector-curvature="0" /><path
       id="path1292"
       d="M 414.897,260.414 H 97.103 c -4.875,0 -8.828,-3.953 -8.828,-8.828 V 128 c 0,-4.875 3.953,-8.828 8.828,-8.828 h 317.793 c 4.875,0 8.828,3.953 8.828,8.828 v 123.586 c 0,4.875 -3.952,8.828 -8.827,8.828 z"
       style="fill:#eff2fa"
       inkscape:connector-curvature="0" /><path
       id="path1294"
       d="M 432.552,278.069 H 79.448 c -4.875,0 -8.828,-3.953 -8.828,-8.828 V 145.655 c 0,-4.875 3.953,-8.828 8.828,-8.828 h 353.103 c 4.875,0 8.828,3.953 8.828,8.828 v 123.586 c 0,4.875 -3.952,8.828 -8.827,8.828 z"
       style="fill:#c7cfe2"
       inkscape:connector-curvature="0" /><path
       id="path1296"
       d="m 92.224,146.588 -12.776,25.55 h 132.414 l -12.776,-25.55 c -2.99,-5.982 -9.103,-9.76 -15.791,-9.76 h -75.279 c -6.689,0 -12.802,3.778 -15.792,9.76 z"
       style="fill:#9fa7bf"
       inkscape:connector-curvature="0" /><path
       id="path1298"
       d="M 432.552,295.724 H 79.448 c -4.875,0 -8.828,-3.953 -8.828,-8.828 V 163.31 c 0,-4.875 3.953,-8.828 8.828,-8.828 h 353.103 c 4.875,0 8.828,3.953 8.828,8.828 v 123.586 c 0,4.876 -3.952,8.828 -8.827,8.828 z"
       style="fill:#eff2fa"
       inkscape:connector-curvature="0" /><path
       id="path1300"
       d="M 450.207,313.379 H 61.793 c -4.875,0 -8.828,-3.953 -8.828,-8.828 V 180.966 c 0,-4.875 3.953,-8.828 8.828,-8.828 h 388.414 c 4.875,0 8.828,3.953 8.828,8.828 v 123.586 c -0.001,4.875 -3.953,8.827 -8.828,8.827 z"
       style="fill:#8f96ac"
       inkscape:connector-curvature="0" /><path
       id="path1302"
       d="M 503.172,260.414 H 358.559 c -3.343,0 -6.4,1.889 -7.895,4.879 l -10.335,20.671 c -2.99,5.982 -9.105,9.76 -15.791,9.76 H 187.464 c -6.687,0 -12.801,-3.778 -15.791,-9.76 l -10.335,-20.671 c -1.495,-2.99 -4.552,-4.879 -7.895,-4.879 H 8.828 C 3.953,260.414 0,264.367 0,269.242 v 167.724 c 0,4.875 3.953,8.828 8.828,8.828 h 494.345 c 4.875,0 8.828,-3.953 8.828,-8.828 V 269.241 c -10e-4,-4.875 -3.954,-8.827 -8.829,-8.827 z"
       style="fill:#ebd2af"
       inkscape:connector-curvature="0" /><path
       id="path1304"
       d="m 326.621,242.759 h 105.931 c 4.875,0 8.828,-3.953 8.828,-8.828 v -35.31 c 0,-4.875 -3.953,-8.828 -8.828,-8.828 H 326.621 c -4.875,0 -8.828,3.953 -8.828,8.828 v 35.31 c 0,4.875 3.953,8.828 8.828,8.828 z"
       style="fill:#eff2fa"
       inkscape:connector-curvature="0" /><path
       id="path1306"
       d="m 379.586,207.448 h -35.31 c -4.875,0 -8.828,3.953 -8.828,8.828 v 0 c 0,4.875 3.953,8.828 8.828,8.828 h 35.31 c 4.875,0 8.828,-3.953 8.828,-8.828 v 0 c 0,-4.876 -3.953,-8.828 -8.828,-8.828 z"
       style="fill:#707487"
       inkscape:connector-curvature="0" /><path
       id="path1308"
       d="m 414.897,207.448 h -8.828 c -4.875,0 -8.828,3.953 -8.828,8.828 v 0 c 0,4.875 3.953,8.828 8.828,8.828 h 8.828 c 4.875,0 8.828,-3.953 8.828,-8.828 v 0 c -0.001,-4.875 -3.953,-8.828 -8.828,-8.828 z"
       style="fill:#8f96ac"
       inkscape:connector-curvature="0" /><g
       id="g1310" /><g
       id="g1312" /><g
       id="g1314" /><g
       id="g1316" /><g
       id="g1318" /><g
       id="g1320" /><g
       id="g1322" /><g
       id="g1324" /><g
       id="g1326" /><g
       id="g1328" /><g
       id="g1330" /><g
       id="g1332" /><g
       id="g1334" /><g
       id="g1336" /><g
       id="g1338" /></g></svg>