<?xml version="1.0" encoding="UTF-8" standalone="no"?>
<!-- Generator: Adobe Illustrator 16.0.0, SVG Export Plug-In . SVG Version: 6.00 Build 0)  -->

<svg
   xmlns:dc="http://purl.org/dc/elements/1.1/"
   xmlns:cc="http://creativecommons.org/ns#"
   xmlns:rdf="http://www.w3.org/1999/02/22-rdf-syntax-ns#"
   xmlns:svg="http://www.w3.org/2000/svg"
   xmlns="http://www.w3.org/2000/svg"
   xmlns:sodipodi="http://sodipodi.sourceforge.net/DTD/sodipodi-0.dtd"
   xmlns:inkscape="http://www.inkscape.org/namespaces/inkscape"
   version="1.1"
   id="Capa_1"
   x="0px"
   y="0px"
   width="32"
   height="32"
   viewBox="0 0 32 32"
   xml:space="preserve"
   sodipodi:docname="project_icon.svg"
   inkscape:version="0.92.2 5c3e80d, 2017-08-06"><metadata
     id="metadata57"><rdf:RDF><cc:Work
         rdf:about=""><dc:format>image/svg+xml</dc:format><dc:type
           rdf:resource="http://purl.org/dc/dcmitype/StillImage" /><dc:title></dc:title></cc:Work></rdf:RDF></metadata><defs
     id="defs55" /><sodipodi:namedview
     pagecolor="#ffffff"
     bordercolor="#666666"
     borderopacity="1"
     objecttolerance="10"
     gridtolerance="10"
     guidetolerance="10"
     inkscape:pageopacity="0"
     inkscape:pageshadow="2"
     inkscape:window-width="1920"
     inkscape:window-height="1035"
     id="namedview53"
     showgrid="false"
     inkscape:showpageshadow="false"
     inkscape:zoom="18.959301"
     inkscape:cx="15.613787"
     inkscape:cy="19.35233"
     inkscape:window-x="0"
     inkscape:window-y="1"
     inkscape:window-maximized="1"
     inkscape:current-layer="Capa_1" /><g
     id="g22"
     transform="translate(0,-457.76599)" /><g
     id="g24"
     transform="translate(0,-457.76599)" /><g
     id="g26"
     transform="translate(0,-457.76599)" /><g
     id="g28"
     transform="translate(0,-457.76599)" /><g
     id="g30"
     transform="translate(0,-457.76599)" /><g
     id="g32"
     transform="translate(0,-457.76599)" /><g
     id="g34"
     transform="translate(0,-457.76599)" /><g
     id="g36"
     transform="translate(0,-457.76599)" /><g
     id="g38"
     transform="translate(0,-457.76599)" /><g
     id="g40"
     transform="translate(0,-457.76599)" /><g
     id="g42"
     transform="translate(0,-457.76599)" /><g
     id="g44"
     transform="translate(0,-457.76599)" /><g
     id="g46"
     transform="translate(0,-457.76599)" /><g
     id="g48"
     transform="translate(0,-457.76599)" /><g
     id="g50"
     transform="translate(0,-457.76599)" /><g
     id="g154"
     transform="matrix(0.03934386,0,0,0.03934386,-31.544825,4.838524)" /><g
     id="g156"
     transform="matrix(0.03934386,0,0,0.03934386,-31.544825,4.838524)" /><g
     id="g158"
     transform="matrix(0.03934386,0,0,0.03934386,-31.544825,4.838524)" /><g
     id="g160"
     transform="matrix(0.03934386,0,0,0.03934386,-31.544825,4.838524)" /><g
     id="g162"
     transform="matrix(0.03934386,0,0,0.03934386,-31.544825,4.838524)" /><g
     id="g164"
     transform="matrix(0.03934386,0,0,0.03934386,-31.544825,4.838524)" /><g
     id="g166"
     transform="matrix(0.03934386,0,0,0.03934386,-31.544825,4.838524)" /><g
     id="g168"
     transform="matrix(0.03934386,0,0,0.03934386,-31.544825,4.838524)" /><g
     id="g170"
     transform="matrix(0.03934386,0,0,0.03934386,-31.544825,4.838524)" /><g
     id="g172"
     transform="matrix(0.03934386,0,0,0.03934386,-31.544825,4.838524)" /><g
     id="g174"
     transform="matrix(0.03934386,0,0,0.03934386,-31.544825,4.838524)" /><g
     id="g176"
     transform="matrix(0.03934386,0,0,0.03934386,-31.544825,4.838524)" /><g
     id="g178"
     transform="matrix(0.03934386,0,0,0.03934386,-31.544825,4.838524)" /><g
     id="g180"
     transform="matrix(0.03934386,0,0,0.03934386,-31.544825,4.838524)" /><g
     id="g182"
     transform="matrix(0.03934386,0,0,0.03934386,-31.544825,4.838524)" /><g
     id="g487"
     transform="matrix(0.07197111,0,0,0.07197111,-55.236653,3.3444031)" /><g
     id="g489"
     transform="matrix(0.07197111,0,0,0.07197111,-55.236653,3.3444031)" /><g
     id="g491"
     transform="matrix(0.07197111,0,0,0.07197111,-55.236653,3.3444031)" /><g
     id="g493"
     transform="matrix(0.07197111,0,0,0.07197111,-55.236653,3.3444031)" /><g
     id="g495"
     transform="matrix(0.07197111,0,0,0.07197111,-55.236653,3.3444031)" /><g
     id="g497"
     transform="matrix(0.07197111,0,0,0.07197111,-55.236653,3.3444031)" /><g
     id="g499"
     transform="matrix(0.07197111,0,0,0.07197111,-55.236653,3.3444031)" /><g
     id="g501"
     transform="matrix(0.07197111,0,0,0.07197111,-55.236653,3.3444031)" /><g
     id="g503"
     transform="matrix(0.07197111,0,0,0.07197111,-55.236653,3.3444031)" /><g
     id="g505"
     transform="matrix(0.07197111,0,0,0.07197111,-55.236653,3.3444031)" /><g
     id="g507"
     transform="matrix(0.07197111,0,0,0.07197111,-55.236653,3.3444031)" /><g
     id="g509"
     transform="matrix(0.07197111,0,0,0.07197111,-55.236653,3.3444031)" /><g
     id="g511"
     transform="matrix(0.07197111,0,0,0.07197111,-55.236653,3.3444031)" /><g
     id="g513"
     transform="matrix(0.07197111,0,0,0.07197111,-55.236653,3.3444031)" /><g
     id="g515"
     transform="matrix(0.07197111,0,0,0.07197111,-55.236653,3.3444031)" /><g
     id="g1576"
     transform="translate(-721.71298,-343.33746)" /><g
     id="g1578"
     transform="translate(-721.71298,-343.33746)" /><g
     id="g1580"
     transform="translate(-721.71298,-343.33746)" /><g
     id="g1582"
     transform="translate(-721.71298,-343.33746)" /><g
     id="g1584"
     transform="translate(-721.71298,-343.33746)" /><g
     id="g1586"
     transform="translate(-721.71298,-343.33746)" /><g
     id="g1588"
     transform="translate(-721.71298,-343.33746)" /><g
     id="g1590"
     transform="translate(-721.71298,-343.33746)" /><g
     id="g1592"
     transform="translate(-721.71298,-343.33746)" /><g
     id="g1594"
     transform="translate(-721.71298,-343.33746)" /><g
     id="g1596"
     transform="translate(-721.71298,-343.33746)" /><g
     id="g1598"
     transform="translate(-721.71298,-343.33746)" /><g
     id="g1600"
     transform="translate(-721.71298,-343.33746)" /><g
     id="g1602"
     transform="translate(-721.71298,-343.33746)" /><g
     id="g1604"
     transform="translate(-721.71298,-343.33746)" /><path
     inkscape:connector-curvature="0"
     style="fill:#37abc8;stroke-width:0.05859375"
     d="M 24.793105,31 H 7.2068945 C 6.0642578,31 5.1379492,30.073691 5.1379492,28.931055 V 5.1379492 c 0,-1.1426367 0.9263086,-2.0689453 2.0689453,-2.0689453 H 24.793105 c 1.142637,0 2.068946,0.9263086 2.068946,2.0689453 V 28.931055 C 26.862051,30.073691 25.935742,31 24.793105,31 Z"
     id="path1906" /><path
     inkscape:connector-curvature="0"
     style="fill:#eff2fa;stroke-width:0.05859375"
     d="M 24.793105,4.6206836 H 7.2068945 c -0.2856445,0 -0.5172656,0.2316211 -0.5172656,0.5172656 V 28.931055 c 0,0.285644 0.2316211,0.517265 0.5172656,0.517265 H 21.172422 l 4.137949,-4.137949 V 5.1379492 c 0,-0.2856445 -0.231621,-0.5172656 -0.517266,-0.5172656 z"
     id="path1908" /><path
     inkscape:connector-curvature="0"
     style="fill:#666666;stroke-width:0.05859375"
     d="M 19.103477,3.0689453 H 17.551738 V 2.5516797 C 17.551738,1.6947461 16.856992,1 16,1 15.143008,1 14.448262,1.6947461 14.448262,2.5517383 v 0.5172656 h -1.551739 c -0.571289,0 -1.034472,0.463125 -1.034472,1.0344727 v 1.0344726 h 8.27584 V 4.1034766 c 5.8e-5,-0.5714063 -0.463125,-1.0345313 -1.034414,-1.0345313 z m -3.103477,0 c -0.285645,0 -0.517266,-0.2316211 -0.517266,-0.5172656 0,-0.2856445 0.231621,-0.5172656 0.517266,-0.5172656 0.285645,0 0.517266,0.2316211 0.517266,0.5172656 0,0.2856445 -0.231621,0.5172656 -0.517266,0.5172656 z"
     id="path1910" /><path
     inkscape:connector-curvature="0"
     style="fill:#999999;stroke-width:0.05859375"
     d="m 20.137949,5.6551562 h -8.275898 c -0.285645,0 -0.517266,-0.231621 -0.517266,-0.5172656 v 0 c 0,-0.2856445 0.231621,-0.5172656 0.517266,-0.5172656 h 8.27584 c 0.285644,0 0.517265,0.2316211 0.517265,0.5172656 v 0 c 0,0.2857031 -0.231562,0.5172656 -0.517207,0.5172656 z"
     id="path1912" /><path
     inkscape:connector-curvature="0"
     style="fill:#999999;stroke-width:0.05859375"
     d="M 12.379316,21.689629 H 9.2758398 c -0.2856445,0 -0.5172656,-0.231621 -0.5172656,-0.517266 v 0 c 0,-0.285644 0.2316211,-0.517265 0.5172656,-0.517265 h 3.1034762 c 0.285645,0 0.517266,0.231621 0.517266,0.517265 v 0 c -5.9e-5,0.285703 -0.231621,0.517266 -0.517266,0.517266 z"
     id="path1914" /><path
     id="path1916"
     d="m 22.72416,21.689629 h -8.275898 c -0.285645,0 -0.517266,-0.231621 -0.517266,-0.517266 v 0 c 0,-0.285644 0.231621,-0.517265 0.517266,-0.517265 h 8.27584 c 0.285644,0 0.517265,0.231621 0.517265,0.517265 v 0 c 0,0.285703 -0.231562,0.517266 -0.517207,0.517266 z"
     style="fill:#b3b3b3;stroke-width:0.05859375"
     inkscape:connector-curvature="0" /><path
     id="path1918"
     d="m 17.551738,24.793105 h -3.103476 c -0.285645,0 -0.517266,-0.231621 -0.517266,-0.517265 v 0 c 0,-0.285645 0.231621,-0.517266 0.517266,-0.517266 h 3.103476 c 0.285645,0 0.517266,0.231621 0.517266,0.517266 v 0 c -5.9e-5,0.285644 -0.231621,0.517265 -0.517266,0.517265 z"
     style="fill:#b3b3b3;stroke-width:0.05859375"
     inkscape:connector-curvature="0" /><path
     id="path1920"
     d="m 18.586211,26.862051 h -4.137949 c -0.285645,0 -0.517266,-0.231621 -0.517266,-0.517266 v 0 c 0,-0.285644 0.231621,-0.517265 0.517266,-0.517265 h 4.137949 c 0.285644,0 0.517266,0.231621 0.517266,0.517265 v 0 c 0,0.285703 -0.231622,0.517266 -0.517266,0.517266 z"
     style="fill:#b3b3b3;stroke-width:0.05859375"
     inkscape:connector-curvature="0" /><path
     inkscape:connector-curvature="0"
     style="fill:#b3b3b3;stroke-width:0.05859375"
     d="m 17.551738,19.620684 h -4.137949 c -0.285644,0 -0.517266,-0.231621 -0.517266,-0.517266 v 0 c 0,-0.285645 0.231622,-0.517266 0.517266,-0.517266 h 4.137949 c 0.285645,0 0.517266,0.231621 0.517266,0.517266 v 0 c -5.9e-5,0.285703 -0.231621,0.517266 -0.517266,0.517266 z"
     id="path1952" /><path
     id="path1954"
     d="m 22.72416,19.620684 h -3.103476 c -0.285645,0 -0.517266,-0.231621 -0.517266,-0.517266 v 0 c 0,-0.285645 0.231621,-0.517266 0.517266,-0.517266 h 3.103476 c 0.285645,0 0.517266,0.231621 0.517266,0.517266 v 0 c -5.9e-5,0.285703 -0.231621,0.517266 -0.517266,0.517266 z"
     style="fill:#b3b3b3;stroke-width:0.05859375"
     inkscape:connector-curvature="0" /><path
     id="path1956"
     d="M 11.344844,19.620684 H 9.2758984 c -0.2856445,0 -0.5172656,-0.231621 -0.5172656,-0.517266 v 0 c 0,-0.285645 0.2316211,-0.517266 0.5172656,-0.517266 h 2.0689456 c 0.285644,0 0.517265,0.231621 0.517265,0.517266 v 0 c -5.8e-5,0.285703 -0.231621,0.517266 -0.517265,0.517266 z"
     style="fill:#cccccc;stroke-width:0.05859375"
     inkscape:connector-curvature="0" /><path
     inkscape:connector-curvature="0"
     style="fill:#00ff66;stroke-width:0.05859375"
     d="m 10.827578,27.379316 c -1.1408202,0 -2.0689452,-0.928125 -2.0689452,-2.068945 0,-1.14082 0.928125,-2.068945 2.0689452,-2.068945 1.14082,0 2.068945,0.928125 2.068945,2.068945 0,1.14082 -0.928183,2.068945 -2.068945,2.068945 z m 0,-3.103476 c -0.570527,0 -1.0344725,0.463945 -1.0344725,1.034472 0,0.570528 0.4639455,1.034473 1.0344725,1.034473 0.570527,0 1.034473,-0.463945 1.034473,-1.034473 0,-0.570468 -0.463946,-1.034472 -1.034473,-1.034472 z"
     id="path1960" /><path
     inkscape:connector-curvature="0"
     style="fill:#cccccc;stroke-width:0.05859375"
     d="m 21.172422,29.448262 v -3.620684 c 0,-0.285644 0.231621,-0.517265 0.517265,-0.517265 h 3.620684 z"
     id="path1962" /><path
     id="path2114"
     d="M 20.951906,14.898932 18.586407,12.533435 C 18.119771,12.0668 17.422848,11.975897 16.861269,12.252646 l -2.15339,-2.153391 V 8.8447923 l -2.585685,-1.9392648 -1.292843,1.2928447 1.939262,2.5856848 h 1.254463 l 2.153391,2.15339 c -0.274729,0.561581 -0.185846,1.2585 0.28079,1.725137 l 2.365498,2.365501 c 0.294929,0.294929 0.771667,0.294929 1.064576,0 l 1.064575,-1.064576 c 0.292911,-0.294929 0.292911,-0.771668 0,-1.064577 z m -3.421994,-3.448255 c 0.571678,0 1.109017,0.222209 1.513031,0.626221 l 0.391892,0.391892 c 0.319171,-0.139388 0.622182,-0.333306 0.88479,-0.59592 0.749445,-0.749441 1.003974,-1.803916 0.765606,-2.7614274 C 21.04079,8.9296363 20.812522,8.8670134 20.679197,9.0003353 L 19.176267,10.503266 17.804641,10.274999 17.576375,8.9033734 19.079304,7.4004422 C 19.212623,7.2671193 19.147986,7.0388507 18.96416,6.9923883 18.006649,6.7560434 16.952174,7.0105666 16.204749,7.7579956 15.62903,8.3337163 15.35834,9.0932606 15.37248,9.8507827 l 1.658475,1.6584803 c 0.163625,-0.0384 0.333311,-0.05858 0.498957,-0.05858 z m -2.098849,1.656459 -1.145378,-1.145379 -3.078582,3.080602 c -0.505017,0.505015 -0.505017,1.323144 0,1.828161 0.505017,0.505016 1.323143,0.505016 1.828161,0 l 2.496803,-2.496803 C 15.378542,13.971722 15.33208,13.533368 15.431066,13.107136 Z m -3.308869,3.333109 c -0.266649,0 -0.484816,-0.218166 -0.484816,-0.484817 0,-0.268667 0.216148,-0.484818 0.484816,-0.484818 0.268669,0 0.484816,0.216151 0.484816,0.484818 0,0.266651 -0.216147,0.484817 -0.484816,0.484817 z"
     inkscape:connector-curvature="0"
     style="fill:#a05a2c;stroke-width:0.02020066" /></svg>