<?xml version="1.0" encoding="UTF-8" standalone="no"?>
<!-- Generator: Adobe Illustrator 16.0.0, SVG Export Plug-In . SVG Version: 6.00 Build 0)  -->

<svg
   xmlns:dc="http://purl.org/dc/elements/1.1/"
   xmlns:cc="http://creativecommons.org/ns#"
   xmlns:rdf="http://www.w3.org/1999/02/22-rdf-syntax-ns#"
   xmlns:svg="http://www.w3.org/2000/svg"
   xmlns="http://www.w3.org/2000/svg"
   xmlns:sodipodi="http://sodipodi.sourceforge.net/DTD/sodipodi-0.dtd"
   xmlns:inkscape="http://www.inkscape.org/namespaces/inkscape"
   version="1.1"
   id="Capa_1"
   x="0px"
   y="0px"
   width="32"
   height="32"
   viewBox="0 0 32 32"
   xml:space="preserve"
   sodipodi:docname="project_status_icon.svg"
   inkscape:version="0.92.2 5c3e80d, 2017-08-06"><metadata
     id="metadata57"><rdf:RDF><cc:Work
         rdf:about=""><dc:format>image/svg+xml</dc:format><dc:type
           rdf:resource="http://purl.org/dc/dcmitype/StillImage" /><dc:title></dc:title></cc:Work></rdf:RDF></metadata><defs
     id="defs55" /><sodipodi:namedview
     pagecolor="#ffffff"
     bordercolor="#666666"
     borderopacity="1"
     objecttolerance="10"
     gridtolerance="10"
     guidetolerance="10"
     inkscape:pageopacity="0"
     inkscape:pageshadow="2"
     inkscape:window-width="1920"
     inkscape:window-height="1035"
     id="namedview53"
     showgrid="false"
     inkscape:showpageshadow="false"
     inkscape:zoom="13.40625"
     inkscape:cx="8.4920762"
     inkscape:cy="21.600584"
     inkscape:window-x="0"
     inkscape:window-y="1"
     inkscape:window-maximized="1"
     inkscape:current-layer="Capa_1" /><g
     id="g22"
     transform="translate(0,-457.76599)" /><g
     id="g24"
     transform="translate(0,-457.76599)" /><g
     id="g26"
     transform="translate(0,-457.76599)" /><g
     id="g28"
     transform="translate(0,-457.76599)" /><g
     id="g30"
     transform="translate(0,-457.76599)" /><g
     id="g32"
     transform="translate(0,-457.76599)" /><g
     id="g34"
     transform="translate(0,-457.76599)" /><g
     id="g36"
     transform="translate(0,-457.76599)" /><g
     id="g38"
     transform="translate(0,-457.76599)" /><g
     id="g40"
     transform="translate(0,-457.76599)" /><g
     id="g42"
     transform="translate(0,-457.76599)" /><g
     id="g44"
     transform="translate(0,-457.76599)" /><g
     id="g46"
     transform="translate(0,-457.76599)" /><g
     id="g48"
     transform="translate(0,-457.76599)" /><g
     id="g50"
     transform="translate(0,-457.76599)" /><g
     id="g154"
     transform="matrix(0.03934386,0,0,0.03934386,-31.544825,4.838524)" /><g
     id="g156"
     transform="matrix(0.03934386,0,0,0.03934386,-31.544825,4.838524)" /><g
     id="g158"
     transform="matrix(0.03934386,0,0,0.03934386,-31.544825,4.838524)" /><g
     id="g160"
     transform="matrix(0.03934386,0,0,0.03934386,-31.544825,4.838524)" /><g
     id="g162"
     transform="matrix(0.03934386,0,0,0.03934386,-31.544825,4.838524)" /><g
     id="g164"
     transform="matrix(0.03934386,0,0,0.03934386,-31.544825,4.838524)" /><g
     id="g166"
     transform="matrix(0.03934386,0,0,0.03934386,-31.544825,4.838524)" /><g
     id="g168"
     transform="matrix(0.03934386,0,0,0.03934386,-31.544825,4.838524)" /><g
     id="g170"
     transform="matrix(0.03934386,0,0,0.03934386,-31.544825,4.838524)" /><g
     id="g172"
     transform="matrix(0.03934386,0,0,0.03934386,-31.544825,4.838524)" /><g
     id="g174"
     transform="matrix(0.03934386,0,0,0.03934386,-31.544825,4.838524)" /><g
     id="g176"
     transform="matrix(0.03934386,0,0,0.03934386,-31.544825,4.838524)" /><g
     id="g178"
     transform="matrix(0.03934386,0,0,0.03934386,-31.544825,4.838524)" /><g
     id="g180"
     transform="matrix(0.03934386,0,0,0.03934386,-31.544825,4.838524)" /><g
     id="g182"
     transform="matrix(0.03934386,0,0,0.03934386,-31.544825,4.838524)" /><g
     id="g487"
     transform="matrix(0.07197111,0,0,0.07197111,-55.236653,3.3444031)" /><g
     id="g489"
     transform="matrix(0.07197111,0,0,0.07197111,-55.236653,3.3444031)" /><g
     id="g491"
     transform="matrix(0.07197111,0,0,0.07197111,-55.236653,3.3444031)" /><g
     id="g493"
     transform="matrix(0.07197111,0,0,0.07197111,-55.236653,3.3444031)" /><g
     id="g495"
     transform="matrix(0.07197111,0,0,0.07197111,-55.236653,3.3444031)" /><g
     id="g497"
     transform="matrix(0.07197111,0,0,0.07197111,-55.236653,3.3444031)" /><g
     id="g499"
     transform="matrix(0.07197111,0,0,0.07197111,-55.236653,3.3444031)" /><g
     id="g501"
     transform="matrix(0.07197111,0,0,0.07197111,-55.236653,3.3444031)" /><g
     id="g503"
     transform="matrix(0.07197111,0,0,0.07197111,-55.236653,3.3444031)" /><g
     id="g505"
     transform="matrix(0.07197111,0,0,0.07197111,-55.236653,3.3444031)" /><g
     id="g507"
     transform="matrix(0.07197111,0,0,0.07197111,-55.236653,3.3444031)" /><g
     id="g509"
     transform="matrix(0.07197111,0,0,0.07197111,-55.236653,3.3444031)" /><g
     id="g511"
     transform="matrix(0.07197111,0,0,0.07197111,-55.236653,3.3444031)" /><g
     id="g513"
     transform="matrix(0.07197111,0,0,0.07197111,-55.236653,3.3444031)" /><g
     id="g515"
     transform="matrix(0.07197111,0,0,0.07197111,-55.236653,3.3444031)" /><g
     id="g1576"
     transform="translate(-721.71298,-343.33746)" /><g
     id="g1578"
     transform="translate(-721.71298,-343.33746)" /><g
     id="g1580"
     transform="translate(-721.71298,-343.33746)" /><g
     id="g1582"
     transform="translate(-721.71298,-343.33746)" /><g
     id="g1584"
     transform="translate(-721.71298,-343.33746)" /><g
     id="g1586"
     transform="translate(-721.71298,-343.33746)" /><g
     id="g1588"
     transform="translate(-721.71298,-343.33746)" /><g
     id="g1590"
     transform="translate(-721.71298,-343.33746)" /><g
     id="g1592"
     transform="translate(-721.71298,-343.33746)" /><g
     id="g1594"
     transform="translate(-721.71298,-343.33746)" /><g
     id="g1596"
     transform="translate(-721.71298,-343.33746)" /><g
     id="g1598"
     transform="translate(-721.71298,-343.33746)" /><g
     id="g1600"
     transform="translate(-721.71298,-343.33746)" /><g
     id="g1602"
     transform="translate(-721.71298,-343.33746)" /><g
     id="g1604"
     transform="translate(-721.71298,-343.33746)" /><g
     id="g1752"
     transform="translate(0.018648,4.6902813)"><path
       sodipodi:nodetypes="ccsssssscssscssssscc"
       id="path1524"
       d="m 25.600027,11.201635 c -19.1999856,0 -5.123687,0 -19.1999856,0 -1.6541528,0 -2.9999998,1.345848 -2.9999998,3 v 3.600027 c 0,0.331347 0.2683402,0.600027 0.6000272,0.600027 0.3316869,0 0.6000271,-0.26868 0.6000271,-0.600027 v -3.600027 c 0,-0.992546 0.8074675,-1.800013 1.8000135,-1.800013 H 15.4101 v 5.399972 c 0,0.331347 0.26834,0.600027 0.600027,0.600027 0.331619,0 0.600028,-0.26868 0.600028,-0.600027 v -5.399972 h 8.990008 c 0.992546,0 1.800013,0.807467 1.800013,1.800013 v 3.600027 c 0,0.331347 0.26834,0.600027 0.600027,0.600027 0.331619,0 0.600028,-0.26868 0.600028,-0.600027 v -3.600027 c -2.04e-4,-1.654085 -1.589476,-3.081118 -3.000204,-3 z"
       style="fill:#bcc1cb;fill-opacity:1;stroke-width:0.06796864"
       inkscape:connector-curvature="0" /><g
       transform="matrix(1.3369076,0,0,1.3369076,-5.3905671,-5.7953609)"
       id="g1726"><path
         inkscape:connector-curvature="0"
         style="fill:#ffd782;stroke-width:0.06796864"
         d="M 18.400041,20.801662 H 13.600027 C 13.26868,20.801662 13,20.532982 13,20.201635 v -2.399973 c 0,-0.331347 0.26868,-0.600027 0.600027,-0.600027 h 4.800014 c 0.331347,0 0.600027,0.26868 0.600027,0.600027 v 2.399973 C 19,20.532982 18.731388,20.801662 18.400041,20.801662 Z"
         id="path1564" /><path
         inkscape:connector-curvature="0"
         style="fill:#ffc36e;stroke-width:0.06796864"
         d="m 17.199986,19.601608 h -2.399972 c -0.331347,0 -0.600027,-0.26868 -0.600027,-0.600027 v 0 c 0,-0.331347 0.26868,-0.600027 0.600027,-0.600027 h 2.399972 c 0.331348,0 0.600028,0.26868 0.600028,0.600027 v 0 c 0,0.331415 -0.26868,0.600027 -0.600028,0.600027 z"
         id="path1566" /></g><g
       transform="matrix(1.3369076,0,0,1.3369076,-9.8916867,-5.7953609)"
       id="g1730"><path
         inkscape:connector-curvature="0"
         style="fill:#c3e678;stroke-width:0.06796864"
         d="m 30.399972,20.801662 h -4.800013 c -0.331347,0 -0.600027,-0.26868 -0.600027,-0.600027 v -2.399973 c 0,-0.331347 0.26868,-0.600027 0.600027,-0.600027 h 4.800013 c 0.331347,0 0.600027,0.26868 0.600027,0.600027 v 2.399973 c 0,0.331347 -0.26868,0.600027 -0.600027,0.600027 z"
         id="path1568" /><path
         inkscape:connector-curvature="0"
         style="fill:#a5d76e;stroke-width:0.06796864"
         d="m 29.199986,19.601608 h -2.399973 c -0.331347,0 -0.600027,-0.26868 -0.600027,-0.600027 v 0 c 0,-0.331347 0.26868,-0.600027 0.600027,-0.600027 h 2.399973 c 0.331347,0 0.600027,0.26868 0.600027,0.600027 v 0 c 0,0.331415 -0.26868,0.600027 -0.600027,0.600027 z"
         id="path1570" /></g><g
       transform="matrix(1.3369076,0,0,1.3369076,-0.92665249,-5.7953609)"
       id="g1722"><path
         inkscape:connector-curvature="0"
         style="fill:#ff6464;stroke-width:0.06796864"
         d="M 6.4000414,20.801662 H 1.6000281 c -0.3313471,0 -0.6000271,-0.26868 -0.6000271,-0.600027 v -2.399973 c 0,-0.331347 0.26868,-0.600027 0.6000271,-0.600027 h 4.8000133 c 0.3313472,0 0.6000272,0.26868 0.6000272,0.600027 v 2.399973 c -6.8e-5,0.331347 -0.26868,0.600027 -0.6000272,0.600027 z"
         id="path1572" /><path
         inkscape:connector-curvature="0"
         style="fill:#d2555a;stroke-width:0.06796864"
         d="M 5.2000551,19.601608 H 2.8000824 c -0.3313471,0 -0.6000271,-0.26868 -0.6000271,-0.600027 v 0 c 0,-0.331347 0.26868,-0.600027 0.6000271,-0.600027 h 2.3999727 c 0.3313471,0 0.6000272,0.26868 0.6000272,0.600027 v 0 c -6.8e-5,0.331415 -0.2686801,0.600027 -0.6000272,0.600027 z"
         id="path1574" /></g><path
       inkscape:connector-curvature="0"
       style="fill:#00ccff;stroke-width:0.18240735"
       d="M 22.440895,10.266286 H 9.5591031 c -0.8892355,0 -1.6102917,-0.7210558 -1.6102917,-1.6102914 V 2.2151899 c 0,-0.8892355 0.7210562,-1.61029169 1.6102917,-1.61029169 H 22.440895 c 0.889235,0 1.610292,0.72105619 1.610292,1.61029169 v 6.4408047 c -1.83e-4,0.8892356 -0.721057,1.6102914 -1.610292,1.6102914 z"
       id="path1732" /><path
       inkscape:connector-curvature="0"
       style="fill:#00aad4;stroke-width:0.18240735"
       d="m 19.220309,7.0457029 h -6.440802 c -0.889236,0 -1.610292,-0.7210562 -1.610292,-1.6102918 v 0 c 0,-0.8892355 0.721056,-1.6102917 1.610292,-1.6102917 h 6.440802 c 0.889238,0 1.610294,0.7210562 1.610294,1.6102917 v 0 c 0,0.8894181 -0.721056,1.6102918 -1.610294,1.6102918 z"
       id="path1734" /></g></svg>