<?xml version="1.0" encoding="UTF-8" standalone="no"?>
<!-- Generator: Adobe Illustrator 16.0.0, SVG Export Plug-In . SVG Version: 6.00 Build 0)  -->

<svg
   xmlns:dc="http://purl.org/dc/elements/1.1/"
   xmlns:cc="http://creativecommons.org/ns#"
   xmlns:rdf="http://www.w3.org/1999/02/22-rdf-syntax-ns#"
   xmlns:svg="http://www.w3.org/2000/svg"
   xmlns="http://www.w3.org/2000/svg"
   xmlns:sodipodi="http://sodipodi.sourceforge.net/DTD/sodipodi-0.dtd"
   xmlns:inkscape="http://www.inkscape.org/namespaces/inkscape"
   version="1.1"
   id="Capa_1"
   x="0px"
   y="0px"
   width="32"
   height="32"
   viewBox="0 0 32 32"
   xml:space="preserve"
   sodipodi:docname="purchase_typology.svg"
   inkscape:version="0.92.3 (2405546, 2018-03-11)"><metadata
     id="metadata57"><rdf:RDF><cc:Work
         rdf:about=""><dc:format>image/svg+xml</dc:format><dc:type
           rdf:resource="http://purl.org/dc/dcmitype/StillImage" /><dc:title></dc:title></cc:Work></rdf:RDF></metadata><defs
     id="defs55" /><sodipodi:namedview
     pagecolor="#ffffff"
     bordercolor="#666666"
     borderopacity="1"
     objecttolerance="10"
     gridtolerance="10"
     guidetolerance="10"
     inkscape:pageopacity="0"
     inkscape:pageshadow="2"
     inkscape:window-width="1920"
     inkscape:window-height="1032"
     id="namedview53"
     showgrid="false"
     inkscape:showpageshadow="false"
     inkscape:zoom="4.9546205"
     inkscape:cx="22.583917"
     inkscape:cy="20.172558"
     inkscape:window-x="0"
     inkscape:window-y="23"
     inkscape:window-maximized="1"
     inkscape:current-layer="g252" /><g
     id="g22"
     transform="translate(0,-457.76599)" /><g
     id="g24"
     transform="translate(0,-457.76599)" /><g
     id="g26"
     transform="translate(0,-457.76599)" /><g
     id="g28"
     transform="translate(0,-457.76599)" /><g
     id="g30"
     transform="translate(0,-457.76599)" /><g
     id="g32"
     transform="translate(0,-457.76599)" /><g
     id="g34"
     transform="translate(0,-457.76599)" /><g
     id="g36"
     transform="translate(0,-457.76599)" /><g
     id="g38"
     transform="translate(0,-457.76599)" /><g
     id="g40"
     transform="translate(0,-457.76599)" /><g
     id="g42"
     transform="translate(0,-457.76599)" /><g
     id="g44"
     transform="translate(0,-457.76599)" /><g
     id="g46"
     transform="translate(0,-457.76599)" /><g
     id="g48"
     transform="translate(0,-457.76599)" /><g
     id="g50"
     transform="translate(0,-457.76599)" /><g
     id="g154"
     transform="matrix(0.03934386,0,0,0.03934386,-31.544825,4.838524)" /><g
     id="g156"
     transform="matrix(0.03934386,0,0,0.03934386,-31.544825,4.838524)" /><g
     id="g158"
     transform="matrix(0.03934386,0,0,0.03934386,-31.544825,4.838524)" /><g
     id="g160"
     transform="matrix(0.03934386,0,0,0.03934386,-31.544825,4.838524)" /><g
     id="g162"
     transform="matrix(0.03934386,0,0,0.03934386,-31.544825,4.838524)" /><g
     id="g164"
     transform="matrix(0.03934386,0,0,0.03934386,-31.544825,4.838524)" /><g
     id="g166"
     transform="matrix(0.03934386,0,0,0.03934386,-31.544825,4.838524)" /><g
     id="g168"
     transform="matrix(0.03934386,0,0,0.03934386,-31.544825,4.838524)" /><g
     id="g170"
     transform="matrix(0.03934386,0,0,0.03934386,-31.544825,4.838524)" /><g
     id="g172"
     transform="matrix(0.03934386,0,0,0.03934386,-31.544825,4.838524)" /><g
     id="g174"
     transform="matrix(0.03934386,0,0,0.03934386,-31.544825,4.838524)" /><g
     id="g176"
     transform="matrix(0.03934386,0,0,0.03934386,-31.544825,4.838524)" /><g
     id="g178"
     transform="matrix(0.03934386,0,0,0.03934386,-31.544825,4.838524)" /><g
     id="g180"
     transform="matrix(0.03934386,0,0,0.03934386,-31.544825,4.838524)" /><g
     id="g182"
     transform="matrix(0.03934386,0,0,0.03934386,-31.544825,4.838524)" /><g
     id="g487"
     transform="matrix(0.07197111,0,0,0.07197111,-55.236653,3.3444031)" /><g
     id="g489"
     transform="matrix(0.07197111,0,0,0.07197111,-55.236653,3.3444031)" /><g
     id="g491"
     transform="matrix(0.07197111,0,0,0.07197111,-55.236653,3.3444031)" /><g
     id="g493"
     transform="matrix(0.07197111,0,0,0.07197111,-55.236653,3.3444031)" /><g
     id="g495"
     transform="matrix(0.07197111,0,0,0.07197111,-55.236653,3.3444031)" /><g
     id="g497"
     transform="matrix(0.07197111,0,0,0.07197111,-55.236653,3.3444031)" /><g
     id="g499"
     transform="matrix(0.07197111,0,0,0.07197111,-55.236653,3.3444031)" /><g
     id="g501"
     transform="matrix(0.07197111,0,0,0.07197111,-55.236653,3.3444031)" /><g
     id="g503"
     transform="matrix(0.07197111,0,0,0.07197111,-55.236653,3.3444031)" /><g
     id="g505"
     transform="matrix(0.07197111,0,0,0.07197111,-55.236653,3.3444031)" /><g
     id="g507"
     transform="matrix(0.07197111,0,0,0.07197111,-55.236653,3.3444031)" /><g
     id="g509"
     transform="matrix(0.07197111,0,0,0.07197111,-55.236653,3.3444031)" /><g
     id="g511"
     transform="matrix(0.07197111,0,0,0.07197111,-55.236653,3.3444031)" /><g
     id="g513"
     transform="matrix(0.07197111,0,0,0.07197111,-55.236653,3.3444031)" /><g
     id="g515"
     transform="matrix(0.07197111,0,0,0.07197111,-55.236653,3.3444031)" /><g
     id="g252"
     transform="matrix(0.05859375,0,0,0.05859375,1,1)"><path
       id="path190"
       d="m 196,169.60156 c -5.09766,0 -10.5,0 -15.90234,0.59766 h -0.89844 C 80.800781,179.5 0,272.90234 0,377 c 0,120.90234 112.30078,135 196,135 83.10156,0 180,-12.59766 193.5,-111.89844 14.09766,-116.40234 -78.30078,-230.5 -193.5,-230.5 z m 0,0"
       inkscape:connector-curvature="0"
       style="fill:#808080" /><path
       id="path192"
       d="M 389.5,400.10156 C 376,499.40234 279.10156,512 196,512 V 169.60156 c 115.19922,0 207.59766,114.09766 193.5,230.5 z m 0,0"
       inkscape:connector-curvature="0"
       style="fill:#333333" /><path
       id="path194"
       d="m 300.09766,49.800781 -30,90.999999 H 121.90234 L 91.902344,49.800781 c -1.804688,-4.5 -0.902344,-9.601562 1.796875,-13.5 C 96.699219,32.402344 101.19922,30 106,30 h 47.69922 C 159.69922,12.597656 176.5,0 196,0 c 19.5,0 36,12.597656 42.30078,30 H 286 c 4.80078,0 9.30078,2.402344 12.30078,6.300781 2.69922,3.898438 3.60156,9 1.79688,13.5 z m 0,0"
       inkscape:connector-curvature="0"
       style="fill:#808080;fill-opacity:1" /><path
       id="path196"
       d="m 300.09766,49.800781 -30,90.999999 H 196 V 0 c 19.5,0 36,12.597656 42.30078,30 H 286 c 4.80078,0 9.30078,2.402344 12.30078,6.300781 2.69922,3.898438 3.60156,9 1.79688,13.5 z m 0,0"
       inkscape:connector-curvature="0"
       style="fill:#333333" /><path
       id="path198"
       d="m 240.69922,381.5 c 0,19.5 -12.29688,35.69922 -29.69922,42 V 437 c 0,8.40234 -6.59766,15 -15,15 -8.40234,0 -15,-6.59766 -15,-15 V 423.80078 C 163.59766,417.5 150.69922,401 150.69922,381.5 c 0,-8.39844 6.89844,-15 15,-15 8.40234,0 15,6.60156 15,15 0,8.10156 6.89844,15 15,15 H 196 c 8.40234,-0.30078 14.69922,-6.89844 14.69922,-15 0,-8.39844 -6.29688,-14.69922 -14.69922,-15 h -0.30078 c -24.59766,0 -45,-20.40234 -45,-45 0,-19.80078 12.90234,-36.30078 30.30078,-42.30078 V 257 c 0,-8.40234 6.59766,-15 15,-15 8.40234,0 15,6.59766 15,15 v 22.19922 C 228.40234,285.5 240.69922,302 240.69922,321.5 c 0,8.10156 -6.59766,15 -15,15 -8.10156,0 -15,-6.89844 -15,-15 0,-8.39844 -6.29688,-14.69922 -14.69922,-15 h -0.30078 c -8.10156,0 -15,6.60156 -15,15 0,8.10156 6.89844,15 15,15 H 196 c 24.90234,0.30078 44.69922,20.10156 44.69922,45 z m 0,0"
       inkscape:connector-curvature="0"
       style="fill:#ffda2d" /><path
       id="path200"
       d="m 512,302 c 0,16.5 -13.5,30 -30,30 l -76,30 -75,-30 c -16.5,0 -30,-13.5 -30,-30 0,-16.5 13.5,-30 30,-30 h 151 c 16.5,0 30,13.5 30,30 z m 0,0"
       inkscape:connector-curvature="0"
       style="fill:#ffda2d" /><path
       id="path202"
       d="m 512,302 c 0,16.5 -13.5,30 -30,30 l -76,30 v -90 h 76 c 16.5,0 30,13.5 30,30 z m 0,0"
       inkscape:connector-curvature="0"
       style="fill:#fdbf00" /><path
       id="path204"
       d="m 512,362 c 0,16.5 -13.5,30 -30,30 l -76,30 -75,-30 c -16.5,0 -30,-13.5 -30,-30 0,-16.5 13.5,-30 30,-30 h 151 c 16.5,0 30,13.5 30,30 z m 0,0"
       inkscape:connector-curvature="0"
       style="fill:#fdbf00" /><path
       id="path206"
       d="m 512,362 c 0,16.5 -13.5,30 -30,30 l -76,30 v -90 h 76 c 16.5,0 30,13.5 30,30 z m 0,0"
       inkscape:connector-curvature="0"
       style="fill:#ff9100" /><path
       id="path208"
       d="m 512,422 c 0,16.5 -13.5,30 -30,30 l -76,30 -75,-30 c -16.5,0 -30,-13.5 -30,-30 0,-16.5 13.5,-30 30,-30 h 151 c 16.5,0 30,13.5 30,30 z m 0,0"
       inkscape:connector-curvature="0"
       style="fill:#ffda2d" /><path
       id="path210"
       d="m 512,422 c 0,16.5 -13.5,30 -30,30 l -76,30 v -90 h 76 c 16.5,0 30,13.5 30,30 z m 0,0"
       inkscape:connector-curvature="0"
       style="fill:#fdbf00" /><path
       id="path212"
       d="m 512,482 c 0,16.5 -13.5,30 -30,30 H 331 c -16.5,0 -30,-13.5 -30,-30 0,-16.5 13.5,-30 30,-30 h 151 c 16.5,0 30,13.5 30,30 z m 0,0"
       inkscape:connector-curvature="0"
       style="fill:#fdbf00" /><path
       id="path214"
       d="m 512,482 c 0,16.5 -13.5,30 -30,30 h -76 v -60 h 76 c 16.5,0 30,13.5 30,30 z m 0,0"
       inkscape:connector-curvature="0"
       style="fill:#ff9100" /><path
       id="path216"
       d="m 301,151 c 0,16.5 -13.5,30 -30,30 H 121 c -16.5,0 -30,-13.5 -30,-30 0,-16.5 13.5,-30 30,-30 h 150 c 16.5,0 30,13.5 30,30 z m 0,0"
       inkscape:connector-curvature="0"
       style="fill:#ffda2d" /><g
       id="g224"
       style="fill:#fdbf00"><path
         id="path218"
         d="m 240.69922,381.5 c 0,19.5 -12.29688,35.69922 -29.69922,42 V 437 c 0,8.40234 -6.59766,15 -15,15 v -55.5 c 8.40234,-0.30078 14.69922,-6.89844 14.69922,-15 0,-8.39844 -6.29688,-14.69922 -14.69922,-15 v -30 c 24.90234,0.30078 44.69922,20.10156 44.69922,45 z m 0,0"
         inkscape:connector-curvature="0" /><path
         id="path220"
         d="m 240.69922,321.5 c 0,8.10156 -6.59766,15 -15,15 -8.10156,0 -15,-6.89844 -15,-15 0,-8.39844 -6.29688,-14.69922 -14.69922,-15 V 242 c 8.40234,0 15,6.59766 15,15 v 22.19922 C 228.40234,285.5 240.69922,302 240.69922,321.5 Z m 0,0"
         inkscape:connector-curvature="0" /><path
         id="path222"
         d="m 301,151 c 0,16.5 -13.5,30 -30,30 h -75 v -60 h 75 c 16.5,0 30,13.5 30,30 z m 0,0"
         inkscape:connector-curvature="0" /></g></g></svg>