<?xml version="1.0" encoding="UTF-8" standalone="no"?>
<!-- Generator: Adobe Illustrator 16.0.0, SVG Export Plug-In . SVG Version: 6.00 Build 0)  -->

<svg
   xmlns:dc="http://purl.org/dc/elements/1.1/"
   xmlns:cc="http://creativecommons.org/ns#"
   xmlns:rdf="http://www.w3.org/1999/02/22-rdf-syntax-ns#"
   xmlns:svg="http://www.w3.org/2000/svg"
   xmlns="http://www.w3.org/2000/svg"
   xmlns:sodipodi="http://sodipodi.sourceforge.net/DTD/sodipodi-0.dtd"
   xmlns:inkscape="http://www.inkscape.org/namespaces/inkscape"
   version="1.1"
   id="Capa_1"
   x="0px"
   y="0px"
   width="32"
   height="32"
   viewBox="0 0 32 32"
   xml:space="preserve"
   sodipodi:docname="purchase_icon.svg"
   inkscape:version="0.92.3 (2405546, 2018-03-11)"><metadata
     id="metadata57"><rdf:RDF><cc:Work
         rdf:about=""><dc:format>image/svg+xml</dc:format><dc:type
           rdf:resource="http://purl.org/dc/dcmitype/StillImage" /><dc:title></dc:title></cc:Work></rdf:RDF></metadata><defs
     id="defs55" /><sodipodi:namedview
     pagecolor="#ffffff"
     bordercolor="#666666"
     borderopacity="1"
     objecttolerance="10"
     gridtolerance="10"
     guidetolerance="10"
     inkscape:pageopacity="0"
     inkscape:pageshadow="2"
     inkscape:window-width="1920"
     inkscape:window-height="1032"
     id="namedview53"
     showgrid="false"
     inkscape:showpageshadow="false"
     inkscape:zoom="18.649941"
     inkscape:cx="16.910877"
     inkscape:cy="14.884961"
     inkscape:window-x="0"
     inkscape:window-y="23"
     inkscape:window-maximized="1"
     inkscape:current-layer="g1086" /><g
     id="g22"
     transform="translate(0,-457.76599)" /><g
     id="g24"
     transform="translate(0,-457.76599)" /><g
     id="g26"
     transform="translate(0,-457.76599)" /><g
     id="g28"
     transform="translate(0,-457.76599)" /><g
     id="g30"
     transform="translate(0,-457.76599)" /><g
     id="g32"
     transform="translate(0,-457.76599)" /><g
     id="g34"
     transform="translate(0,-457.76599)" /><g
     id="g36"
     transform="translate(0,-457.76599)" /><g
     id="g38"
     transform="translate(0,-457.76599)" /><g
     id="g40"
     transform="translate(0,-457.76599)" /><g
     id="g42"
     transform="translate(0,-457.76599)" /><g
     id="g44"
     transform="translate(0,-457.76599)" /><g
     id="g46"
     transform="translate(0,-457.76599)" /><g
     id="g48"
     transform="translate(0,-457.76599)" /><g
     id="g50"
     transform="translate(0,-457.76599)" /><g
     id="g154"
     transform="matrix(0.03934386,0,0,0.03934386,-31.544825,4.838524)" /><g
     id="g156"
     transform="matrix(0.03934386,0,0,0.03934386,-31.544825,4.838524)" /><g
     id="g158"
     transform="matrix(0.03934386,0,0,0.03934386,-31.544825,4.838524)" /><g
     id="g160"
     transform="matrix(0.03934386,0,0,0.03934386,-31.544825,4.838524)" /><g
     id="g162"
     transform="matrix(0.03934386,0,0,0.03934386,-31.544825,4.838524)" /><g
     id="g164"
     transform="matrix(0.03934386,0,0,0.03934386,-31.544825,4.838524)" /><g
     id="g166"
     transform="matrix(0.03934386,0,0,0.03934386,-31.544825,4.838524)" /><g
     id="g168"
     transform="matrix(0.03934386,0,0,0.03934386,-31.544825,4.838524)" /><g
     id="g170"
     transform="matrix(0.03934386,0,0,0.03934386,-31.544825,4.838524)" /><g
     id="g172"
     transform="matrix(0.03934386,0,0,0.03934386,-31.544825,4.838524)" /><g
     id="g174"
     transform="matrix(0.03934386,0,0,0.03934386,-31.544825,4.838524)" /><g
     id="g176"
     transform="matrix(0.03934386,0,0,0.03934386,-31.544825,4.838524)" /><g
     id="g178"
     transform="matrix(0.03934386,0,0,0.03934386,-31.544825,4.838524)" /><g
     id="g180"
     transform="matrix(0.03934386,0,0,0.03934386,-31.544825,4.838524)" /><g
     id="g182"
     transform="matrix(0.03934386,0,0,0.03934386,-31.544825,4.838524)" /><g
     id="g487"
     transform="matrix(0.07197111,0,0,0.07197111,-55.236653,3.3444031)" /><g
     id="g489"
     transform="matrix(0.07197111,0,0,0.07197111,-55.236653,3.3444031)" /><g
     id="g491"
     transform="matrix(0.07197111,0,0,0.07197111,-55.236653,3.3444031)" /><g
     id="g493"
     transform="matrix(0.07197111,0,0,0.07197111,-55.236653,3.3444031)" /><g
     id="g495"
     transform="matrix(0.07197111,0,0,0.07197111,-55.236653,3.3444031)" /><g
     id="g497"
     transform="matrix(0.07197111,0,0,0.07197111,-55.236653,3.3444031)" /><g
     id="g499"
     transform="matrix(0.07197111,0,0,0.07197111,-55.236653,3.3444031)" /><g
     id="g501"
     transform="matrix(0.07197111,0,0,0.07197111,-55.236653,3.3444031)" /><g
     id="g503"
     transform="matrix(0.07197111,0,0,0.07197111,-55.236653,3.3444031)" /><g
     id="g505"
     transform="matrix(0.07197111,0,0,0.07197111,-55.236653,3.3444031)" /><g
     id="g507"
     transform="matrix(0.07197111,0,0,0.07197111,-55.236653,3.3444031)" /><g
     id="g509"
     transform="matrix(0.07197111,0,0,0.07197111,-55.236653,3.3444031)" /><g
     id="g511"
     transform="matrix(0.07197111,0,0,0.07197111,-55.236653,3.3444031)" /><g
     id="g513"
     transform="matrix(0.07197111,0,0,0.07197111,-55.236653,3.3444031)" /><g
     id="g515"
     transform="matrix(0.07197111,0,0,0.07197111,-55.236653,3.3444031)" /><g
     id="g1086"
     transform="matrix(0.06205768,0,0,0.06205768,0.11323392,0.11323392)"><path
       id="path1001"
       d="m 415,25 v 130 c 0,2.761 -2.239,5 -5,5 H 260 c -2.761,0 -5,-2.239 -5,-5 V 25 c 0,-2.761 2.239,-5 5,-5 h 150 c 2.761,0 5,2.239 5,5 z"
       style="fill:#d29650"
       inkscape:connector-curvature="0" /><path
       id="path1003"
       d="M 445,262.5 195,300 V 150 h 250 z"
       style="fill:#aa6432"
       inkscape:connector-curvature="0" /><path
       id="path1005"
       d="M 300,60 H 255 V 40 h 45 c 2.761,0 5,2.239 5,5 v 10 c 0,2.761 -2.239,5 -5,5 z"
       style="fill:#f7d139"
       inkscape:connector-curvature="0" /><path
       id="path1009"
       d="m 290,240 h -95 v -60 h 95 c 2.761,0 5,2.239 5,5 v 50 c 0,2.761 -2.239,5 -5,5 z"
       style="fill:#ff6633"
       inkscape:connector-curvature="0" /><path
       id="path1011"
       d="M 487,77.5 H 224.991 c -0.011,0 -0.023,0 -0.034,0 h -92.15 L 124.701,45.075 C 123.492,40.238 118.945,37.122 114.133,37.548 113.826,37.519 113.515,37.5 113.2,37.5 H 34.8 c -5.412,0 -9.8,4.477 -9.8,10 0,5.523 4.387,10 9.8,10 h 72.393 l 8.034,32.138 39.343,207.532 -19.056,57.168 c -1.747,5.239 1.085,10.902 6.325,12.649 1.049,0.35 2.115,0.516 3.164,0.516 4.187,0 8.089,-2.65 9.485,-6.841 l 17.664,-52.992 316.113,-40.25 c 4.994,-0.636 8.737,-4.885 8.737,-9.92 v -59.876 c 0,-0.001 0,-0.002 0,-0.002 L 497,87.5 c 0,-5.523 -4.477,-10 -10,-10 z m -349.927,20 h 78.924 l 5.027,47.76 -74.482,2.19 z m 13.242,69.848 72.81,-2.141 4.807,45.663 -68.197,6.162 z m 22.757,120.044 -9.596,-50.617 66.549,-6.014 5.03,47.786 c 0.033,0.316 0.082,0.628 0.143,0.934 z M 236.107,97.5 h 78.905 c 0,0.195 -0.007,0.39 0.005,0.587 l 2.608,44.331 -76.552,2.251 z m 7.065,67.117 75.627,-2.224 2.356,40.053 -73.304,6.624 z m 11.8,112.346 c -0.009,-0.17 -0.01,-0.339 -0.028,-0.51 l -4.999,-47.492 72.385,-6.541 2.684,45.625 z M 335.017,97.5 H 405 v 42.349 l -67.375,1.981 z m 3.783,64.304 66.2,-1.947 v 35.011 l -63.915,5.776 z m 6.1,103.709 -2.641,-44.893 62.741,-5.67 v 42.55 c 0,0.121 0.014,0.238 0.018,0.358 z m 132.1,-16.821 -52,6.621 v -42.17 l 52,-4.699 z m 0,-60.329 -52,4.699 V 159.27 l 52,-1.529 z m 0,-50.632 -52,1.529 V 97.5 h 52 z"
       style="fill:#333333"
       inkscape:connector-curvature="0" /><path
       id="path1013"
       d="m 445,345 v 20 c 0,2.761 -2.239,5 -5,5 H 140 c -2.761,0 -5,-2.239 -5,-5 v -20 c 0,-2.761 2.239,-5 5,-5 h 300 c 2.761,0 5,2.239 5,5 z M 78.75,30 H 36.25 C 25.894,30 17.5,38.395 17.5,48.75 v 0 c 0,10.355 8.395,18.75 18.75,18.75 h 42.5 c 10.355,0 18.75,-8.395 18.75,-18.75 v 0 C 97.5,38.395 89.105,30 78.75,30 Z"
       style="fill:#6c5353"
       inkscape:connector-curvature="0" /><path
       id="path1015"
       d="m 405,342.5 v 70 c 0,2.761 -2.239,5 -5,5 h -20 c -2.761,0 -5,-2.239 -5,-5 v -70 c 0,-2.761 2.239,-5 5,-5 h 20 c 2.761,0 5,2.239 5,5 z m -195,-5 h -20 c -2.761,0 -5,2.239 -5,5 v 70 c 0,2.761 2.239,5 5,5 h 20 c 2.761,0 5,-2.239 5,-5 v -70 c 0,-2.761 -2.239,-5 -5,-5 z"
       style="fill:#a05a2c"
       inkscape:connector-curvature="0" /><path
       id="path1017"
       d="m 425,422.5 c 0,19.33 -15.67,35 -35,35 -19.33,0 -35,-15.67 -35,-35 0,-19.33 15.67,-35 35,-35 19.33,0 35,15.67 35,35 z m -225,-35 c -19.33,0 -35,15.67 -35,35 0,19.33 15.67,35 35,35 19.33,0 35,-15.67 35,-35 0,-19.33 -15.67,-35 -35,-35 z"
       style="fill:#1a1a1a"
       inkscape:connector-curvature="0" /><path
       id="path1019"
       d="m 410,422.5 c 0,11.046 -8.954,20 -20,20 -11.046,0 -20,-8.954 -20,-20 0,-11.046 8.954,-20 20,-20 11.045,0 20,8.954 20,20 z m -210,-20 c -11.046,0 -20,8.954 -20,20 0,11.046 8.954,20 20,20 11.046,0 20,-8.954 20,-20 0,-11.046 -8.955,-20 -20,-20 z"
       style="fill:#a05a2c"
       inkscape:connector-curvature="0" /><g
       id="g1021">
</g><g
       id="g1023">
</g><g
       id="g1025">
</g><g
       id="g1027">
</g><g
       id="g1029">
</g><g
       id="g1031">
</g><g
       id="g1033">
</g><g
       id="g1035">
</g><g
       id="g1037">
</g><g
       id="g1039">
</g><g
       id="g1041">
</g><g
       id="g1043">
</g><g
       id="g1045">
</g><g
       id="g1047">
</g><g
       id="g1049">
</g></g></svg>