<?xml version="1.0" encoding="UTF-8" standalone="no"?>
<!-- Generator: Adobe Illustrator 16.0.0, SVG Export Plug-In . SVG Version: 6.00 Build 0)  -->

<svg
   xmlns:dc="http://purl.org/dc/elements/1.1/"
   xmlns:cc="http://creativecommons.org/ns#"
   xmlns:rdf="http://www.w3.org/1999/02/22-rdf-syntax-ns#"
   xmlns:svg="http://www.w3.org/2000/svg"
   xmlns="http://www.w3.org/2000/svg"
   xmlns:sodipodi="http://sodipodi.sourceforge.net/DTD/sodipodi-0.dtd"
   xmlns:inkscape="http://www.inkscape.org/namespaces/inkscape"
   version="1.1"
   id="Capa_1"
   x="0px"
   y="0px"
   width="32"
   height="32"
   viewBox="0 0 32 32"
   xml:space="preserve"
   sodipodi:docname="purchase_typology_icon.svg"
   inkscape:version="0.92.3 (2405546, 2018-03-11)"><metadata
     id="metadata57"><rdf:RDF><cc:Work
         rdf:about=""><dc:format>image/svg+xml</dc:format><dc:type
           rdf:resource="http://purl.org/dc/dcmitype/StillImage" /><dc:title></dc:title></cc:Work></rdf:RDF></metadata><defs
     id="defs55" /><sodipodi:namedview
     pagecolor="#ffffff"
     bordercolor="#666666"
     borderopacity="1"
     objecttolerance="10"
     gridtolerance="10"
     guidetolerance="10"
     inkscape:pageopacity="0"
     inkscape:pageshadow="2"
     inkscape:window-width="1920"
     inkscape:window-height="1032"
     id="namedview53"
     showgrid="false"
     inkscape:showpageshadow="false"
     inkscape:zoom="2.1962709"
     inkscape:cx="96.879267"
     inkscape:cy="17.761199"
     inkscape:window-x="0"
     inkscape:window-y="23"
     inkscape:window-maximized="1"
     inkscape:current-layer="g252" /><g
     id="g22"
     transform="translate(0,-457.76599)" /><g
     id="g24"
     transform="translate(0,-457.76599)" /><g
     id="g26"
     transform="translate(0,-457.76599)" /><g
     id="g28"
     transform="translate(0,-457.76599)" /><g
     id="g30"
     transform="translate(0,-457.76599)" /><g
     id="g32"
     transform="translate(0,-457.76599)" /><g
     id="g34"
     transform="translate(0,-457.76599)" /><g
     id="g36"
     transform="translate(0,-457.76599)" /><g
     id="g38"
     transform="translate(0,-457.76599)" /><g
     id="g40"
     transform="translate(0,-457.76599)" /><g
     id="g42"
     transform="translate(0,-457.76599)" /><g
     id="g44"
     transform="translate(0,-457.76599)" /><g
     id="g46"
     transform="translate(0,-457.76599)" /><g
     id="g48"
     transform="translate(0,-457.76599)" /><g
     id="g50"
     transform="translate(0,-457.76599)" /><g
     id="g154"
     transform="matrix(0.03934386,0,0,0.03934386,-31.544825,4.838524)" /><g
     id="g156"
     transform="matrix(0.03934386,0,0,0.03934386,-31.544825,4.838524)" /><g
     id="g158"
     transform="matrix(0.03934386,0,0,0.03934386,-31.544825,4.838524)" /><g
     id="g160"
     transform="matrix(0.03934386,0,0,0.03934386,-31.544825,4.838524)" /><g
     id="g162"
     transform="matrix(0.03934386,0,0,0.03934386,-31.544825,4.838524)" /><g
     id="g164"
     transform="matrix(0.03934386,0,0,0.03934386,-31.544825,4.838524)" /><g
     id="g166"
     transform="matrix(0.03934386,0,0,0.03934386,-31.544825,4.838524)" /><g
     id="g168"
     transform="matrix(0.03934386,0,0,0.03934386,-31.544825,4.838524)" /><g
     id="g170"
     transform="matrix(0.03934386,0,0,0.03934386,-31.544825,4.838524)" /><g
     id="g172"
     transform="matrix(0.03934386,0,0,0.03934386,-31.544825,4.838524)" /><g
     id="g174"
     transform="matrix(0.03934386,0,0,0.03934386,-31.544825,4.838524)" /><g
     id="g176"
     transform="matrix(0.03934386,0,0,0.03934386,-31.544825,4.838524)" /><g
     id="g178"
     transform="matrix(0.03934386,0,0,0.03934386,-31.544825,4.838524)" /><g
     id="g180"
     transform="matrix(0.03934386,0,0,0.03934386,-31.544825,4.838524)" /><g
     id="g182"
     transform="matrix(0.03934386,0,0,0.03934386,-31.544825,4.838524)" /><g
     id="g487"
     transform="matrix(0.07197111,0,0,0.07197111,-55.236653,3.3444031)" /><g
     id="g489"
     transform="matrix(0.07197111,0,0,0.07197111,-55.236653,3.3444031)" /><g
     id="g491"
     transform="matrix(0.07197111,0,0,0.07197111,-55.236653,3.3444031)" /><g
     id="g493"
     transform="matrix(0.07197111,0,0,0.07197111,-55.236653,3.3444031)" /><g
     id="g495"
     transform="matrix(0.07197111,0,0,0.07197111,-55.236653,3.3444031)" /><g
     id="g497"
     transform="matrix(0.07197111,0,0,0.07197111,-55.236653,3.3444031)" /><g
     id="g499"
     transform="matrix(0.07197111,0,0,0.07197111,-55.236653,3.3444031)" /><g
     id="g501"
     transform="matrix(0.07197111,0,0,0.07197111,-55.236653,3.3444031)" /><g
     id="g503"
     transform="matrix(0.07197111,0,0,0.07197111,-55.236653,3.3444031)" /><g
     id="g505"
     transform="matrix(0.07197111,0,0,0.07197111,-55.236653,3.3444031)" /><g
     id="g507"
     transform="matrix(0.07197111,0,0,0.07197111,-55.236653,3.3444031)" /><g
     id="g509"
     transform="matrix(0.07197111,0,0,0.07197111,-55.236653,3.3444031)" /><g
     id="g511"
     transform="matrix(0.07197111,0,0,0.07197111,-55.236653,3.3444031)" /><g
     id="g513"
     transform="matrix(0.07197111,0,0,0.07197111,-55.236653,3.3444031)" /><g
     id="g515"
     transform="matrix(0.07197111,0,0,0.07197111,-55.236653,3.3444031)" /><g
     id="g252"
     transform="matrix(0.05859375,0,0,0.05859375,1,1)"><g
       id="g4988"
       transform="matrix(1.0000076,0,0,1.0000076,-0.0019456,9.4148579e-6)"><path
         id="path4929"
         d="M 118.35938,254.6875 45.503906,304.41406 C 20.371094,304.41406 0,234.3125 0,209.17969 0,196.60547 5.09375,185.23047 13.332031,176.99609 21.566406,168.76172 32.9375,163.66797 45.503906,163.66797 H 341.85547 c 21.32422,0 38.59765,17.27344 38.59765,38.59765 v 19.35547"
         inkscape:connector-curvature="0"
         style="fill:#ce6209" /><path
         id="path4931"
         d="M 275.30859,26.484375 V 254.6875 H 49.574219 V 26.484375 C 49.574219,11.855469 61.429688,0 76.066406,0 H 248.81641 c 14.6289,0 26.49218,11.855469 26.49218,26.484375 z m 0,0"
         inkscape:connector-curvature="0"
         style="fill:#3c3f4d" /><path
         id="path4933"
         d="M 253.23047,59.703125 V 254.6875 H 71.640625 V 59.703125 c 0,-7.375 5.984375,-13.363281 13.363281,-13.363281 H 239.87109 c 7.38672,0 13.35938,5.988281 13.35938,13.363281 z m 0,0"
         inkscape:connector-curvature="0"
         style="fill:#c4e2f2" /><path
         id="path4935"
         d="M 253.23437,59.699219 V 301.57812 c 0,7.38282 -5.98437,13.36329 -13.35937,13.36329 h -18.89844 c 7.37891,0 13.36719,-5.98047 13.36719,-13.36329 V 59.699219 c 0,-7.382813 -5.98828,-13.359375 -13.36719,-13.359375 H 239.875 c 7.375,0 13.35937,5.976562 13.35937,13.359375 z m 0,0"
         inkscape:connector-curvature="0"
         style="fill:#83b2c6" /><path
         id="path4937"
         d="M 400.76562,104.03125 H 179.28516 c -16.03907,0 -29.04297,13 -29.04297,29.04297 v 124.39453 c 0,16.03906 13.0039,29.04297 29.04297,29.04297 h 221.48046 c 17.37891,0 31.46485,-14.08985 31.46485,-31.46875 V 135.49609 c 0,-17.3789 -14.08594,-31.46484 -31.46485,-31.46484 z m 0,0"
         inkscape:connector-curvature="0"
         style="fill:#83b2c6" /><path
         id="path4939"
         d="M 423.10156,104.03125 H 201.62109 c -16.03906,0 -29.04297,13 -29.04297,29.04297 v 124.39453 c 0,16.03906 13.00391,29.04297 29.04297,29.04297 h 221.48047 c 17.375,0 31.46485,-14.08985 31.46485,-31.46875 V 135.49609 c 0,-17.3789 -14.08985,-31.46484 -31.46485,-31.46484 z m 0,0"
         inkscape:connector-curvature="0"
         style="fill:#ff491f" /><path
         id="path4941"
         d="m 172.57812,145.10156 h 281.98829 v 38.16406 H 172.57812 Z m 0,0"
         inkscape:connector-curvature="0"
         style="fill:#2d303b" /><path
         id="path4943"
         d="m 106.07422,221.61719 h 380.8125 v 219.125 h -380.8125 z m 0,0"
         inkscape:connector-curvature="0"
         style="fill:#83b2c6" /><path
         id="path4945"
         d="M 131.1875,221.61719 H 512 v 219.125 H 131.1875 Z m 0,0"
         inkscape:connector-curvature="0"
         style="fill:#32cc77" /><path
         id="path4947"
         d="m 479.04687,367.28906 v -72.21484 c -22.36718,0 -40.5039,-18.13672 -40.5039,-40.50391 H 204.64062 c 0,22.36719 -18.13281,40.50391 -40.5,40.50391 v 72.21484 c 22.36719,0 40.5,18.13281 40.5,40.5 h 233.90235 c 0,-22.36719 18.13281,-40.5 40.5039,-40.5 z m 0,0"
         inkscape:connector-curvature="0"
         style="fill:#1fb25e" /><path
         id="path4949"
         d="M 429.35937,339.02734 H 404.25 c -4.33594,0 -7.84766,-3.51172 -7.84766,-7.84765 0,-4.33203 3.51172,-7.84766 7.84766,-7.84766 h 25.10937 c 4.33204,0 7.84766,3.51563 7.84766,7.84766 0,4.33594 -3.51562,7.84765 -7.84766,7.84765 z m 0,0"
         inkscape:connector-curvature="0"
         style="fill:#32cc77" /><path
         id="path4951"
         d="m 479.04687,262.41016 c -6.90234,0 -10.43359,-8.71094 -5.42968,-13.50391 2.26953,-2.17188 5.73828,-2.78125 8.60937,-1.50391 3.11328,1.38672 5.03906,4.72657 4.60156,8.12891 -0.49609,3.87891 -3.85156,6.87891 -7.78125,6.87891 z m 0,0"
         inkscape:connector-curvature="0"
         style="fill:#1fb25e" /><path
         id="path4953"
         d="m 479.04687,415.63672 c -7.03906,0 -10.52734,-9.04297 -5.19531,-13.72266 2.38672,-2.08984 5.88281,-2.55078 8.71875,-1.1289 3.03125,1.52343 4.78125,4.94531 4.21485,8.30078 -0.63282,3.72656 -3.94922,6.55078 -7.73829,6.55078 z m 0,0"
         inkscape:connector-curvature="0"
         style="fill:#1fb25e" /><path
         id="path4955"
         d="m 380.45312,293.28516 v 180.11328 c 0,21.32422 -17.27343,38.59765 -38.59765,38.59765 H 45.503906 C 20.371094,511.99609 0,491.625 0,466.48437 V 209.17969 C 0,234.3125 20.371094,254.6875 45.503906,254.6875 H 341.85547 c 21.32422,0 38.59765,17.28516 38.59765,38.59766 z m 0,0"
         inkscape:connector-curvature="0"
         style="fill:#ff8e1d" /><path
         id="path4957"
         d="M 49.574219,254.6875 V 511.99609 H 45.503906 C 20.371094,511.99609 0,491.625 0,466.48437 V 209.17969 c 0,25.13281 20.371094,45.50781 45.503906,45.50781 z m 0,0"
         inkscape:connector-curvature="0"
         style="fill:#e2720e" /><path
         id="path4959"
         d="m 336.51562,381.29687 c 0,13.83985 -9.42578,25.47657 -22.21093,28.83594 -2.42969,0.63672 -4.98047,0.98438 -7.60938,0.98438 -16.46875,0 -29.82031,-13.35157 -29.82031,-29.82032 0,-16.47265 13.35156,-29.82031 29.82031,-29.82031 2.62891,0 5.17969,0.34375 7.60938,0.98047 12.78515,3.35938 22.21093,14.99609 22.21093,28.83984 z m 0,0"
         inkscape:connector-curvature="0"
         style="fill:#ffbe1d" /><path
         id="path4961"
         d="m 336.51562,381.29687 c 0,13.83985 -9.42578,25.47657 -22.21093,28.83594 -12.77735,-3.37109 -22.20313,-15.0039 -22.20313,-28.83594 0,-13.83593 9.42578,-25.46875 22.20313,-28.83984 12.78515,3.35938 22.21093,14.99609 22.21093,28.83984 z m 0,0"
         inkscape:connector-curvature="0"
         style="fill:#ffe14d" /></g></g></svg>