<?xml version="1.0" encoding="UTF-8" standalone="no"?>
<!-- Generator: Adobe Illustrator 16.0.0, SVG Export Plug-In . SVG Version: 6.00 Build 0)  -->

<svg
   xmlns:dc="http://purl.org/dc/elements/1.1/"
   xmlns:cc="http://creativecommons.org/ns#"
   xmlns:rdf="http://www.w3.org/1999/02/22-rdf-syntax-ns#"
   xmlns:svg="http://www.w3.org/2000/svg"
   xmlns="http://www.w3.org/2000/svg"
   xmlns:sodipodi="http://sodipodi.sourceforge.net/DTD/sodipodi-0.dtd"
   xmlns:inkscape="http://www.inkscape.org/namespaces/inkscape"
   version="1.1"
   id="Capa_1"
   x="0px"
   y="0px"
   width="32"
   height="32"
   viewBox="0 0 32 32"
   xml:space="preserve"
   sodipodi:docname="report_icon.svg"
   inkscape:version="0.92.3 (2405546, 2018-03-11)"><metadata
     id="metadata57"><rdf:RDF><cc:Work
         rdf:about=""><dc:format>image/svg+xml</dc:format><dc:type
           rdf:resource="http://purl.org/dc/dcmitype/StillImage" /><dc:title></dc:title></cc:Work></rdf:RDF></metadata><defs
     id="defs55">














</defs><sodipodi:namedview
     pagecolor="#ffffff"
     bordercolor="#666666"
     borderopacity="1"
     objecttolerance="10"
     gridtolerance="10"
     guidetolerance="10"
     inkscape:pageopacity="0"
     inkscape:pageshadow="2"
     inkscape:window-width="1920"
     inkscape:window-height="1028"
     id="namedview53"
     showgrid="false"
     inkscape:showpageshadow="false"
     inkscape:zoom="5.4752604"
     inkscape:cx="19.907729"
     inkscape:cy="4.8703924"
     inkscape:window-x="0"
     inkscape:window-y="28"
     inkscape:window-maximized="1"
     inkscape:current-layer="Capa_1" /><g
     id="g22"
     transform="translate(0,-457.76599)" /><g
     id="g24"
     transform="translate(0,-457.76599)" /><g
     id="g26"
     transform="translate(0,-457.76599)" /><g
     id="g28"
     transform="translate(0,-457.76599)" /><g
     id="g30"
     transform="translate(0,-457.76599)" /><g
     id="g32"
     transform="translate(0,-457.76599)" /><g
     id="g34"
     transform="translate(0,-457.76599)" /><g
     id="g36"
     transform="translate(0,-457.76599)" /><g
     id="g38"
     transform="translate(0,-457.76599)" /><g
     id="g40"
     transform="translate(0,-457.76599)" /><g
     id="g42"
     transform="translate(0,-457.76599)" /><g
     id="g44"
     transform="translate(0,-457.76599)" /><g
     id="g46"
     transform="translate(0,-457.76599)" /><g
     id="g48"
     transform="translate(0,-457.76599)" /><g
     id="g50"
     transform="translate(0,-457.76599)" /><g
     id="g638"
     transform="matrix(1.4741263,0,0,1.4741263,-101.62754,-2.1593857)"><path
       id="path437"
       d="m 86.780475,22.494264 h -13.97694 c -0.142622,0 -0.257816,-0.115195 -0.257816,-0.257817 V 4.5239131 c 0,-0.1426219 0.115194,-0.2578164 0.257816,-0.2578164 H 86.78596 c 0.142622,0 0.257816,0.1151945 0.257816,0.2578164 V 22.241933 c -0.0055,0.137136 -0.12068,0.252331 -0.263301,0.252331 z"
       style="fill:#808080;stroke-width:0.05485455"
       inkscape:connector-curvature="0" /><polygon
       transform="matrix(0.05485455,0,0,0.05485455,65.941231,-1.0986783)"
       id="polygon439"
       points="321.6,379.6 321.6,342.7 358.6,342.7 358.6,116.8 146.4,116.8 146.4,379.6 "
       style="fill:#ffffff" /><polygon
       transform="matrix(0.05485455,0,0,0.05485455,65.941231,-1.0986783)"
       id="polygon441"
       points="321.6,342.7 321.6,379.6 358.6,342.7 "
       style="fill:#e6e9ee" /><path
       id="path443"
       d="M 80.93298,3.6846385 V 3.2842002 c 0,-0.6308273 -0.510148,-1.1409746 -1.140975,-1.1409746 -0.630827,0 -1.140975,0.5101473 -1.140975,1.1409746 v 0.4004383 h -2.013162 v 2.3368038 h 6.313759 V 3.6846385 Z"
       style="fill:#ff7058;stroke-width:0.05485455"
       inkscape:connector-curvature="0" /><circle
       id="circle445"
       r="0.57048732"
       cy="3.2842004"
       cx="79.792007"
       style="fill:#90dfaa;stroke-width:0.05485455" /><path
       id="path447"
       d="M 82.128809,15.856863 H 75.628545 V 9.3565989 h 6.500264 z M 76.270343,15.22055 h 5.222153 V 9.9983972 h -5.222153 z"
       style="fill:#e6e9ee;stroke-width:0.05485455"
       inkscape:connector-curvature="0" /><polygon
       transform="matrix(0.05485455,0,0,0.05485455,65.941231,-1.0986783)"
       id="polygon449"
       points="220.9,221.2 243.9,244.2 307.8,180.4 328.4,201 243.9,285.4 200.3,241.8 "
       style="fill:#54c0eb" /></g></svg>