<?xml version="1.0" encoding="UTF-8" standalone="no"?>
<!-- Generator: Adobe Illustrator 16.0.0, SVG Export Plug-In . SVG Version: 6.00 Build 0)  -->

<svg
   xmlns:dc="http://purl.org/dc/elements/1.1/"
   xmlns:cc="http://creativecommons.org/ns#"
   xmlns:rdf="http://www.w3.org/1999/02/22-rdf-syntax-ns#"
   xmlns:svg="http://www.w3.org/2000/svg"
   xmlns="http://www.w3.org/2000/svg"
   xmlns:sodipodi="http://sodipodi.sourceforge.net/DTD/sodipodi-0.dtd"
   xmlns:inkscape="http://www.inkscape.org/namespaces/inkscape"
   version="1.1"
   id="Capa_1"
   x="0px"
   y="0px"
   width="32"
   height="32"
   viewBox="0 0 32 32"
   xml:space="preserve"
   sodipodi:docname="structure_icon.svg"
   inkscape:version="0.92.3 (2405546, 2018-03-11)"><metadata
     id="metadata57"><rdf:RDF><cc:Work
         rdf:about=""><dc:format>image/svg+xml</dc:format><dc:type
           rdf:resource="http://purl.org/dc/dcmitype/StillImage" /><dc:title></dc:title></cc:Work></rdf:RDF></metadata><defs
     id="defs55">














</defs><sodipodi:namedview
     pagecolor="#ffffff"
     bordercolor="#666666"
     borderopacity="1"
     objecttolerance="10"
     gridtolerance="10"
     guidetolerance="10"
     inkscape:pageopacity="0"
     inkscape:pageshadow="2"
     inkscape:window-width="1920"
     inkscape:window-height="1028"
     id="namedview53"
     showgrid="false"
     inkscape:showpageshadow="false"
     inkscape:zoom="4.9702284"
     inkscape:cx="-2.2237673"
     inkscape:cy="8.8950694"
     inkscape:window-x="0"
     inkscape:window-y="28"
     inkscape:window-maximized="1"
     inkscape:current-layer="Capa_1" /><g
     id="g22"
     transform="translate(0,-457.76599)" /><g
     id="g24"
     transform="translate(0,-457.76599)" /><g
     id="g26"
     transform="translate(0,-457.76599)" /><g
     id="g28"
     transform="translate(0,-457.76599)" /><g
     id="g30"
     transform="translate(0,-457.76599)" /><g
     id="g32"
     transform="translate(0,-457.76599)" /><g
     id="g34"
     transform="translate(0,-457.76599)" /><g
     id="g36"
     transform="translate(0,-457.76599)" /><g
     id="g38"
     transform="translate(0,-457.76599)" /><g
     id="g40"
     transform="translate(0,-457.76599)" /><g
     id="g42"
     transform="translate(0,-457.76599)" /><g
     id="g44"
     transform="translate(0,-457.76599)" /><g
     id="g46"
     transform="translate(0,-457.76599)" /><g
     id="g48"
     transform="translate(0,-457.76599)" /><g
     id="g50"
     transform="translate(0,-457.76599)" /><g
     id="g154"
     transform="matrix(0.03934386,0,0,0.03934386,-31.544825,4.838524)">
</g><g
     id="g156"
     transform="matrix(0.03934386,0,0,0.03934386,-31.544825,4.838524)">
</g><g
     id="g158"
     transform="matrix(0.03934386,0,0,0.03934386,-31.544825,4.838524)">
</g><g
     id="g160"
     transform="matrix(0.03934386,0,0,0.03934386,-31.544825,4.838524)">
</g><g
     id="g162"
     transform="matrix(0.03934386,0,0,0.03934386,-31.544825,4.838524)">
</g><g
     id="g164"
     transform="matrix(0.03934386,0,0,0.03934386,-31.544825,4.838524)">
</g><g
     id="g166"
     transform="matrix(0.03934386,0,0,0.03934386,-31.544825,4.838524)">
</g><g
     id="g168"
     transform="matrix(0.03934386,0,0,0.03934386,-31.544825,4.838524)">
</g><g
     id="g170"
     transform="matrix(0.03934386,0,0,0.03934386,-31.544825,4.838524)">
</g><g
     id="g172"
     transform="matrix(0.03934386,0,0,0.03934386,-31.544825,4.838524)">
</g><g
     id="g174"
     transform="matrix(0.03934386,0,0,0.03934386,-31.544825,4.838524)">
</g><g
     id="g176"
     transform="matrix(0.03934386,0,0,0.03934386,-31.544825,4.838524)">
</g><g
     id="g178"
     transform="matrix(0.03934386,0,0,0.03934386,-31.544825,4.838524)">
</g><g
     id="g180"
     transform="matrix(0.03934386,0,0,0.03934386,-31.544825,4.838524)">
</g><g
     id="g182"
     transform="matrix(0.03934386,0,0,0.03934386,-31.544825,4.838524)">
</g><g
     id="g678"
     transform="matrix(0.99912254,0,0,0.99912254,52.923564,-8.8707114)"><path
       id="path407"
       d="m -49.766849,34.66623 c 3.310671,3.253094 7.830457,5.239497 12.810858,5.239497 4.980401,0 9.528975,-2.015191 12.810858,-5.239497 z"
       style="fill:#cccccc;stroke-width:0.07197111"
       inkscape:connector-curvature="0" /><rect
       id="rect409"
       height="24.78685"
       width="12.292665"
       style="fill:#ffffff;stroke-width:0.07197111"
       y="9.8793802"
       x="-47.233467" /><rect
       id="rect411"
       height="19.201891"
       width="9.2410898"
       style="fill:#e6e9ee;stroke-width:0.07197111"
       y="15.43555"
       x="-34.9408" /><g
       transform="matrix(0.07197111,0,0,0.07197111,-55.236653,3.3444031)"
       id="g453">
	<rect
   id="rect413"
   height="35.200001"
   width="24"
   style="fill:#84dbff"
   y="106.8"
   x="124.8" />
	<rect
   id="rect415"
   height="35.200001"
   width="24"
   style="fill:#84dbff"
   y="106.8"
   x="164.8" />
	<rect
   id="rect417"
   height="35.200001"
   width="24"
   style="fill:#84dbff"
   y="106.8"
   x="204.39999" />
	<rect
   id="rect419"
   height="35.200001"
   width="24"
   style="fill:#84dbff"
   y="106.8"
   x="244.39999" />
	<rect
   id="rect421"
   height="35.200001"
   width="24"
   style="fill:#84dbff"
   y="155.2"
   x="124.8" />
	<rect
   id="rect423"
   height="35.200001"
   width="24"
   style="fill:#84dbff"
   y="155.2"
   x="164.8" />
	<rect
   id="rect425"
   height="35.200001"
   width="24"
   style="fill:#84dbff"
   y="155.2"
   x="204.39999" />
	<rect
   id="rect427"
   height="35.200001"
   width="24"
   style="fill:#84dbff"
   y="155.2"
   x="244.39999" />
	<rect
   id="rect429"
   height="35.200001"
   width="24"
   style="fill:#84dbff"
   y="203.60001"
   x="124.8" />
	<rect
   id="rect431"
   height="35.200001"
   width="24"
   style="fill:#84dbff"
   y="203.60001"
   x="164.8" />
	<rect
   id="rect433"
   height="35.200001"
   width="24"
   style="fill:#84dbff"
   y="203.60001"
   x="204.39999" />
	<rect
   id="rect435"
   height="35.200001"
   width="24"
   style="fill:#84dbff"
   y="203.60001"
   x="244.39999" />
	<rect
   id="rect437"
   height="35.200001"
   width="24"
   style="fill:#84dbff"
   y="251.60001"
   x="124.8" />
	<rect
   id="rect439"
   height="35.200001"
   width="24"
   style="fill:#84dbff"
   y="251.60001"
   x="164.8" />
	<rect
   id="rect441"
   height="35.200001"
   width="24"
   style="fill:#84dbff"
   y="251.60001"
   x="204.39999" />
	<rect
   id="rect443"
   height="35.200001"
   width="24"
   style="fill:#84dbff"
   y="251.60001"
   x="244.39999" />
	<rect
   id="rect445"
   height="35.200001"
   width="24"
   style="fill:#84dbff"
   y="300"
   x="124.8" />
	<rect
   id="rect447"
   height="35.200001"
   width="24"
   style="fill:#84dbff"
   y="300"
   x="164.8" />
	<rect
   id="rect449"
   height="35.200001"
   width="24"
   style="fill:#84dbff"
   y="300"
   x="204.39999" />
	<rect
   id="rect451"
   height="35.200001"
   width="24"
   style="fill:#84dbff"
   y="300"
   x="244.39999" />
</g><g
       transform="matrix(0.07197111,0,0,0.07197111,-55.236653,3.3444031)"
       id="g479">
	<rect
   id="rect455"
   height="35.200001"
   width="24"
   style="fill:#54c0eb"
   y="183.2"
   x="294.79999" />
	<rect
   id="rect457"
   height="35.200001"
   width="24"
   style="fill:#54c0eb"
   y="183.2"
   x="334.39999" />
	<rect
   id="rect459"
   height="35.200001"
   width="24"
   style="fill:#54c0eb"
   y="183.2"
   x="374.39999" />
	<rect
   id="rect461"
   height="35.200001"
   width="24"
   style="fill:#54c0eb"
   y="231.2"
   x="294.79999" />
	<rect
   id="rect463"
   height="35.200001"
   width="24"
   style="fill:#54c0eb"
   y="231.2"
   x="334.39999" />
	<rect
   id="rect465"
   height="35.200001"
   width="24"
   style="fill:#54c0eb"
   y="231.2"
   x="374.39999" />
	<rect
   id="rect467"
   height="35.200001"
   width="24"
   style="fill:#54c0eb"
   y="279.20001"
   x="294.79999" />
	<rect
   id="rect469"
   height="35.200001"
   width="24"
   style="fill:#54c0eb"
   y="279.20001"
   x="334.39999" />
	<rect
   id="rect471"
   height="35.200001"
   width="24"
   style="fill:#54c0eb"
   y="279.20001"
   x="374.39999" />
	<rect
   id="rect473"
   height="35.200001"
   width="24"
   style="fill:#54c0eb"
   y="327.20001"
   x="294.79999" />
	<rect
   id="rect475"
   height="35.200001"
   width="24"
   style="fill:#54c0eb"
   y="327.20001"
   x="334.39999" />
	<rect
   id="rect477"
   height="35.200001"
   width="24"
   style="fill:#54c0eb"
   y="327.20001"
   x="374.39999" />
</g><g
       transform="matrix(0.07197111,0,0,0.07197111,-55.236653,3.3444031)"
       id="g485">
	<rect
   id="rect481"
   height="64.800003"
   width="53.599998"
   style="fill:#324a5e"
   y="370.39999"
   x="170" />
	<rect
   id="rect483"
   height="34.400002"
   width="36.799999"
   style="fill:#324a5e"
   y="400.79999"
   x="328" />
</g></g><g
     id="g487"
     transform="matrix(0.07197111,0,0,0.07197111,-55.236653,3.3444031)">
</g><g
     id="g489"
     transform="matrix(0.07197111,0,0,0.07197111,-55.236653,3.3444031)">
</g><g
     id="g491"
     transform="matrix(0.07197111,0,0,0.07197111,-55.236653,3.3444031)">
</g><g
     id="g493"
     transform="matrix(0.07197111,0,0,0.07197111,-55.236653,3.3444031)">
</g><g
     id="g495"
     transform="matrix(0.07197111,0,0,0.07197111,-55.236653,3.3444031)">
</g><g
     id="g497"
     transform="matrix(0.07197111,0,0,0.07197111,-55.236653,3.3444031)">
</g><g
     id="g499"
     transform="matrix(0.07197111,0,0,0.07197111,-55.236653,3.3444031)">
</g><g
     id="g501"
     transform="matrix(0.07197111,0,0,0.07197111,-55.236653,3.3444031)">
</g><g
     id="g503"
     transform="matrix(0.07197111,0,0,0.07197111,-55.236653,3.3444031)">
</g><g
     id="g505"
     transform="matrix(0.07197111,0,0,0.07197111,-55.236653,3.3444031)">
</g><g
     id="g507"
     transform="matrix(0.07197111,0,0,0.07197111,-55.236653,3.3444031)">
</g><g
     id="g509"
     transform="matrix(0.07197111,0,0,0.07197111,-55.236653,3.3444031)">
</g><g
     id="g511"
     transform="matrix(0.07197111,0,0,0.07197111,-55.236653,3.3444031)">
</g><g
     id="g513"
     transform="matrix(0.07197111,0,0,0.07197111,-55.236653,3.3444031)">
</g><g
     id="g515"
     transform="matrix(0.07197111,0,0,0.07197111,-55.236653,3.3444031)">
</g></svg>