<?xml version="1.0" encoding="UTF-8" standalone="no"?>
<!-- Generator: Adobe Illustrator 16.0.0, SVG Export Plug-In . SVG Version: 6.00 Build 0)  -->

<svg
   xmlns:dc="http://purl.org/dc/elements/1.1/"
   xmlns:cc="http://creativecommons.org/ns#"
   xmlns:rdf="http://www.w3.org/1999/02/22-rdf-syntax-ns#"
   xmlns:svg="http://www.w3.org/2000/svg"
   xmlns="http://www.w3.org/2000/svg"
   xmlns:sodipodi="http://sodipodi.sourceforge.net/DTD/sodipodi-0.dtd"
   xmlns:inkscape="http://www.inkscape.org/namespaces/inkscape"
   version="1.1"
   id="Capa_1"
   x="0px"
   y="0px"
   width="32"
   height="32"
   viewBox="0 0 32 32"
   xml:space="preserve"
   sodipodi:docname="transfer_icon.svg"
   inkscape:version="0.92.2 5c3e80d, 2017-08-06"><metadata
     id="metadata57"><rdf:RDF><cc:Work
         rdf:about=""><dc:format>image/svg+xml</dc:format><dc:type
           rdf:resource="http://purl.org/dc/dcmitype/StillImage" /><dc:title></dc:title></cc:Work></rdf:RDF></metadata><defs
     id="defs55" /><sodipodi:namedview
     pagecolor="#ffffff"
     bordercolor="#666666"
     borderopacity="1"
     objecttolerance="10"
     gridtolerance="10"
     guidetolerance="10"
     inkscape:pageopacity="0"
     inkscape:pageshadow="2"
     inkscape:window-width="1920"
     inkscape:window-height="1035"
     id="namedview53"
     showgrid="false"
     inkscape:showpageshadow="false"
     inkscape:zoom="8.1250228"
     inkscape:cx="11.453936"
     inkscape:cy="-8.6602931"
     inkscape:window-x="0"
     inkscape:window-y="1"
     inkscape:window-maximized="1"
     inkscape:current-layer="g1319" /><g
     id="g22"
     transform="translate(0,-457.76599)" /><g
     id="g24"
     transform="translate(0,-457.76599)" /><g
     id="g26"
     transform="translate(0,-457.76599)" /><g
     id="g28"
     transform="translate(0,-457.76599)" /><g
     id="g30"
     transform="translate(0,-457.76599)" /><g
     id="g32"
     transform="translate(0,-457.76599)" /><g
     id="g34"
     transform="translate(0,-457.76599)" /><g
     id="g36"
     transform="translate(0,-457.76599)" /><g
     id="g38"
     transform="translate(0,-457.76599)" /><g
     id="g40"
     transform="translate(0,-457.76599)" /><g
     id="g42"
     transform="translate(0,-457.76599)" /><g
     id="g44"
     transform="translate(0,-457.76599)" /><g
     id="g46"
     transform="translate(0,-457.76599)" /><g
     id="g48"
     transform="translate(0,-457.76599)" /><g
     id="g50"
     transform="translate(0,-457.76599)" /><g
     id="g1319"
     transform="matrix(0.50411696,0,0,0.50411696,0.99999986,0.99999986)"><polygon
       id="polygon1249"
       points="53.057,24.76 43.057,24.76 17.057,24.76 7.057,24.76 3.402,53.76 56.171,53.76 "
       style="fill:#ffffff" /><path
       id="path1251"
       d="m 53.057,24.76 3.114,29 H 3.402 l 3.655,-29 h 10 26 10 m 2.695,-3 h -2.695 -10 -26 -10 -2.646 L 4.08,24.385 0.425,53.385 0,56.76 h 3.402 52.769 3.339 l -0.357,-3.32 -3.114,-29 z"
       style="fill:#0088aa"
       inkscape:connector-curvature="0" /><path
       id="path1253"
       d="m 13.684,49.76 c -0.257,0 -0.513,-0.016 -0.769,-0.047 -0.218,-0.026 -0.438,-0.067 -0.653,-0.124 -0.535,-0.138 -0.856,-0.684 -0.718,-1.218 0.138,-0.535 0.683,-0.86 1.218,-0.718 0.132,0.033 0.264,0.059 0.396,0.075 0.403,0.05 0.811,0.037 1.215,-0.015 0.552,-0.065 1.049,0.319 1.117,0.867 0.069,0.548 -0.319,1.048 -0.867,1.117 -0.313,0.041 -0.628,0.063 -0.939,0.063 z m 4.65,-1.158 c -0.401,0 -0.779,-0.243 -0.933,-0.64 -0.199,-0.516 0.058,-1.095 0.572,-1.293 0.592,-0.229 1.188,-0.483 1.774,-0.759 0.503,-0.235 1.096,-0.019 1.33,0.48 0.234,0.5 0.02,1.096 -0.48,1.33 -0.628,0.295 -1.269,0.568 -1.903,0.813 -0.118,0.048 -0.24,0.069 -0.36,0.069 z M 9.987,46.87 C 9.48,46.87 9.046,46.486 8.993,45.972 8.973,45.775 8.965,45.577 8.965,45.38 c 0,-0.116 0.003,-0.232 0.009,-0.347 0.023,-0.469 0.099,-0.942 0.225,-1.406 0.144,-0.535 0.697,-0.853 1.226,-0.704 0.533,0.144 0.849,0.692 0.704,1.226 -0.088,0.326 -0.141,0.657 -0.156,0.983 -0.004,0.082 -0.007,0.165 -0.007,0.248 0,0.129 0.005,0.26 0.019,0.389 0.056,0.55 -0.345,1.04 -0.894,1.097 -0.036,0.002 -0.07,0.004 -0.104,0.004 z m 13.679,-0.999 c -0.327,0 -0.648,-0.16 -0.84,-0.455 -0.301,-0.464 -0.169,-1.083 0.294,-1.384 0.535,-0.347 1.066,-0.72 1.58,-1.107 0.444,-0.332 1.068,-0.241 1.401,0.196 0.332,0.441 0.244,1.068 -0.196,1.401 -0.552,0.415 -1.122,0.815 -1.695,1.188 -0.169,0.109 -0.357,0.161 -0.544,0.161 z m 4.759,-3.65 c -0.309,0 -0.613,-0.143 -0.81,-0.411 -0.325,-0.446 -0.227,-1.072 0.22,-1.397 0.209,-0.151 0.422,-0.3 0.641,-0.441 0.377,-0.245 0.781,-0.477 1.2,-0.688 0.496,-0.247 1.095,-0.048 1.343,0.444 0.248,0.493 0.049,1.095 -0.444,1.343 -0.354,0.178 -0.693,0.372 -1.01,0.577 -0.188,0.123 -0.372,0.25 -0.552,0.382 -0.178,0.129 -0.384,0.191 -0.588,0.191 z M 12.469,41.748 c -0.355,0 -0.699,-0.189 -0.88,-0.523 -0.264,-0.485 -0.083,-1.092 0.402,-1.355 0.518,-0.281 1.071,-0.456 1.644,-0.52 0.29,-0.033 0.593,-0.032 0.891,0.008 0.547,0.072 0.933,0.574 0.86,1.122 -0.072,0.546 -0.561,0.931 -1.122,0.86 -0.133,-0.018 -0.271,-0.018 -0.406,-0.002 -0.316,0.034 -0.623,0.132 -0.913,0.289 -0.152,0.082 -0.315,0.121 -0.476,0.121 z m 21.434,-1.852 c -0.462,0 -0.877,-0.321 -0.977,-0.791 -0.115,-0.541 0.229,-1.072 0.769,-1.187 0.643,-0.138 1.335,-0.252 2.058,-0.342 0.553,-0.081 1.047,0.32 1.115,0.869 0.068,0.548 -0.321,1.048 -0.869,1.115 -0.665,0.083 -1.3,0.188 -1.886,0.313 -0.071,0.016 -0.141,0.023 -0.21,0.023 z m 5.96,-0.617 c -0.533,0 -0.977,-0.421 -0.998,-0.959 -0.022,-0.552 0.406,-1.018 0.958,-1.04 l 1.993,-0.082 c 0.55,-0.05 1.02,0.401 1.045,0.954 0.025,0.551 -0.402,1.019 -0.954,1.044 l -2.002,0.082 c -0.013,0.001 -0.028,0.001 -0.042,0.001 z m 5.979,-0.443 c -0.465,0 -0.881,-0.325 -0.979,-0.798 -0.111,-0.541 0.236,-1.07 0.777,-1.182 0.578,-0.119 1.006,-0.286 1.347,-0.525 0.437,-0.341 1.102,-0.285 1.438,0.149 0.339,0.437 0.296,1.039 -0.14,1.378 -0.055,0.042 -0.11,0.083 -0.169,0.122 -0.544,0.384 -1.229,0.661 -2.072,0.835 -0.067,0.014 -0.136,0.021 -0.202,0.021 z m 4.069,-4.03 c -0.098,0 -0.197,-0.015 -0.296,-0.045 -0.527,-0.163 -0.823,-0.724 -0.659,-1.251 0.053,-0.171 0.086,-0.341 0.097,-0.506 l 0.004,-0.116 c 0,-0.229 -0.044,-0.462 -0.13,-0.694 -0.192,-0.518 0.071,-1.093 0.59,-1.285 0.514,-0.191 1.094,0.071 1.285,0.59 0.169,0.455 0.255,0.923 0.255,1.39 0,0.084 -0.003,0.167 -0.008,0.25 -0.022,0.324 -0.084,0.646 -0.183,0.964 -0.132,0.428 -0.528,0.703 -0.955,0.703 z m -5.06,-4.107 c -0.436,0 -0.837,-0.287 -0.961,-0.729 -0.15,-0.531 0.158,-1.084 0.69,-1.233 0.779,-0.22 1.597,-0.286 2.386,-0.18 0.547,0.074 0.931,0.577 0.857,1.125 -0.073,0.547 -0.566,0.931 -1.125,0.857 -0.521,-0.069 -1.058,-0.023 -1.575,0.121 -0.091,0.027 -0.181,0.039 -0.272,0.039 z"
       style="fill:#ffcc00"
       inkscape:connector-curvature="0" /><path
       id="path1255"
       d="m 53.051145,11.198571 c -0.524,-3.9989997 -2.614,-9.1809997 -10.822,-9.1809997 -8.207,0 -10.298,5.182 -10.822,9.1809997 -0.287,2.192 -0.126,4.419 0.33,6.582 2.509,11.893 8.71,19.022 10.177,20.577 0.172,0.182 0.458,0.182 0.63,0 1.467,-1.555 7.668,-8.684 10.177,-20.577 0.457,-2.163 0.618,-4.39 0.33,-6.582 z m -10.822,7.741 c -3.505,0 -6.346,-2.841 -6.346,-6.346 0,-3.5049997 2.841,-6.3449997 6.346,-6.3449997 3.505,0 6.346,2.841 6.346,6.3449997 0,3.505 -2.841,6.346 -6.346,6.346 z"
       style="fill:#0088aa;fill-opacity:1"
       inkscape:connector-curvature="0" /><g
       id="g1259"
       style="fill:#006680"
       transform="translate(12.207145,-0.7324287)"><path
         id="path1257"
         d="m 30.023,5.981 c -4.051,0 -7.346,3.295 -7.346,7.345 0,4.051 3.295,7.346 7.346,7.346 4.051,0 7.346,-3.295 7.346,-7.346 -10e-4,-4.05 -3.296,-7.345 -7.346,-7.345 z m 0,12.691 c -2.947,0 -5.346,-2.398 -5.346,-5.346 0,-2.948 2.398,-5.345 5.346,-5.345 2.948,0 5.346,2.397 5.346,5.345 0,2.948 -2.399,5.346 -5.346,5.346 z"
         style="fill:#006680"
         inkscape:connector-curvature="0" /></g><g
       id="g1261" /><g
       id="g1263" /><g
       id="g1265" /><g
       id="g1267" /><g
       id="g1269" /><g
       id="g1271" /><g
       id="g1273" /><g
       id="g1275" /><g
       id="g1277" /><g
       id="g1279" /><g
       id="g1281" /><g
       id="g1283" /><g
       id="g1285" /><g
       id="g1287" /><g
       id="g1289" /></g><g
     id="g1247"
     transform="matrix(0.02469756,0,0,0.02469756,3.9862249,14.790544)"><path
       id="path1150"
       d="m 378.092,378.092 v 27.569 c 0,11.028 8.665,19.692 19.298,19.692 h 31.902 v -47.262 h -51.2 z M 74.831,425.354 h 31.902 c 10.634,0 19.298,-8.665 19.298,-19.692 v -27.569 h -51.2 c 0,10e-4 0,47.261 0,47.261 z"
       style="fill:#1e2e37"
       inkscape:connector-curvature="0" /><path
       id="path1152"
       d="m 413.538,378.092 v 64.197 c 0,14.572 11.815,26.388 25.994,26.388 h 14.572 c 14.572,0 25.994,-11.815 25.994,-26.388 v -72.074 c 0,0 -66.56,7.877 -66.56,7.877 z M 23.631,442.289 c 0,14.572 11.815,26.388 25.994,26.388 h 14.572 c 14.572,0 25.994,-11.815 25.994,-26.388 v -64.197 l -66.56,-7.877 c 0,0 0,72.074 0,72.074 z"
       style="fill:#324d5b"
       inkscape:connector-curvature="0" /><path
       id="path1154"
       d="m 250.486,35.446 h 1.182 c 133.514,0 165.809,57.108 165.809,165.415 H 86.646 c 0,-108.307 32.689,-165.415 163.84,-165.415 z"
       style="fill:#bf392b"
       inkscape:connector-curvature="0" /><path
       id="path1156"
       d="m 250.88,55.138 h 1.182 c 117.366,0 145.723,50.412 145.723,145.723 H 106.338 c 0,-95.31 28.751,-145.723 144.542,-145.723 z"
       style="fill:#85c6dc"
       inkscape:connector-curvature="0" /><path
       id="path1158"
       d="m 252.062,334.77 c 80.345,0 145.723,14.966 145.723,33.477 0,18.511 -65.378,33.477 -145.723,33.477 -80.345,0 -145.723,-14.966 -145.723,-33.477 -0.001,-18.512 65.378,-33.477 145.723,-33.477 z"
       style="fill:#85281e"
       inkscape:connector-curvature="0" /><path
       id="path1160"
       d="m 88.222,212.677 164.234,-23.631 163.446,23.631 c 48.837,0 88.222,39.778 88.222,89.403 v 19.298 c 0,14.178 -6.302,25.6 -25.206,25.6 H 25.206 C 6.695,346.585 0,335.163 0,320.985 v -19.298 c 0,-49.232 39.385,-89.01 88.222,-89.01 z"
       style="fill:#bf392b"
       inkscape:connector-curvature="0" /><path
       id="path1162"
       d="m 20.086,342.646 h 463.557 c 6.695,0 12.209,5.12 12.209,11.815 0,12.997 -11.028,23.631 -24.812,23.631 H 32.689 c -13.785,0 -24.812,-10.634 -24.812,-23.631 0,-6.695 5.514,-11.815 12.209,-11.815 z"
       style="fill:#e4e7e7"
       inkscape:connector-curvature="0" /><path
       id="path1164"
       d="m 422.597,200.468 c 0,0 -45.686,18.117 -69.711,98.068 0,0 -13.391,44.111 -44.111,44.111 H 195.348 c -30.72,0 -44.111,-44.111 -44.111,-44.111 -24.025,-79.951 -69.317,-97.28 -69.317,-97.28 -15.754,-6.302 0,-15.754 0,-15.754 63.803,-36.234 170.142,-31.902 170.142,-31.902 0,0 105.945,-4.726 170.535,31.902 0,0 14.572,8.27 0,14.966 z"
       style="fill:#e2574c"
       inkscape:connector-curvature="0" /><path
       id="path1166"
       d="m 168.566,293.022 c 1.969,6.302 12.209,29.932 25.206,29.932 H 228.43 V 173.292 c -59.865,0 -98.855,11.028 -122.092,21.268 18.117,13.785 45.293,42.535 62.228,98.462 z m 107.126,-119.73 v 149.662 h 31.114 c 13.391,0 23.237,-23.631 25.206,-29.932 16.542,-55.138 43.323,-84.283 61.44,-98.462 -22.449,-10.24 -60.258,-20.874 -117.76,-21.268 z"
       style="fill:#bf392b"
       inkscape:connector-curvature="0" /><path
       id="path1168"
       d="m 244.185,153.6 h 15.754 v 189.046 h -15.754 z"
       style="fill:#e87970"
       inkscape:connector-curvature="0" /><path
       id="path1170"
       d="m 70.892,248.123 c -19.692,0 -35.446,15.754 -35.446,35.446 0,19.692 15.754,35.446 35.446,35.446 19.692,0 35.446,-15.754 35.446,-35.446 0,-19.691 -15.753,-35.446 -35.446,-35.446 z m 362.339,0 c -19.692,0 -35.446,15.754 -35.446,35.446 0,19.692 15.754,35.446 35.446,35.446 19.692,0 35.446,-15.754 35.446,-35.446 0,-19.691 -15.754,-35.446 -35.446,-35.446 z"
       style="fill:#e0e3e4"
       inkscape:connector-curvature="0" /><path
       id="path1172"
       d="m 70.892,271.754 c -6.695,0 -11.815,5.12 -11.815,11.815 0,6.695 5.12,11.815 11.815,11.815 6.695,0 11.815,-5.12 11.815,-11.815 0,-6.695 -5.513,-11.815 -11.815,-11.815 z m 362.339,0 c -6.695,0 -11.815,5.12 -11.815,11.815 0,6.695 5.12,11.815 11.815,11.815 6.695,0 11.815,-5.12 11.815,-11.815 0,-6.695 -5.12,-11.815 -11.815,-11.815 z"
       style="fill:#c0c8cb"
       inkscape:connector-curvature="0" /><path
       id="path1174"
       d="m 426.535,192.985 h -7.089 c -7.877,0 -14.178,5.908 -14.178,13.785 v 6.695 c 0,3.938 7.877,6.695 17.329,6.695 9.846,0 17.329,-3.151 17.329,-6.695 v -6.695 c 0.788,-7.484 -5.514,-13.785 -13.391,-13.785 z m -342.646,0 H 76.8 c -7.877,0 -14.178,5.908 -14.178,13.785 v 6.695 c 0,3.938 7.877,6.695 17.329,6.695 9.452,0 17.329,-3.151 17.329,-6.695 v -6.695 c 0.788,-7.484 -5.514,-13.785 -13.391,-13.785 z"
       style="fill:#f4b459"
       inkscape:connector-curvature="0" /><path
       id="path1176"
       d="m 117.366,122.486 c 19.692,-9.846 76.8,-35.052 133.908,-35.052 57.502,0 115.397,25.206 135.089,35.052 C 369.821,77.981 331.225,55.138 252.061,55.138 h -1.182 c -77.981,0 -116.577,22.844 -133.513,67.348 z"
       style="fill:#92d2e8"
       inkscape:connector-curvature="0" /><path
       id="path1178"
       d="m 433.231,256 c 15.36,0 27.569,12.209 27.569,27.569 0,15.36 -12.209,27.569 -27.569,27.569 -15.36,0 -27.569,-12.209 -27.569,-27.569 0,-15.359 12.209,-27.569 27.569,-27.569 m -362.339,0 c 15.36,0 27.569,12.209 27.569,27.569 0,15.36 -12.209,27.569 -27.569,27.569 -15.36,0 -27.569,-12.209 -27.569,-27.569 C 43.323,268.21 55.532,256 70.892,256 m 362.339,-7.877 c -19.692,0 -35.446,15.754 -35.446,35.446 0,19.692 15.754,35.446 35.446,35.446 19.692,0 35.446,-15.754 35.446,-35.446 0,-19.691 -15.754,-35.446 -35.446,-35.446 z m -362.339,0 c -19.692,0 -35.446,15.754 -35.446,35.446 0,19.692 15.754,35.446 35.446,35.446 19.692,0 35.446,-15.754 35.446,-35.446 0,-19.691 -15.753,-35.446 -35.446,-35.446 z"
       style="fill:#ccd0d2"
       inkscape:connector-curvature="0" /><g
       id="g1180" /><g
       id="g1182" /><g
       id="g1184" /><g
       id="g1186" /><g
       id="g1188" /><g
       id="g1190" /><g
       id="g1192" /><g
       id="g1194" /><g
       id="g1196" /><g
       id="g1198" /><g
       id="g1200" /><g
       id="g1202" /><g
       id="g1204" /><g
       id="g1206" /><g
       id="g1208" /></g></svg>