<?xml version="1.0" encoding="UTF-8" standalone="no"?>
<!-- Generator: Adobe Illustrator 16.0.0, SVG Export Plug-In . SVG Version: 6.00 Build 0)  -->

<svg
   xmlns:dc="http://purl.org/dc/elements/1.1/"
   xmlns:cc="http://creativecommons.org/ns#"
   xmlns:rdf="http://www.w3.org/1999/02/22-rdf-syntax-ns#"
   xmlns:svg="http://www.w3.org/2000/svg"
   xmlns="http://www.w3.org/2000/svg"
   xmlns:sodipodi="http://sodipodi.sourceforge.net/DTD/sodipodi-0.dtd"
   xmlns:inkscape="http://www.inkscape.org/namespaces/inkscape"
   version="1.1"
   id="Capa_1"
   x="0px"
   y="0px"
   width="32"
   height="32"
   viewBox="0 0 32 32"
   xml:space="preserve"
   sodipodi:docname="transport_icon.svg"
   inkscape:version="0.92.2 5c3e80d, 2017-08-06"><metadata
     id="metadata57"><rdf:RDF><cc:Work
         rdf:about=""><dc:format>image/svg+xml</dc:format><dc:type
           rdf:resource="http://purl.org/dc/dcmitype/StillImage" /><dc:title></dc:title></cc:Work></rdf:RDF></metadata><defs
     id="defs55" /><sodipodi:namedview
     pagecolor="#ffffff"
     bordercolor="#666666"
     borderopacity="1"
     objecttolerance="10"
     gridtolerance="10"
     guidetolerance="10"
     inkscape:pageopacity="0"
     inkscape:pageshadow="2"
     inkscape:window-width="1920"
     inkscape:window-height="1035"
     id="namedview53"
     showgrid="false"
     inkscape:showpageshadow="false"
     inkscape:zoom="8.1250228"
     inkscape:cx="11.453936"
     inkscape:cy="-8.6602931"
     inkscape:window-x="0"
     inkscape:window-y="1"
     inkscape:window-maximized="1"
     inkscape:current-layer="Capa_1" /><g
     id="g22"
     transform="translate(0,-457.76599)" /><g
     id="g24"
     transform="translate(0,-457.76599)" /><g
     id="g26"
     transform="translate(0,-457.76599)" /><g
     id="g28"
     transform="translate(0,-457.76599)" /><g
     id="g30"
     transform="translate(0,-457.76599)" /><g
     id="g32"
     transform="translate(0,-457.76599)" /><g
     id="g34"
     transform="translate(0,-457.76599)" /><g
     id="g36"
     transform="translate(0,-457.76599)" /><g
     id="g38"
     transform="translate(0,-457.76599)" /><g
     id="g40"
     transform="translate(0,-457.76599)" /><g
     id="g42"
     transform="translate(0,-457.76599)" /><g
     id="g44"
     transform="translate(0,-457.76599)" /><g
     id="g46"
     transform="translate(0,-457.76599)" /><g
     id="g48"
     transform="translate(0,-457.76599)" /><g
     id="g50"
     transform="translate(0,-457.76599)" /><g
     id="g1247"
     transform="matrix(0.05950917,0,0,0.05950917,0.99999959,1.0000293)"><path
       id="path1150"
       d="m 378.092,378.092 v 27.569 c 0,11.028 8.665,19.692 19.298,19.692 h 31.902 v -47.262 h -51.2 z M 74.831,425.354 h 31.902 c 10.634,0 19.298,-8.665 19.298,-19.692 v -27.569 h -51.2 c 0,10e-4 0,47.261 0,47.261 z"
       style="fill:#1e2e37"
       inkscape:connector-curvature="0" /><path
       id="path1152"
       d="m 413.538,378.092 v 64.197 c 0,14.572 11.815,26.388 25.994,26.388 h 14.572 c 14.572,0 25.994,-11.815 25.994,-26.388 v -72.074 c 0,0 -66.56,7.877 -66.56,7.877 z M 23.631,442.289 c 0,14.572 11.815,26.388 25.994,26.388 h 14.572 c 14.572,0 25.994,-11.815 25.994,-26.388 v -64.197 l -66.56,-7.877 c 0,0 0,72.074 0,72.074 z"
       style="fill:#324d5b"
       inkscape:connector-curvature="0" /><path
       id="path1154"
       d="m 250.486,35.446 h 1.182 c 133.514,0 165.809,57.108 165.809,165.415 H 86.646 c 0,-108.307 32.689,-165.415 163.84,-165.415 z"
       style="fill:#bf392b"
       inkscape:connector-curvature="0" /><path
       id="path1156"
       d="m 250.88,55.138 h 1.182 c 117.366,0 145.723,50.412 145.723,145.723 H 106.338 c 0,-95.31 28.751,-145.723 144.542,-145.723 z"
       style="fill:#85c6dc"
       inkscape:connector-curvature="0" /><path
       id="path1158"
       d="m 252.062,334.77 c 80.345,0 145.723,14.966 145.723,33.477 0,18.511 -65.378,33.477 -145.723,33.477 -80.345,0 -145.723,-14.966 -145.723,-33.477 -0.001,-18.512 65.378,-33.477 145.723,-33.477 z"
       style="fill:#85281e"
       inkscape:connector-curvature="0" /><path
       id="path1160"
       d="m 88.222,212.677 164.234,-23.631 163.446,23.631 c 48.837,0 88.222,39.778 88.222,89.403 v 19.298 c 0,14.178 -6.302,25.6 -25.206,25.6 H 25.206 C 6.695,346.585 0,335.163 0,320.985 v -19.298 c 0,-49.232 39.385,-89.01 88.222,-89.01 z"
       style="fill:#bf392b"
       inkscape:connector-curvature="0" /><path
       id="path1162"
       d="m 20.086,342.646 h 463.557 c 6.695,0 12.209,5.12 12.209,11.815 0,12.997 -11.028,23.631 -24.812,23.631 H 32.689 c -13.785,0 -24.812,-10.634 -24.812,-23.631 0,-6.695 5.514,-11.815 12.209,-11.815 z"
       style="fill:#e4e7e7"
       inkscape:connector-curvature="0" /><path
       id="path1164"
       d="m 422.597,200.468 c 0,0 -45.686,18.117 -69.711,98.068 0,0 -13.391,44.111 -44.111,44.111 H 195.348 c -30.72,0 -44.111,-44.111 -44.111,-44.111 -24.025,-79.951 -69.317,-97.28 -69.317,-97.28 -15.754,-6.302 0,-15.754 0,-15.754 63.803,-36.234 170.142,-31.902 170.142,-31.902 0,0 105.945,-4.726 170.535,31.902 0,0 14.572,8.27 0,14.966 z"
       style="fill:#e2574c"
       inkscape:connector-curvature="0" /><path
       id="path1166"
       d="m 168.566,293.022 c 1.969,6.302 12.209,29.932 25.206,29.932 H 228.43 V 173.292 c -59.865,0 -98.855,11.028 -122.092,21.268 18.117,13.785 45.293,42.535 62.228,98.462 z m 107.126,-119.73 v 149.662 h 31.114 c 13.391,0 23.237,-23.631 25.206,-29.932 16.542,-55.138 43.323,-84.283 61.44,-98.462 -22.449,-10.24 -60.258,-20.874 -117.76,-21.268 z"
       style="fill:#bf392b"
       inkscape:connector-curvature="0" /><path
       id="path1168"
       d="m 244.185,153.6 h 15.754 v 189.046 h -15.754 z"
       style="fill:#e87970"
       inkscape:connector-curvature="0" /><path
       id="path1170"
       d="m 70.892,248.123 c -19.692,0 -35.446,15.754 -35.446,35.446 0,19.692 15.754,35.446 35.446,35.446 19.692,0 35.446,-15.754 35.446,-35.446 0,-19.691 -15.753,-35.446 -35.446,-35.446 z m 362.339,0 c -19.692,0 -35.446,15.754 -35.446,35.446 0,19.692 15.754,35.446 35.446,35.446 19.692,0 35.446,-15.754 35.446,-35.446 0,-19.691 -15.754,-35.446 -35.446,-35.446 z"
       style="fill:#e0e3e4"
       inkscape:connector-curvature="0" /><path
       id="path1172"
       d="m 70.892,271.754 c -6.695,0 -11.815,5.12 -11.815,11.815 0,6.695 5.12,11.815 11.815,11.815 6.695,0 11.815,-5.12 11.815,-11.815 0,-6.695 -5.513,-11.815 -11.815,-11.815 z m 362.339,0 c -6.695,0 -11.815,5.12 -11.815,11.815 0,6.695 5.12,11.815 11.815,11.815 6.695,0 11.815,-5.12 11.815,-11.815 0,-6.695 -5.12,-11.815 -11.815,-11.815 z"
       style="fill:#c0c8cb"
       inkscape:connector-curvature="0" /><path
       id="path1174"
       d="m 426.535,192.985 h -7.089 c -7.877,0 -14.178,5.908 -14.178,13.785 v 6.695 c 0,3.938 7.877,6.695 17.329,6.695 9.846,0 17.329,-3.151 17.329,-6.695 v -6.695 c 0.788,-7.484 -5.514,-13.785 -13.391,-13.785 z m -342.646,0 H 76.8 c -7.877,0 -14.178,5.908 -14.178,13.785 v 6.695 c 0,3.938 7.877,6.695 17.329,6.695 9.452,0 17.329,-3.151 17.329,-6.695 v -6.695 c 0.788,-7.484 -5.514,-13.785 -13.391,-13.785 z"
       style="fill:#f4b459"
       inkscape:connector-curvature="0" /><path
       id="path1176"
       d="m 117.366,122.486 c 19.692,-9.846 76.8,-35.052 133.908,-35.052 57.502,0 115.397,25.206 135.089,35.052 C 369.821,77.981 331.225,55.138 252.061,55.138 h -1.182 c -77.981,0 -116.577,22.844 -133.513,67.348 z"
       style="fill:#92d2e8"
       inkscape:connector-curvature="0" /><path
       id="path1178"
       d="m 433.231,256 c 15.36,0 27.569,12.209 27.569,27.569 0,15.36 -12.209,27.569 -27.569,27.569 -15.36,0 -27.569,-12.209 -27.569,-27.569 0,-15.359 12.209,-27.569 27.569,-27.569 m -362.339,0 c 15.36,0 27.569,12.209 27.569,27.569 0,15.36 -12.209,27.569 -27.569,27.569 -15.36,0 -27.569,-12.209 -27.569,-27.569 C 43.323,268.21 55.532,256 70.892,256 m 362.339,-7.877 c -19.692,0 -35.446,15.754 -35.446,35.446 0,19.692 15.754,35.446 35.446,35.446 19.692,0 35.446,-15.754 35.446,-35.446 0,-19.691 -15.754,-35.446 -35.446,-35.446 z m -362.339,0 c -19.692,0 -35.446,15.754 -35.446,35.446 0,19.692 15.754,35.446 35.446,35.446 19.692,0 35.446,-15.754 35.446,-35.446 0,-19.691 -15.753,-35.446 -35.446,-35.446 z"
       style="fill:#ccd0d2"
       inkscape:connector-curvature="0" /><g
       id="g1180" /><g
       id="g1182" /><g
       id="g1184" /><g
       id="g1186" /><g
       id="g1188" /><g
       id="g1190" /><g
       id="g1192" /><g
       id="g1194" /><g
       id="g1196" /><g
       id="g1198" /><g
       id="g1200" /><g
       id="g1202" /><g
       id="g1204" /><g
       id="g1206" /><g
       id="g1208" /></g></svg>