<?xml version="1.0" encoding="UTF-8" standalone="no"?>
<!-- Generator: Adobe Illustrator 16.0.0, SVG Export Plug-In . SVG Version: 6.00 Build 0)  -->

<svg
   xmlns:dc="http://purl.org/dc/elements/1.1/"
   xmlns:cc="http://creativecommons.org/ns#"
   xmlns:rdf="http://www.w3.org/1999/02/22-rdf-syntax-ns#"
   xmlns:svg="http://www.w3.org/2000/svg"
   xmlns="http://www.w3.org/2000/svg"
   xmlns:sodipodi="http://sodipodi.sourceforge.net/DTD/sodipodi-0.dtd"
   xmlns:inkscape="http://www.inkscape.org/namespaces/inkscape"
   version="1.1"
   id="Capa_1"
   x="0px"
   y="0px"
   width="32"
   height="32"
   viewBox="0 0 32 32"
   xml:space="preserve"
   sodipodi:docname="vendor_icon.svg"
   inkscape:version="0.92.3 (2405546, 2018-03-11)"><metadata
     id="metadata57"><rdf:RDF><cc:Work
         rdf:about=""><dc:format>image/svg+xml</dc:format><dc:type
           rdf:resource="http://purl.org/dc/dcmitype/StillImage" /><dc:title></dc:title></cc:Work></rdf:RDF></metadata><defs
     id="defs55" /><sodipodi:namedview
     pagecolor="#ffffff"
     bordercolor="#666666"
     borderopacity="1"
     objecttolerance="10"
     gridtolerance="10"
     guidetolerance="10"
     inkscape:pageopacity="0"
     inkscape:pageshadow="2"
     inkscape:window-width="1920"
     inkscape:window-height="1032"
     id="namedview53"
     showgrid="false"
     inkscape:showpageshadow="false"
     inkscape:zoom="13.1875"
     inkscape:cx="7.8429466"
     inkscape:cy="16.412545"
     inkscape:window-x="0"
     inkscape:window-y="23"
     inkscape:window-maximized="1"
     inkscape:current-layer="g1364" /><g
     id="g22"
     transform="translate(0,-457.76599)" /><g
     id="g24"
     transform="translate(0,-457.76599)" /><g
     id="g26"
     transform="translate(0,-457.76599)" /><g
     id="g28"
     transform="translate(0,-457.76599)" /><g
     id="g30"
     transform="translate(0,-457.76599)" /><g
     id="g32"
     transform="translate(0,-457.76599)" /><g
     id="g34"
     transform="translate(0,-457.76599)" /><g
     id="g36"
     transform="translate(0,-457.76599)" /><g
     id="g38"
     transform="translate(0,-457.76599)" /><g
     id="g40"
     transform="translate(0,-457.76599)" /><g
     id="g42"
     transform="translate(0,-457.76599)" /><g
     id="g44"
     transform="translate(0,-457.76599)" /><g
     id="g46"
     transform="translate(0,-457.76599)" /><g
     id="g48"
     transform="translate(0,-457.76599)" /><g
     id="g50"
     transform="translate(0,-457.76599)" /><g
     id="g154"
     transform="matrix(0.03934386,0,0,0.03934386,-31.544825,4.838524)" /><g
     id="g156"
     transform="matrix(0.03934386,0,0,0.03934386,-31.544825,4.838524)" /><g
     id="g158"
     transform="matrix(0.03934386,0,0,0.03934386,-31.544825,4.838524)" /><g
     id="g160"
     transform="matrix(0.03934386,0,0,0.03934386,-31.544825,4.838524)" /><g
     id="g162"
     transform="matrix(0.03934386,0,0,0.03934386,-31.544825,4.838524)" /><g
     id="g164"
     transform="matrix(0.03934386,0,0,0.03934386,-31.544825,4.838524)" /><g
     id="g166"
     transform="matrix(0.03934386,0,0,0.03934386,-31.544825,4.838524)" /><g
     id="g168"
     transform="matrix(0.03934386,0,0,0.03934386,-31.544825,4.838524)" /><g
     id="g170"
     transform="matrix(0.03934386,0,0,0.03934386,-31.544825,4.838524)" /><g
     id="g172"
     transform="matrix(0.03934386,0,0,0.03934386,-31.544825,4.838524)" /><g
     id="g174"
     transform="matrix(0.03934386,0,0,0.03934386,-31.544825,4.838524)" /><g
     id="g176"
     transform="matrix(0.03934386,0,0,0.03934386,-31.544825,4.838524)" /><g
     id="g178"
     transform="matrix(0.03934386,0,0,0.03934386,-31.544825,4.838524)" /><g
     id="g180"
     transform="matrix(0.03934386,0,0,0.03934386,-31.544825,4.838524)" /><g
     id="g182"
     transform="matrix(0.03934386,0,0,0.03934386,-31.544825,4.838524)" /><g
     id="g487"
     transform="matrix(0.07197111,0,0,0.07197111,-55.236653,3.3444031)" /><g
     id="g489"
     transform="matrix(0.07197111,0,0,0.07197111,-55.236653,3.3444031)" /><g
     id="g491"
     transform="matrix(0.07197111,0,0,0.07197111,-55.236653,3.3444031)" /><g
     id="g493"
     transform="matrix(0.07197111,0,0,0.07197111,-55.236653,3.3444031)" /><g
     id="g495"
     transform="matrix(0.07197111,0,0,0.07197111,-55.236653,3.3444031)" /><g
     id="g497"
     transform="matrix(0.07197111,0,0,0.07197111,-55.236653,3.3444031)" /><g
     id="g499"
     transform="matrix(0.07197111,0,0,0.07197111,-55.236653,3.3444031)" /><g
     id="g501"
     transform="matrix(0.07197111,0,0,0.07197111,-55.236653,3.3444031)" /><g
     id="g503"
     transform="matrix(0.07197111,0,0,0.07197111,-55.236653,3.3444031)" /><g
     id="g505"
     transform="matrix(0.07197111,0,0,0.07197111,-55.236653,3.3444031)" /><g
     id="g507"
     transform="matrix(0.07197111,0,0,0.07197111,-55.236653,3.3444031)" /><g
     id="g509"
     transform="matrix(0.07197111,0,0,0.07197111,-55.236653,3.3444031)" /><g
     id="g511"
     transform="matrix(0.07197111,0,0,0.07197111,-55.236653,3.3444031)" /><g
     id="g513"
     transform="matrix(0.07197111,0,0,0.07197111,-55.236653,3.3444031)" /><g
     id="g515"
     transform="matrix(0.07197111,0,0,0.07197111,-55.236653,3.3444031)" /><g
     id="g1086"
     transform="matrix(0.06205768,0,0,0.06205768,0.11323392,0.11323392)"><g
       id="g1021">
</g><g
       id="g1023">
</g><g
       id="g1025">
</g><g
       id="g1027">
</g><g
       id="g1029">
</g><g
       id="g1031">
</g><g
       id="g1033">
</g><g
       id="g1035">
</g><g
       id="g1037">
</g><g
       id="g1039">
</g><g
       id="g1041">
</g><g
       id="g1043">
</g><g
       id="g1045">
</g><g
       id="g1047">
</g><g
       id="g1049">
</g><g
       id="g1364"
       transform="matrix(16.114041,0,0,16.114041,-3309.6502,-3587.1855)"><g
         id="g1403"
         transform="matrix(0.48185242,0,0,0.48185242,149.80616,223.49916)"><path
           inkscape:connector-curvature="0"
           style="fill:#d29650;stroke-width:0.20583431"
           d="m -1002.0123,-2843.6732 v 26.7584 c 0,0.5683 -0.4609,1.0292 -1.0292,1.0292 h -30.8751 c -0.5683,0 -1.0292,-0.4609 -1.0292,-1.0292 v -26.7584 c 0,-0.5683 0.4609,-1.0292 1.0292,-1.0292 h 30.8751 c 0.5683,0 1.0292,0.4609 1.0292,1.0292 z"
           id="path1001"
           transform="matrix(0.06205768,0,0,0.06205768,205.38921,222.61241)" /><path
           inkscape:connector-curvature="0"
           style="fill:#aa6432;stroke-width:0.20583431"
           d="m -995.83729,-2794.7876 -51.45861,7.7188 v -30.8751 h 51.45861 z"
           id="path1003"
           transform="matrix(0.06205768,0,0,0.06205768,205.38921,222.61241)" /><path
           inkscape:connector-curvature="0"
           style="fill:#f7d139;stroke-width:0.20583431"
           d="m -1025.6833,-2836.469 h -9.2625 v -4.1167 h 9.2625 c 0.5683,0 1.0292,0.4608 1.0292,1.0292 v 2.0583 c 0,0.5683 -0.4609,1.0292 -1.0292,1.0292 z"
           id="path1005"
           transform="matrix(0.06205768,0,0,0.06205768,205.38921,222.61241)" /><path
           inkscape:connector-curvature="0"
           style="fill:#ff6633;stroke-width:0.20583431"
           d="m -1027.7416,-2799.4189 h -19.5543 v -12.35 h 19.5543 c 0.5683,0 1.0292,0.4608 1.0292,1.0292 v 10.2917 c 0,0.5683 -0.4609,1.0291 -1.0292,1.0291 z"
           id="path1009"
           transform="matrix(0.06205768,0,0,0.06205768,205.38921,222.61241)" /><path
           inkscape:connector-curvature="0"
           style="fill:#333333;stroke-width:0.20583431"
           d="m -987.19224,-2832.8669 h -53.93046 c 0,0 0,0 -0.01,0 h -18.9676 l -1.6685,-6.6742 c -0.2489,-0.9956 -1.1848,-1.637 -2.1753,-1.5493 -0.063,-0.01 -0.1272,-0.01 -0.192,-0.01 h -16.1374 c -1.114,0 -2.0172,0.9215 -2.0172,2.0583 0,1.1369 0.903,2.0584 2.0172,2.0584 h 14.9009 l 1.6537,6.6151 8.0982,42.7172 -3.9224,11.7671 c -0.3596,1.0784 0.2233,2.244 1.3019,2.6036 0.2159,0.072 0.4353,0.1062 0.6512,0.1062 0.8619,0 1.665,-0.5454 1.9524,-1.4081 l 3.6358,-10.9075 65.06694,-8.2849 c 1.02793,-0.1309 1.79837,-1.0055 1.79837,-2.0419 v -12.3245 c 0,-2e-4 0,-4e-4 0,-4e-4 l -4.1e-4,-22.6669 c 0,-1.1368 -0.92152,-2.0583 -2.05834,-2.0583 z m -72.02696,4.1167 h 16.2452 l 1.0348,9.8306 -15.331,0.4508 z m 2.7256,14.3771 14.9868,-0.4407 0.9895,9.399 -14.0373,1.2683 z m 4.6842,24.7091 -1.9752,-10.4187 13.6981,-1.2379 1.0353,9.836 c 0.01,0.065 0.017,0.1293 0.03,0.1923 z m 12.9748,-39.0862 h 16.2413 c 0,0.04 0,0.08 0,0.1208 l 0.5368,9.1248 -15.7571,0.4634 z m 1.4542,13.8149 15.5666,-0.4577 0.485,8.2442 -15.0885,1.3635 z m 2.4288,23.1247 c 0,-0.035 0,-0.07 -0.01,-0.105 l -1.029,-9.7755 14.8993,-1.3463 0.5525,9.3912 z m 16.476,-36.9396 h 14.4049 v 8.7168 l -13.868,0.4078 z m 0.7787,13.2359 13.6262,-0.4007 v 7.2064 l -13.1559,1.1889 z m 1.2556,21.3469 -0.5436,-9.2405 12.9142,-1.1671 v 8.7582 c 0,0.025 0,0.049 0,0.074 z m 27.19071,-3.4623 -10.70338,1.3628 v -8.68 l 10.70338,-0.9673 z m 0,-12.4178 -10.70338,0.9672 v -6.9556 l 10.70338,-0.3147 z m 0,-10.4218 -10.70338,0.3147 v -8.5956 h 10.70338 z"
           id="path1011"
           transform="matrix(0.06205768,0,0,0.06205768,205.38921,222.61241)" /><path
           inkscape:connector-curvature="0"
           style="fill:#6c5353;stroke-width:0.20583431"
           d="m -995.83729,-2777.8063 v 4.1167 c 0,0.5683 -0.46086,1.0292 -1.02917,1.0292 h -61.75034 c -0.5683,0 -1.0291,-0.4609 -1.0291,-1.0292 v -4.1167 c 0,-0.5683 0.4608,-1.0291 1.0291,-1.0291 h 61.75034 c 0.56831,0 1.02917,0.4608 1.02917,1.0291 z m -75.38681,-64.8378 h -8.748 c -2.1316,0 -3.8594,1.728 -3.8594,3.8594 v 0 c 0,2.1314 1.728,3.8594 3.8594,3.8594 h 8.748 c 2.1314,0 3.8594,-1.728 3.8594,-3.8594 v 0 c 0,-2.1314 -1.728,-3.8594 -3.8594,-3.8594 z"
           id="path1013"
           transform="matrix(0.06205768,0,0,0.06205768,205.38921,222.61241)" /><path
           inkscape:connector-curvature="0"
           style="fill:#a05a2c;stroke-width:0.20583431"
           d="m -1004.0707,-2778.3208 v 14.4084 c 0,0.5683 -0.4608,1.0291 -1.0291,1.0291 h -4.1167 c -0.5683,0 -1.0292,-0.4608 -1.0292,-1.0291 v -14.4084 c 0,-0.5683 0.4609,-1.0292 1.0292,-1.0292 h 4.1167 c 0.5683,0 1.0291,0.4609 1.0291,1.0292 z m -40.1377,-1.0292 h -4.1166 c -0.5683,0 -1.0292,0.4609 -1.0292,1.0292 v 14.4084 c 0,0.5683 0.4609,1.0291 1.0292,1.0291 h 4.1166 c 0.5684,0 1.0292,-0.4608 1.0292,-1.0291 v -14.4084 c 0,-0.5683 -0.4608,-1.0292 -1.0292,-1.0292 z"
           id="path1015"
           transform="matrix(0.06205768,0,0,0.06205768,205.38921,222.61241)" /><path
           inkscape:connector-curvature="0"
           style="fill:#1a1a1a;stroke-width:0.20583431"
           d="m -999.95397,-2761.8541 c 0,3.9788 -3.22543,7.2042 -7.20423,7.2042 -3.9788,0 -7.2042,-3.2254 -7.2042,-7.2042 0,-3.9788 3.2254,-7.2042 7.2042,-7.2042 3.9788,0 7.20423,3.2254 7.20423,7.2042 z m -46.31273,-7.2042 c -3.9788,0 -7.2042,3.2254 -7.2042,7.2042 0,3.9788 3.2254,7.2042 7.2042,7.2042 3.9788,0 7.2042,-3.2254 7.2042,-7.2042 0,-3.9788 -3.2254,-7.2042 -7.2042,-7.2042 z"
           id="path1017"
           transform="matrix(0.06205768,0,0,0.06205768,205.38921,222.61241)" /><path
           inkscape:connector-curvature="0"
           style="fill:#a05a2c;stroke-width:0.20583431"
           d="m -1003.0415,-2761.8541 c 0,2.2737 -1.843,4.1167 -4.1167,4.1167 -2.2736,0 -4.1167,-1.843 -4.1167,-4.1167 0,-2.2736 1.8431,-4.1167 4.1167,-4.1167 2.2735,0 4.1167,1.8431 4.1167,4.1167 z m -43.2252,-4.1167 c -2.2736,0 -4.1167,1.8431 -4.1167,4.1167 0,2.2737 1.8431,4.1167 4.1167,4.1167 2.2737,0 4.1167,-1.843 4.1167,-4.1167 0,-2.2736 -1.8433,-4.1167 -4.1167,-4.1167 z"
           id="path1019"
           transform="matrix(0.06205768,0,0,0.06205768,205.38921,222.61241)" /><polygon
           transform="matrix(0.20583432,0,0,0.20583432,95.62946,3.2273965e-5)"
           style="fill:#e6af78"
           points="256,255.54 302.933,213.822 302.933,177.319 209.067,177.319 209.067,213.822 "
           id="polygon1236" /><path
           inkscape:connector-curvature="0"
           style="fill:#707487;stroke-width:0.20583431"
           d="m 172.92086,47.526559 -13.28228,-3.125182 c -0.20048,-0.04734 -0.38491,-0.127206 -0.55781,-0.22436 l -10.75772,6.275271 -10.33844,-6.578876 c -0.26759,0.251941 -0.59981,0.43925 -0.9771,0.528171 l -13.28228,3.125182 c -1.93937,0.456335 -3.31023,2.18699 -3.31023,4.179466 v 8.406685 c 0,1.185606 0.96125,2.146852 2.14685,2.146852 h 51.52239 c 1.18561,0 2.14685,-0.961246 2.14685,-2.146852 v -8.406685 c -2e-4,-1.992682 -1.37085,-3.723337 -3.31023,-4.179672 z"
           id="path1238" /><path
           inkscape:connector-curvature="0"
           style="fill:#d29b6e;stroke-width:0.20583431"
           d="m 138.66262,36.498368 v 7.927503 c 12.16955,4.384477 19.32085,-6.588962 19.32085,-6.588962 v -1.338747 h -19.32085 z"
           id="path1240" /><path
           inkscape:connector-curvature="0"
           style="fill:#f0c087;stroke-width:0.20583431"
           d="m 134.36913,11.8106 0.93531,20.578286 c 0.0875,1.922492 1.02999,3.705223 2.56943,4.859748 l 4.43799,3.328547 c 1.1148,0.836099 2.47063,1.288111 3.86413,1.288111 h 4.2937 c 1.3935,0 2.74933,-0.452012 3.86413,-1.288111 l 4.43799,-3.328547 c 1.53944,-1.15473 2.48195,-2.937256 2.56943,-4.859748 L 162.27655,11.8106 Z"
           id="path1242" /><path
           inkscape:connector-curvature="0"
           style="fill:#e6af78;stroke-width:0.20583431"
           d="m 145.10297,16.104098 c 4.29371,0 10.73385,-1.073426 12.26135,-4.293704 h -22.99519 l 0.93531,20.578286 c 0.0875,1.922493 1.02999,3.705224 2.56943,4.859748 l 4.43799,3.328547 c 1.1148,0.836099 2.47063,1.288111 3.86413,1.288111 h 2.14706 c -2.14686,0 -6.44015,-4.293704 -6.44015,-9.660422 0,-2.625005 0,-9.660422 0,-12.8807 0,-1.073014 1.07343,-3.219866 3.22007,-3.219866 z"
           id="path1244" /><g
           transform="matrix(0.20583432,0,0,0.20583432,95.62946,3.2273965e-5)"
           id="g1252">
	<path
   inkscape:connector-curvature="0"
   style="fill:#5b5d6e"
   d="m 353.301,268.629 33.791,-30.355 c 2.831,3.585 4.492,8.097 4.492,12.927 v 40.842 c 0,5.76 -4.67,10.43 -10.43,10.43 h -36.503 v -14.446 c 0,-7.401 3.145,-14.452 8.65,-19.398 z"
   id="path1246" />
	<path
   inkscape:connector-curvature="0"
   style="fill:#5b5d6e"
   d="m 158.699,268.629 -33.791,-30.355 c -2.831,3.585 -4.492,8.097 -4.492,12.927 v 40.842 c 0,5.76 4.67,10.43 10.43,10.43 h 36.503 v -14.446 c 0,-7.401 -3.145,-14.452 -8.65,-19.398 z"
   id="path1248" />
	<polygon
   style="fill:#5b5d6e"
   points="242.963,302.473 246.223,255.54 265.778,255.54 269.038,302.473 "
   id="polygon1250" />
</g><path
           inkscape:connector-curvature="0"
           style="fill:#515262;stroke-width:0.20583431"
           d="M 151.00671,50.452288 H 145.64 v 1.188488 c 0,1.122002 0.90937,2.031378 2.03137,2.031378 h 1.30397 c 1.122,0 2.03137,-0.909376 2.03137,-2.031378 z"
           id="path1254" /><g
           transform="matrix(0.20583432,0,0,0.20583432,95.62946,3.2273965e-5)"
           id="g1260">
	<path
   inkscape:connector-curvature="0"
   style="fill:#5b5d6e"
   d="M 208.335,202.212 256,245.111 c 0,0 -13.348,6.739 -29.822,20.321 -3.399,2.802 -8.538,1.666 -10.361,-2.343 l -22.394,-49.267 7.084,-10.626 c 1.764,-2.646 5.464,-3.112 7.828,-0.984 z"
   id="path1256" />
	<path
   inkscape:connector-curvature="0"
   style="fill:#5b5d6e"
   d="M 303.666,202.212 256,245.111 c 0,0 13.348,6.739 29.822,20.321 3.399,2.802 8.538,1.666 10.361,-2.343 l 22.395,-49.267 -7.084,-10.626 c -1.765,-2.646 -5.466,-3.112 -7.828,-0.984 z"
   id="path1258" />
</g><path
           inkscape:connector-curvature="0"
           style="fill:#785550;stroke-width:0.20583431"
           d="m 154.8305,4.6994356 1.00632,7.1111644 c 4.5934,0.918638 5.25557,8.127368 5.35087,10.186534 0.0173,0.37359 0.13668,0.734623 0.33942,1.048932 l 1.75248,2.71866 c 0,0 -0.59981,-4.494804 2.14685,-7.51357 -2.1e-4,-2.06e-4 0.94292,-17.84521845 -10.59594,-13.5517204 z"
           id="path1262" /><path
           inkscape:connector-curvature="0"
           style="fill:#f0c087;stroke-width:0.20583431"
           d="m 164.3563,25.305098 -1.21215,4.848633 c -0.14347,0.574484 -0.65991,0.977507 -1.25189,0.977507 v 0 c -0.65064,0 -1.1996,-0.48474 -1.28049,-1.130442 L 159.992,25.04163 c -0.1659,-1.326191 0.86821,-2.497594 2.20469,-2.497594 h 0.004 c 1.44517,4.12e-4 2.50604,1.358712 2.15529,2.761062 z"
           id="path1264" /><path
           inkscape:connector-curvature="0"
           style="fill:#694b4b;stroke-width:0.20583431"
           d="m 135.39768,2.7763256 1.5876,1.084541 c -7.17806,5.2998221 -5.83643,14.3898774 -5.83643,14.3898774 2.14685,2.146852 2.14685,7.51357 2.14685,7.51357 l 2.14685,-2.146852 c 0,0 -0.82848,-6.20117 3.22028,-8.586996 3.75689,-2.213748 7.04406,-1.073426 10.39834,-1.073426 8.9894,0 11.50531,-3.387827 11.06936,-7.5135702 -0.22601,-2.1347077 -3.48972,-6.58134652 -11.80748,-6.44014418 -3.35675,0.05722194 -9.66043,1.07342598 -12.92537,2.77299998 z"
           id="path1266" /><path
           inkscape:connector-curvature="0"
           style="fill:#5a4146;stroke-width:0.20583431"
           d="m 134.77174,13.01823 c 0,0 -1.14032,-4.4948044 2.21375,-9.1573634 -7.17806,5.2998221 -5.83644,14.3898774 -5.83644,14.3898774 2.14686,2.146852 2.14686,7.51357 2.14686,7.51357 l 2.14685,-2.146852 c 0,0 -0.82849,-6.20117 3.22028,-8.586996 3.75688,-2.213748 7.04406,-1.073426 10.39833,-1.073426 1.46205,0 2.73595,-0.09798 3.87072,-0.265732 -6.92344,0.232387 -11.00452,-5.0114483 -18.16035,-0.673078 z"
           id="path1268" /><path
           inkscape:connector-curvature="0"
           style="fill:#e6af78;stroke-width:0.20583431"
           d="m 132.28999,25.305098 1.21216,4.848633 c 0.14347,0.574484 0.65991,0.977507 1.25189,0.977507 v 0 c 0.65064,0 1.1996,-0.48474 1.28049,-1.130442 l 0.61977,-4.959166 c 0.1659,-1.326191 -0.86821,-2.497594 -2.20469,-2.497594 h -0.004 c -1.44536,4.12e-4 -2.50603,1.358712 -2.15529,2.761062 z"
           id="path1270" /><path
           inkscape:connector-curvature="0"
           style="fill:#5b5d6e;stroke-width:0.20583431"
           d="m 161.67325,60.11271 h -6.30594 c -0.92625,0 -1.67734,0.750884 -1.67734,1.677344 v 0.469508 h 9.66042 v -0.469508 c 0,-0.92646 -0.75088,-1.677344 -1.67714,-1.677344 z"
           id="path1272" /></g><g
         id="g1286">
</g><g
         id="g1288">
</g><g
         id="g1290">
</g><g
         id="g1292">
</g><g
         id="g1294">
</g><g
         id="g1296">
</g><g
         id="g1298">
</g><g
         id="g1300">
</g><g
         id="g1302">
</g><g
         id="g1304">
</g><g
         id="g1306">
</g><g
         id="g1308">
</g><g
         id="g1310">
</g><g
         id="g1312">
</g><g
         id="g1314">
</g></g></g></svg>